<svg viewBox="0 0 24 24" fill="#24394A" xmlns="http://www.w3.org/2000/svg">
<path d="M11.98 6.03999H12L12.9 8.60999H11.07L11.98 6.03999Z" />
<path fill-rule="evenodd" clip-rule="evenodd" d="M7 2H17C17.5304 2 18.0391 2.21071 18.4142 2.58579C18.7893 2.96086 19 3.46957 19 4V20C19 20.5304 18.7893 21.0391 18.4142 21.4142C18.0391 21.7893 17.5304 22 17 22H7C6.46957 22 5.96086 21.7893 5.58579 21.4142C5.21071 21.0391 5 20.5304 5 20V4C5 3.46957 5.21071 2.96086 5.58579 2.58579C5.96086 2.21071 6.46957 2 7 2ZM12.56 5H11.44L9.14 11H10.22L10.79 9.41H13.18L13.74 11H14.87L12.56 5ZM13.7978 17.876C14.1304 17.7929 14.4327 17.6175 14.67 17.37C15.0285 17.0101 15.2297 16.5229 15.2297 16.015C15.2297 15.5071 15.0285 15.0199 14.67 14.66L12.46 12.45C12.3335 12.329 12.1651 12.2614 11.99 12.2614C11.8149 12.2614 11.6465 12.329 11.52 12.45L9.3 14.66C8.94396 15.0211 8.74436 15.5079 8.74436 16.015C8.74436 16.5221 8.94396 17.0089 9.3 17.37C9.55588 17.6079 9.86963 17.7747 10.21 17.8536C10.5504 17.9326 10.9055 17.921 11.24 17.82L10.54 18.52C10.4684 18.5878 10.4195 18.676 10.3998 18.7726C10.3801 18.8693 10.3907 18.9696 10.43 19.06C10.4664 19.1521 10.5298 19.231 10.6119 19.2864C10.694 19.3417 10.791 19.3709 10.89 19.37H13.11C13.209 19.3709 13.306 19.3417 13.3881 19.2864C13.4702 19.231 13.5336 19.1521 13.57 19.06C13.6093 18.9696 13.6199 18.8693 13.6002 18.7726C13.5805 18.676 13.5316 18.5878 13.46 18.52L12.79 17.84C13.1158 17.9467 13.4651 17.9592 13.7978 17.876Z" />
</svg>
