<svg viewBox="0 0 24 24" fill="#24394A" xmlns="http://www.w3.org/2000/svg">
<path d="M17 2H7C6.46957 2 5.96086 2.21071 5.58579 2.58579C5.21071 2.96086 5 3.46957 5 4V20C5 20.5304 5.21071 21.0391 5.58579 21.4142C5.96086 21.7893 6.46957 22 7 22H17C17.5304 22 18.0391 21.7893 18.4142 21.4142C18.7893 21.0391 19 20.5304 19 20V4C19 3.46957 18.7893 2.96086 18.4142 2.58579C18.0391 2.21071 17.5304 2 17 2ZM9 7C8.80222 7 8.60888 6.94135 8.44443 6.83147C8.27998 6.72159 8.15181 6.56541 8.07612 6.38268C8.00043 6.19996 7.98063 5.99889 8.01921 5.80491C8.0578 5.61093 8.15304 5.43275 8.29289 5.29289C8.43275 5.15304 8.61093 5.0578 8.80491 5.01921C8.99889 4.98063 9.19996 5.00043 9.38268 5.07612C9.56541 5.15181 9.72159 5.27998 9.83147 5.44443C9.94135 5.60888 10 5.80222 10 6C10 6.26522 9.89464 6.51957 9.70711 6.70711C9.51957 6.89464 9.26522 7 9 7ZM15 19C14.8022 19 14.6089 18.9414 14.4444 18.8315C14.28 18.7216 14.1518 18.5654 14.0761 18.3827C14.0004 18.2 13.9806 17.9989 14.0192 17.8049C14.0578 17.6109 14.153 17.4327 14.2929 17.2929C14.4327 17.153 14.6109 17.0578 14.8049 17.0192C14.9989 16.9806 15.2 17.0004 15.3827 17.0761C15.5654 17.1518 15.7216 17.28 15.8315 17.4444C15.9414 17.6089 16 17.8022 16 18C16 18.2652 15.8946 18.5196 15.7071 18.7071C15.5196 18.8946 15.2652 19 15 19ZM11.44 9H12.56L14.87 15H13.74L13.18 13.41H10.79L10.22 15H9.14L11.44 9ZM11.07 12.61H12.9L12 10L11.07 12.61Z" />
</svg>
