<svg width="24" height="24" viewBox="0 0 24 24" fill="none" xmlns="http://www.w3.org/2000/svg">
<path d="M11.07 8.60999L11.98 6.03999H12L12.9 8.60999H11.07Z" fill="#24394A"/>
<path fill-rule="evenodd" clip-rule="evenodd" d="M7 2H17C17.5304 2 18.0391 2.21071 18.4142 2.58579C18.7893 2.96086 19 3.46957 19 4V20C19 20.5304 18.7893 21.0391 18.4142 21.4142C18.0391 21.7893 17.5304 22 17 22H7C6.46957 22 5.96086 21.7893 5.58579 21.4142C5.21071 21.0391 5 20.5304 5 20V4C5 3.46957 5.21071 2.96086 5.58579 2.58579C5.96086 2.21071 6.46957 2 7 2ZM12.74 19.07L14.27 16.52C14.4223 16.2736 14.5029 15.9897 14.5029 15.7C14.5029 15.4103 14.4223 15.1264 14.27 14.88L12.74 12.33C12.6587 12.2083 12.5486 12.1085 12.4195 12.0396C12.2905 11.9706 12.1464 11.9345 12 11.9345C11.8536 11.9345 11.7095 11.9706 11.5805 12.0396C11.4514 12.1085 11.3413 12.2083 11.26 12.33L9.73 14.88C9.57775 15.1264 9.4971 15.4103 9.4971 15.7C9.4971 15.9897 9.57775 16.2736 9.73 16.52L11.26 19.07C11.3361 19.1985 11.4444 19.305 11.5741 19.379C11.7039 19.4529 11.8506 19.4918 12 19.4918C12.1494 19.4918 12.2961 19.4529 12.4259 19.379C12.5556 19.305 12.6639 19.1985 12.74 19.07ZM13.18 9.41L13.74 11H14.87L12.56 5H11.44L9.14 11H10.22L10.79 9.41H13.18Z" fill="#24394A"/>
</svg>
