<svg viewBox="0 0 24 24" fill="#24394A" xmlns="http://www.w3.org/2000/svg">
<path fill-rule="evenodd" clip-rule="evenodd" d="M7 2H17C17.5304 2 18.0391 2.21071 18.4142 2.58579C18.7893 2.96086 19 3.46957 19 4V20C19 20.5304 18.7893 21.0391 18.4142 21.4142C18.0391 21.7893 17.5304 22 17 22H7C6.46957 22 5.96086 21.7893 5.58579 21.4142C5.21071 21.0391 5 20.5304 5 20V4C5 3.46957 5.21071 2.96086 5.58579 2.58579C5.96086 2.21071 6.46957 2 7 2ZM12.56 5H11.44L9.14 11H10.22L10.79 9.41H13.18L13.74 11H14.87L12.56 5ZM12.85 17.95C12.981 17.982 13.1152 17.9988 13.25 18C13.6792 18.0037 14.0948 17.8495 14.4177 17.5667C14.7406 17.284 14.9484 16.8924 15.0015 16.4665C15.0546 16.0406 14.9493 15.61 14.7056 15.2566C14.462 14.9033 14.097 14.6518 13.68 14.55C13.7236 14.397 13.7471 14.239 13.75 14.08C13.75 13.6159 13.5656 13.1708 13.2374 12.8426C12.9092 12.5144 12.4641 12.33 12 12.33C11.5359 12.33 11.0908 12.5144 10.7626 12.8426C10.4344 13.1708 10.25 13.6159 10.25 14.08C10.2529 14.239 10.2764 14.397 10.32 14.55C9.87296 14.6636 9.48886 14.9492 9.25122 15.3445C9.01359 15.7398 8.94165 16.213 9.05103 16.6611C9.16042 17.1092 9.4423 17.496 9.83536 17.7373C10.2284 17.9787 10.7009 18.0551 11.15 17.95L10.54 18.56C10.4684 18.6278 10.4195 18.716 10.3998 18.8126C10.3801 18.9093 10.3907 19.0096 10.43 19.1C10.4664 19.1921 10.5298 19.271 10.6119 19.3264C10.694 19.3817 10.791 19.4109 10.89 19.41H13.11C13.209 19.4109 13.306 19.3817 13.3881 19.3264C13.4702 19.271 13.5336 19.1921 13.57 19.1C13.6093 19.0096 13.6199 18.9093 13.6002 18.8126C13.5805 18.716 13.5316 18.6278 13.46 18.56L12.85 17.95ZM11.98 6.03999H12L12.9 8.60999H11.07L11.98 6.03999Z" />
</svg>
