<svg viewBox="0 0 24 24" fill="#24394A" xmlns="http://www.w3.org/2000/svg">
<path d="M13.29 3.2C13.1572 2.97616 12.9684 2.79074 12.7422 2.66195C12.5161 2.53316 12.2603 2.46544 12 2.46544C11.7397 2.46544 11.4839 2.53316 11.2578 2.66195C11.0316 2.79074 10.8428 2.97616 10.71 3.2L6.5 10.2C6.1718 10.743 5.99832 11.3655 5.99832 12C5.99832 12.6345 6.1718 13.257 6.5 13.8L10.71 20.8C10.8428 21.0238 11.0316 21.2093 11.2578 21.338C11.4839 21.4668 11.7397 21.5346 12 21.5346C12.2603 21.5346 12.5161 21.4668 12.7422 21.338C12.9684 21.2093 13.1572 21.0238 13.29 20.8L17.5 13.8C17.8282 13.257 18.0017 12.6345 18.0017 12C18.0017 11.3655 17.8282 10.743 17.5 10.2L13.29 3.2Z" />
</svg>
