<svg width="24" height="24" viewBox="0 0 24 24" fill="none" xmlns="http://www.w3.org/2000/svg">
<path d="M11.98 6.03999H12L12.9 8.60999H11.07L11.98 6.03999Z" fill="#24394A"/>
<path fill-rule="evenodd" clip-rule="evenodd" d="M7 2H17C17.5304 2 18.0391 2.21071 18.4142 2.58579C18.7893 2.96086 19 3.46957 19 4V20C19 20.5304 18.7893 21.0391 18.4142 21.4142C18.0391 21.7893 17.5304 22 17 22H7C6.46957 22 5.96086 21.7893 5.58579 21.4142C5.21071 21.0391 5 20.5304 5 20V4C5 3.46957 5.21071 2.96086 5.58579 2.58579C5.96086 2.21071 6.46957 2 7 2ZM12.56 5H11.44L9.14 11H10.22L10.79 9.41H13.18L13.74 11H14.87L12.56 5ZM12.47 18.84L14.89 16.42C15.0851 16.2333 15.2404 16.009 15.3465 15.7607C15.4526 15.5123 15.5073 15.2451 15.5073 14.975C15.5073 14.7049 15.4526 14.4377 15.3465 14.1893C15.2404 13.941 15.0851 13.7167 14.89 13.53C14.4999 13.16 13.9827 12.9538 13.445 12.9538C12.9073 12.9538 12.3901 13.16 12 13.53C11.6168 13.1441 11.0959 12.9263 10.5521 12.9244C10.0082 12.9225 9.48589 13.1368 9.1 13.52C8.71411 13.9032 8.49627 14.4241 8.49439 14.9679C8.49252 15.5118 8.70676 16.0341 9.09 16.42L11.52 18.8C11.5826 18.8636 11.6574 18.9141 11.7398 18.9485C11.8222 18.9828 11.9107 19.0003 12 19C12.1711 19.0068 12.3386 18.9498 12.47 18.84Z" fill="#24394A"/>
</svg>
