<svg viewBox="0 0 24 24" fill="#24394A" xmlns="http://www.w3.org/2000/svg">
<path d="M21.74 3.02999L21.15 2.43999C20.8675 2.16151 20.4867 2.0054 20.09 2.0054C19.6933 2.0054 19.3125 2.16151 19.03 2.43999L2.44 19.03C2.16152 19.3125 2.00541 19.6933 2.00541 20.09C2.00541 20.4867 2.16152 20.8675 2.44 21.15L3.03 21.74C3.31377 22.0161 3.69407 22.1706 4.09 22.1706C4.48593 22.1706 4.86623 22.0161 5.15 21.74L21.74 5.14999C22.0185 4.86747 22.1746 4.4867 22.1746 4.08999C22.1746 3.69329 22.0185 3.31252 21.74 3.02999ZM4.44 21.03C4.34654 21.1216 4.22088 21.1729 4.09 21.1729C3.95913 21.1729 3.83347 21.1216 3.74 21.03L3.15 20.44C3.05839 20.3465 3.00707 20.2209 3.00707 20.09C3.00707 19.9591 3.05839 19.8335 3.15 19.74L5.74 17.15C5.83347 17.0584 5.95913 17.0071 6.09 17.0071C6.22088 17.0071 6.34654 17.0584 6.44 17.15L7.03 17.74C7.12162 17.8335 7.17293 17.9591 7.17293 18.09C7.17293 18.2209 7.12162 18.3465 7.03 18.44L4.44 21.03ZM21.03 4.43999L18.44 7.02999C18.3465 7.12161 18.2209 7.17292 18.09 7.17292C17.9591 7.17292 17.8335 7.12161 17.74 7.02999L17.15 6.43999C17.0584 6.34653 17.0071 6.22087 17.0071 6.08999C17.0071 5.95912 17.0584 5.83346 17.15 5.73999L19.74 3.14999C19.7849 3.10216 19.8391 3.06404 19.8993 3.03798C19.9595 3.01192 20.0244 2.99848 20.09 2.99848C20.1556 2.99848 20.2205 3.01192 20.2807 3.03798C20.3409 3.06404 20.3951 3.10216 20.44 3.14999L21.03 3.73999C21.1216 3.83346 21.1729 3.95912 21.1729 4.08999C21.1729 4.22087 21.1216 4.34653 21.03 4.43999Z" />
</svg>
