<svg viewBox="0 0 24 24" fill="#24394A" xmlns="http://www.w3.org/2000/svg">
<path d="M18.9945 5.52797C18.0436 4.79153 16.8542 4.4322 15.6546 4.51894C14.4549 4.60568 13.3296 5.13238 12.4945 5.99797L12.3445 6.13797C12.2511 6.22958 12.1254 6.2809 11.9945 6.2809C11.8636 6.2809 11.738 6.22958 11.6445 6.13797L11.4945 5.99797C10.6594 5.13238 9.53409 4.60568 8.33447 4.51894C7.13485 4.4322 5.94545 4.79153 4.99452 5.52797C4.48521 5.94728 4.06904 6.46828 3.77263 7.05765C3.47622 7.64702 3.3061 8.29177 3.27315 8.95065C3.24021 9.60954 3.34517 10.268 3.58131 10.884C3.81745 11.5 4.17958 12.06 4.64452 12.528L11.2845 19.198C11.3775 19.2917 11.4881 19.3661 11.6099 19.4169C11.7318 19.4676 11.8625 19.4938 11.9945 19.4938C12.1265 19.4938 12.2572 19.4676 12.3791 19.4169C12.501 19.3661 12.6116 19.2917 12.7045 19.198L19.3445 12.548C19.8128 12.0797 20.1777 11.5185 20.4158 10.9006C20.6539 10.2827 20.7599 9.62171 20.7269 8.96032C20.6939 8.29894 20.5227 7.65179 20.2243 7.06061C19.926 6.46944 19.507 5.94734 18.9945 5.52797Z" />
</svg>
