<svg viewBox="0 0 24 24" fill="#24394A" xmlns="http://www.w3.org/2000/svg">
<path d="M19.2625 10.7894C19.9132 11.4814 20.327 12.3624 20.4443 13.305C20.5676 14.2876 20.3633 15.2835 19.863 16.1382C19.3627 16.9929 18.5945 17.6588 17.6773 18.0324C16.7602 18.4061 15.7454 18.4668 14.7902 18.2052C13.8351 17.9435 12.9929 17.374 12.3943 16.585C12.3467 16.5208 12.285 16.4685 12.2139 16.4321C12.1428 16.3957 12.0642 16.3762 11.9843 16.375C11.9114 16.3819 11.8407 16.4042 11.7769 16.4404C11.7131 16.4766 11.6577 16.5259 11.6143 16.585C11.1744 17.1688 10.5988 17.6366 9.93742 17.948C9.27604 18.2593 8.54875 18.4049 7.81848 18.3721C7.0882 18.3392 6.37692 18.129 5.74616 17.7595C5.1154 17.39 4.58415 16.8724 4.19835 16.2515C3.81256 15.6305 3.58385 14.925 3.53199 14.1958C3.48014 13.4666 3.6067 12.7358 3.90074 12.0665C4.19478 11.3973 4.64744 10.8097 5.21957 10.3547C5.7917 9.89965 6.46607 9.59085 7.18435 9.45499L7.52434 9.40499C7.59672 9.39709 7.66619 9.37212 7.72704 9.33214C7.78788 9.29215 7.83837 9.2383 7.87434 9.175C7.91125 9.10215 7.93048 9.02165 7.93048 8.93999C7.93048 8.85834 7.91125 8.77783 7.87434 8.70499C7.59316 8.02586 7.48379 7.28787 7.55592 6.55638C7.62805 5.82489 7.87945 5.12248 8.28786 4.51134C8.69627 3.90021 9.24909 3.39923 9.89735 3.05276C10.5456 2.70629 11.2693 2.52502 12.0043 2.52502C12.7394 2.52502 13.4631 2.70629 14.1113 3.05276C14.7596 3.39923 15.3124 3.90021 15.7208 4.51134C16.1292 5.12248 16.3806 5.82489 16.4528 6.55638C16.5249 7.28787 16.4155 8.02586 16.1343 8.70499C16.0974 8.77783 16.0782 8.85834 16.0782 8.93999C16.0782 9.02165 16.0974 9.10215 16.1343 9.175C16.1703 9.2383 16.2208 9.29215 16.2817 9.33214C16.3425 9.37212 16.412 9.39709 16.4843 9.40499L16.8243 9.45499C17.758 9.63007 18.6118 10.0974 19.2625 10.7894Z" />
<path d="M12.175 17.513C12.2352 17.539 12.2895 17.5772 12.3343 17.625L15.3343 20.625C15.4072 20.692 15.457 20.7802 15.4768 20.8772C15.4965 20.9741 15.4852 21.0749 15.4443 21.165C15.4068 21.2563 15.3431 21.3345 15.2613 21.3896C15.1794 21.4448 15.0831 21.4745 14.9843 21.475H8.98435C8.88563 21.4745 8.78927 21.4448 8.70741 21.3896C8.62555 21.3345 8.56186 21.2563 8.52435 21.165C8.4835 21.0749 8.47215 20.9741 8.4919 20.8772C8.51165 20.7802 8.5615 20.692 8.63435 20.625L11.6343 17.625C11.6792 17.5772 11.7335 17.539 11.7937 17.513C11.8538 17.4869 11.9187 17.4735 11.9843 17.4735C12.0499 17.4735 12.1148 17.4869 12.175 17.513Z" />
</svg>
