<svg viewBox="0 0 24 24" fill="#24394A" xmlns="http://www.w3.org/2000/svg">
<path d="M12.71 2.89789L19.35 9.5779C19.8135 10.0467 20.1744 10.6068 20.4097 11.2226C20.645 11.8385 20.7495 12.4965 20.7165 13.155C20.6836 13.8134 20.514 14.4578 20.2185 15.0471C19.9229 15.6364 19.508 16.1577 19 16.5779C18.0491 17.3143 16.8597 17.6737 15.66 17.5869C14.4604 17.5002 13.3351 16.9735 12.5 16.1079L12.35 15.9679C12.3051 15.9201 12.2509 15.8819 12.1907 15.8559C12.1305 15.8298 12.0656 15.8164 12 15.8164C11.9344 15.8164 11.8695 15.8298 11.8093 15.8559C11.7491 15.8819 11.6949 15.9201 11.65 15.9679L11.5 16.1079C10.6649 16.9735 9.53957 17.5002 8.33995 17.5869C7.14033 17.6737 5.95093 17.3143 5 16.5779C4.49201 16.1577 4.07705 15.6364 3.78153 15.0471C3.486 14.4578 3.31638 13.8134 3.28346 13.155C3.25054 12.4965 3.35504 11.8385 3.59031 11.2226C3.82557 10.6068 4.18646 10.0467 4.65 9.5779L11.29 2.89789C11.383 2.80417 11.4936 2.72977 11.6154 2.679C11.7373 2.62823 11.868 2.6021 12 2.6021C12.132 2.6021 12.2627 2.62823 12.3846 2.679C12.5064 2.72977 12.617 2.80417 12.71 2.89789Z" />
<path d="M12.1907 17.4359C12.2509 17.4619 12.3051 17.5001 12.35 17.5479L15.35 20.5479C15.4228 20.6149 15.4727 20.7031 15.4924 20.8001C15.5122 20.897 15.5008 20.9978 15.46 21.0879C15.4225 21.1792 15.3588 21.2574 15.2769 21.3125C15.1951 21.3677 15.0987 21.3974 15 21.3979H9C8.90129 21.3974 8.80493 21.3677 8.72307 21.3125C8.64121 21.2574 8.57751 21.1792 8.54 21.0879C8.49916 20.9978 8.4878 20.897 8.50755 20.8001C8.5273 20.7031 8.57715 20.6149 8.65 20.5479L11.65 17.5479C11.6949 17.5001 11.7491 17.4619 11.8093 17.4359C11.8695 17.4098 11.9344 17.3964 12 17.3964C12.0656 17.3964 12.1305 17.4098 12.1907 17.4359Z" />
</svg>
