<svg width="225" height="68" viewBox="0 0 225 68" fill="#24394A" xmlns="http://www.w3.org/2000/svg">
<path d="M211.35 47.76C211.35 43.56 214.68 40.41 218.94 40.41C222.58 40.41 224.93 42.82 224.93 46.15C224.93 50.35 221.59 53.5 217.34 53.5C213.69 53.5 211.35 51.1 211.35 47.76Z" fill="#ED174C"/>
<path d="M65.21 19.31C59.6 19.31 54.84 23.38 50.61 39.31L50.42 39.25L53.72 25.3C54.67 21.16 53.04 19.81 49.52 19.81C46.55 19.81 42.24 21.17 40.08 22.22L40.17 22.31C42.18 21.54 43.1 22.22 42.79 24.01L39.33 43.45C37.97 51.07 41.34 53.14 46.22 53.14C47.95 53.14 48.72 52.99 50.36 52.65L50.48 52.53C48.23 51.6 50.02 43.7 50.97 39.44C53.07 30.15 57.57 21.11 61.4 21.11C63.22 21.11 63.84 22.87 63.84 24.29C63.84 27.41 61.56 29.32 59.27 29.32C58.9 33.02 61.56 34.75 64.33 34.75C69.82 34.75 72.91 30.61 72.91 26.48C72.92 22.76 70.4 19.31 65.21 19.31Z" />
<path d="M82.82 19.8C79.85 19.8 75.54 21.16 73.38 22.21L73.47 22.3C75.48 21.53 76.37 22.21 76.09 24L72.88 43.44C71.61 51.03 75.53 53.13 80.16 53.13C81.58 53.13 83.06 52.95 84.48 52.64L84.55 52.52C82.45 51.47 83.84 43.82 84.55 39.49L86.89 25.29C87.57 21.1 86.34 19.8 82.82 19.8Z" />
<path d="M110.36 19.8C98.63 19.8 89.62 29.21 89.62 40.01C89.62 48.65 95.42 53.07 102.27 53.07C108.51 53.07 115.6 49.43 119.99 42.08L119.83 41.99C117.3 45.23 113.72 46.74 110.45 46.74C104.96 46.74 101.22 42.45 101.22 35.69C101.22 30.04 103.84 20.01 109.96 20.01C112.74 20.01 114.07 22.2 114.07 24.3C114.07 26.21 112.83 28.25 110.31 28.93C109.88 32.63 112.41 34.36 115.19 34.36C119.39 34.36 122.23 30.96 122.23 27.44C122.21 21.28 114.74 19.8 110.36 19.8Z" />
<path d="M152.29 41.34C150.75 37.27 148.16 34.92 137.11 36.4C143.59 34.73 157.97 33.37 157.97 25.54C157.97 22.58 155.93 19.8 150.78 19.8C144.85 19.8 139.08 23.5 134.92 39.3L134.73 39.24L140.46 8.47999C141.2 4.55999 139.93 2.98999 136.41 2.98999C133.11 2.98999 128.94 4.37999 126.82 5.39999L126.91 5.48999C128.92 4.71999 129.81 5.39999 129.53 7.18999L123.59 43.45C122.32 51.1 124.45 53.14 129.23 53.14C130.8 53.14 132.53 52.93 134.51 52.65L134.64 52.53C132.42 51.67 134.08 43.49 135.13 39.44C137.66 29.72 142.02 22.49 145.16 22.49C146.39 22.49 147.04 23.66 147.04 25.3C147.04 30.89 142.54 34.99 137.07 36.38V36.44C139.11 36.16 139.57 41.01 140.43 44.62C142.16 51.81 146.7 53.51 151.88 53.51C154.47 53.51 156.97 53.08 159.25 52.65L159.38 52.53C155.1 51.62 153.43 44.34 152.29 41.34Z" />
<path d="M171.63 52.64L171.7 52.52C169.6 51.47 170.99 43.82 171.7 39.49L174.04 25.29C174.72 21.09 173.49 19.8 169.97 19.8C167 19.8 162.69 21.16 160.53 22.21L160.62 22.3C162.63 21.53 163.52 22.21 163.24 24L160.03 43.44C158.76 51.03 162.68 53.13 167.31 53.13C168.73 53.13 170.21 52.95 171.63 52.64Z" />
<path d="M83.63 2.97998C79.37 2.97998 76.04 6.12998 76.04 10.33C76.04 13.66 78.38 16.07 82.03 16.07C86.29 16.07 89.62 12.92 89.62 8.71998C89.62 5.37998 87.27 2.97998 83.63 2.97998Z" />
<path d="M169.35 16.06C173.61 16.06 176.94 12.91 176.94 8.70997C176.94 5.37997 174.59 2.96997 170.95 2.96997C166.69 2.96997 163.36 6.11997 163.36 10.32C163.37 13.65 165.71 16.06 169.35 16.06Z" />
<path d="M205.67 20.06C192.52 20.06 186.96 19.48 187.8 13.64C188.52 8.67 195.57 3.51 200.76 3.49C202.46 3.48 203.45 3.98 204.02 4.64C200.91 5.54 198.72 8.26 198.72 11.67C198.72 15 201.06 17.41 204.71 17.41C208.97 17.41 212.3 14.26 212.3 10.06C212.3 4.95 207.8 3 202.95 3C192.08 3 184.04 12.71 182.33 19.54H179.09L179 20.04C181.79 20.04 182.11 20.92 181.95 21.9L177.67 48.77C176.81 54.26 182.73 55.84 182.73 61.08C182.73 63.83 181.4 66.33 178.9 66.33C177.08 66.33 176.22 65.03 176.22 63.61C176.22 61.88 177.55 60.74 179.83 60.86C180.26 56.66 177.17 54.56 173.96 54.56C170.56 54.56 166.98 56.47 166.98 61.04C166.98 64.93 170.19 67.71 174.97 67.71C183.21 67.71 187.07 59.41 188.27 51.85L192.69 23.71C193.47 18.96 200.16 19.85 199.47 24.12C198.78 28.39 196.33 43.45 196.33 43.45C195.09 51.04 198.98 53.14 203.61 53.14C205.03 53.14 206.51 52.96 207.93 52.65L207.99 52.53C205.89 51.48 207.28 43.83 207.99 39.5L210.09 26.85C210.92 22.1 211.17 20.06 205.67 20.06Z" />
<path d="M36.11 21.48C36.91 16.42 38.09 13.46 40.21 12.81C42.8 13.46 45.34 13.89 47.71 13.89C53.7 13.89 59.19 11.3 64.01 1.85L63.91 1.82C62.22 3.92 59.31 4.2 56.47 4.2C48.08 4.2 32.1 0 21.73 0C11.67 0 0.31 3.03 0 14.26C0.37 20.25 4.88 22.97 9.2 22.97C13.4 22.97 17.41 20.44 17.41 15.75C17.41 13.84 16.36 11.99 13.83 10.81C12.47 12.54 10.37 13.4 8.4 13.4C5.69 13.4 3.06 11.61 3.06 8.34C3.06 5.07 5.65 3.53 9.79 3.53C18.27 3.53 29.72 10.07 40.03 12.76C34.91 13.04 24.66 15.2 23.46 23.28L20.34 42.07C19.23 49.29 18.55 53.03 12.13 53.03V53.19C19.16 53.46 24.65 59.04 29.62 59.81C34.59 60.58 37.39 58.44 37.39 58.44L37.4 58.3C32.66 56.93 30.86 52.87 31.78 47.35L36.11 21.48Z" />
</svg>
