<svg width="65" height="60" viewBox="0 0 65 60" fill="#24394A" xmlns="http://www.w3.org/2000/svg">
<path d="M39 47.76C39 43.56 42.33 40.41 46.59 40.41C50.23 40.41 52.58 42.82 52.58 46.15C52.58 50.35 49.24 53.5 44.99 53.5C41.34 53.5 39 51.1 39 47.76Z" fill="black"/>
<path d="M36.11 21.48C36.91 16.42 38.09 13.46 40.21 12.81C42.8 13.46 45.34 13.89 47.71 13.89C53.7 13.89 59.19 11.3 64.01 1.85L63.91 1.82C62.22 3.92 59.31 4.2 56.47 4.2C48.08 4.2 32.1 0 21.73 0C11.67 0 0.31 3.03 0 14.26C0.37 20.25 4.88 22.97 9.2 22.97C13.4 22.97 17.41 20.44 17.41 15.75C17.41 13.84 16.36 11.99 13.83 10.81C12.47 12.54 10.37 13.4 8.4 13.4C5.69 13.4 3.06 11.61 3.06 8.34C3.06 5.07 5.65 3.53 9.79 3.53C18.27 3.53 29.72 10.07 40.03 12.76C34.91 13.04 24.66 15.2 23.46 23.28L20.34 42.07C19.23 49.29 18.55 53.03 12.13 53.03V53.19C19.16 53.46 24.65 59.04 29.62 59.81C34.59 60.58 37.39 58.44 37.39 58.44L37.4 58.3C32.66 56.93 30.86 52.87 31.78 47.35L36.11 21.48Z" fill="black"/>
</svg>
