<svg viewBox="0 0 24 24" fill="#24394A" xmlns="http://www.w3.org/2000/svg">
<path d="M21.45 6.11C21.284 6.02577 21.0977 5.98956 20.9122 6.00546C20.7267 6.02137 20.5493 6.08874 20.4 6.2L18.8 7.4C18.7257 7.45572 18.6374 7.48965 18.5449 7.49798C18.4524 7.50632 18.3594 7.48874 18.2764 7.44722C18.1933 7.40569 18.1235 7.34186 18.0747 7.26287C18.0259 7.18388 18 7.09286 18 7C18 6.46957 17.7893 5.96086 17.4142 5.58579C17.0391 5.21072 16.5304 5 16 5H9.5C9.36739 5 9.24021 5.05268 9.14645 5.14645C9.05268 5.24022 9 5.3674 9 5.5V6.5C9 6.63261 9.05268 6.75979 9.14645 6.85356C9.24021 6.94733 9.36739 7 9.5 7H16V14C16 14.1552 16.0361 14.3084 16.1056 14.4472C16.175 14.5861 16.2758 14.7069 16.4 14.8L20.4 17.8C20.5731 17.9298 20.7836 18 21 18C21.157 18.0028 21.312 17.9649 21.45 17.89C21.6149 17.8069 21.7536 17.6798 21.8507 17.5227C21.9478 17.3656 21.9994 17.1847 22 17V7C21.9994 6.81534 21.9478 6.63443 21.8507 6.47734C21.7536 6.32025 21.6149 6.1931 21.45 6.11ZM19.2 14.4L18.34 13.75C18.2358 13.6718 18.1509 13.5708 18.092 13.4546C18.033 13.3384 18.0015 13.2103 18 13.08V10.92C18.0015 10.7897 18.033 10.6616 18.092 10.5454C18.1509 10.4292 18.2358 10.3282 18.34 10.25L19.2 9.6C19.2743 9.54429 19.3626 9.51036 19.4551 9.50203C19.5476 9.49369 19.6406 9.51126 19.7236 9.55279C19.8067 9.59432 19.8765 9.65815 19.9253 9.73714C19.9741 9.81613 20 9.90715 20 10V14C20 14.0929 19.9741 14.1839 19.9253 14.2629C19.8765 14.3419 19.8067 14.4057 19.7236 14.4472C19.6406 14.4887 19.5476 14.5063 19.4551 14.498C19.3626 14.4896 19.2743 14.4557 19.2 14.4Z" />
<path d="M2.65 5.06L2.89 5.3C3.05282 5.45532 3.14741 5.66886 3.15303 5.8938C3.15865 6.11875 3.07485 6.33675 2.92 6.5C2.3367 7.20374 2.01202 8.08603 2 9V15C2 16.0609 2.42143 17.0783 3.17157 17.8284C3.92172 18.5786 4.93913 19 6 19H16.24C16.35 19.0005 16.4588 19.0229 16.5601 19.0658C16.6614 19.1087 16.7531 19.1713 16.83 19.25L17.94 20.35C17.9865 20.3969 18.0418 20.4341 18.1027 20.4595C18.1636 20.4848 18.229 20.4979 18.295 20.4979C18.361 20.4979 18.4264 20.4848 18.4873 20.4595C18.5482 20.4341 18.6035 20.3969 18.65 20.35L19.35 19.65C19.3969 19.6035 19.4341 19.5482 19.4594 19.4873C19.4848 19.4264 19.4979 19.361 19.4979 19.295C19.4979 19.229 19.4848 19.1636 19.4594 19.1027C19.4341 19.0418 19.3969 18.9865 19.35 18.94L4.06 3.65C4.01352 3.60314 3.95822 3.56594 3.89729 3.54056C3.83636 3.51517 3.77101 3.50211 3.705 3.50211C3.63899 3.50211 3.57364 3.51517 3.51271 3.54056C3.45178 3.56594 3.39648 3.60314 3.35 3.65L2.65 4.35C2.60314 4.39649 2.56594 4.45179 2.54055 4.51272C2.51517 4.57365 2.5021 4.639 2.5021 4.705C2.5021 4.77101 2.51517 4.83636 2.54055 4.89729C2.56594 4.95822 2.60314 5.01352 2.65 5.06ZM6 17C5.46957 17 4.96086 16.7893 4.58579 16.4142C4.21071 16.0391 4 15.5304 4 15V9C4.0065 8.50646 4.19527 8.03275 4.53 7.67C4.57664 7.62161 4.63256 7.58312 4.69442 7.55683C4.75627 7.53054 4.82279 7.51699 4.89 7.51699C4.95721 7.51699 5.02373 7.53054 5.08558 7.55683C5.14744 7.58312 5.20336 7.62161 5.25 7.67L13.73 16.16C13.7985 16.2299 13.845 16.3183 13.8637 16.4144C13.8825 16.5105 13.8726 16.6099 13.8353 16.7004C13.7981 16.7909 13.735 16.8685 13.6541 16.9235C13.5732 16.9786 13.4779 17.0086 13.38 17.01L6 17Z" />
</svg>
