<svg viewBox="0 0 24 24" fill="#24394A" xmlns="http://www.w3.org/2000/svg">
<path d="M14.5038 8.14384L12.3838 10.2638C12.3389 10.3117 12.2847 10.3498 12.2245 10.3759C12.1643 10.4019 12.0994 10.4154 12.0338 10.4154C11.9682 10.4154 11.9033 10.4019 11.8431 10.3759C11.7829 10.3498 11.7287 10.3117 11.6838 10.2638L9.56384 8.14384C9.46869 8.05159 9.34136 8 9.20884 8C9.07631 8 8.94899 8.05159 8.85384 8.14384L8.14384 8.85384C8.05159 8.94899 8 9.07631 8 9.20884C8 9.34136 8.05159 9.46869 8.14384 9.56384L10.2638 11.6838C10.3117 11.7287 10.3498 11.7829 10.3759 11.8431C10.4019 11.9033 10.4154 11.9682 10.4154 12.0338C10.4154 12.0994 10.4019 12.1643 10.3759 12.2245C10.3498 12.2847 10.3117 12.3389 10.2638 12.3838L8.14384 14.5038C8.05159 14.599 8 14.7263 8 14.8588C8 14.9914 8.05159 15.1187 8.14384 15.2138L8.85384 15.9238C8.94899 16.0161 9.07631 16.0677 9.20884 16.0677C9.34136 16.0677 9.46869 16.0161 9.56384 15.9238L11.6838 13.8038C11.7287 13.756 11.7829 13.7179 11.8431 13.6918C11.9033 13.6658 11.9682 13.6523 12.0338 13.6523C12.0994 13.6523 12.1643 13.6658 12.2245 13.6918C12.2847 13.7179 12.3389 13.756 12.3838 13.8038L14.5038 15.9238C14.599 16.0161 14.7263 16.0677 14.8588 16.0677C14.9914 16.0677 15.1187 16.0161 15.2138 15.9238L15.9238 15.2138C16.0161 15.1187 16.0677 14.9914 16.0677 14.8588C16.0677 14.7263 16.0161 14.599 15.9238 14.5038L13.8038 12.3838C13.756 12.3389 13.7179 12.2847 13.6918 12.2245C13.6658 12.1643 13.6523 12.0994 13.6523 12.0338C13.6523 11.9682 13.6658 11.9033 13.6918 11.8431C13.7179 11.7829 13.756 11.7287 13.8038 11.6838L15.9238 9.56384C16.0161 9.46869 16.0677 9.34136 16.0677 9.20884C16.0677 9.07631 16.0161 8.94899 15.9238 8.85384L15.2138 8.14384C15.1187 8.05159 14.9914 8 14.8588 8C14.7263 8 14.599 8.05159 14.5038 8.14384Z" />
</svg>
