<svg width="24" height="24" viewBox="0 0 24 24" fill="none" xmlns="http://www.w3.org/2000/svg">
<path d="M13.59 3H5.5C5.22 3 5 3.22 5 3.5V17C5 19.21 6.79 21 9 21H15C17.21 21 19 19.21 19 17V8.41C19 7.88 18.79 7.37 18.41 7L15 3.59C14.62 3.21 14.12 3 13.59 3ZM15 6.41L15.59 7H15V6.41ZM15 19H9C7.9 19 7 18.1 7 17V5H12.5C12.78 5 13 5.22 13 5.5V8C13 8.55 13.45 9 14 9H16.5C16.78 9 17 9.22 17 9.5V17C17 18.1 16.1 19 15 19Z" fill="#24394A"/>
<path d="M14.5 11H9.5C9.22386 11 9 11.2239 9 11.5V12.5C9 12.7761 9.22386 13 9.5 13H14.5C14.7761 13 15 12.7761 15 12.5V11.5C15 11.2239 14.7761 11 14.5 11Z" fill="#24394A"/>
<path d="M10.5 7H9.5C9.22386 7 9 7.22386 9 7.5V8.5C9 8.77614 9.22386 9 9.5 9H10.5C10.7761 9 11 8.77614 11 8.5V7.5C11 7.22386 10.7761 7 10.5 7Z" fill="#24394A"/>
<path d="M14.5 15H9.5C9.22386 15 9 15.2239 9 15.5V16.5C9 16.7761 9.22386 17 9.5 17H14.5C14.7761 17 15 16.7761 15 16.5V15.5C15 15.2239 14.7761 15 14.5 15Z" fill="#24394A"/>
</svg>
