<svg width="24" height="24" viewBox="0 0 24 24" fill="none" xmlns="http://www.w3.org/2000/svg">
<path d="M22 13.0024C22 7.49244 17.51 3.00244 12 3.00244C6.49 3.00244 2 7.49244 2 13.0024C2 14.2124 2.21 15.3924 2.63 16.5124L2.81 16.9824C2.91 17.2424 3.2 17.3724 3.45 17.2724L9.07 15.1624C9.33 15.0624 9.46 14.7724 9.36 14.5224L9.18 14.0524C9.05 13.7124 8.99 13.3624 8.99 13.0024C8.99 11.3524 10.34 10.0024 11.99 10.0024C13.64 10.0024 14.99 11.3524 14.99 13.0024C14.99 13.3624 14.93 13.7224 14.8 14.0524L14.62 14.5224C14.52 14.7824 14.65 15.0724 14.91 15.1624L20.53 17.2724C20.79 17.3724 21.08 17.2424 21.17 16.9824L21.35 16.5124C21.77 15.3924 21.98 14.2024 21.98 13.0024H22ZM16.92 12.2224L19.77 11.1524C19.91 11.7424 19.99 12.3624 19.99 13.0024C19.99 13.6424 19.91 14.2524 19.77 14.8524L16.92 13.7824C16.96 13.5224 16.99 13.2624 16.99 13.0024C16.99 12.7424 16.95 12.4824 16.91 12.2224H16.92ZM7.07 13.7824L4.22 14.8524C4.08 14.2524 4 13.6324 4 13.0024C4 12.3724 4.08 11.7524 4.22 11.1524L7.07 12.2224C7.03 12.4724 6.99 12.7324 6.99 13.0024C6.99 13.2724 7.02 13.5224 7.06 13.7824H7.07ZM7.78 10.3524L4.93 9.28244C5.68 7.85244 6.86 6.68244 8.28 5.93244L9.35 8.78244C8.71 9.18244 8.18 9.72244 7.78 10.3524ZM11.23 8.08244L10.16 5.23244C10.75 5.09244 11.37 5.01244 12.01 5.01244C12.65 5.01244 13.26 5.09244 13.86 5.23244L12.79 8.08244C12.54 8.04244 12.28 8.00244 12.01 8.00244C11.74 8.00244 11.49 8.04244 11.23 8.08244ZM14.66 8.78244L15.73 5.93244C17.16 6.68244 18.33 7.86244 19.08 9.28244L16.23 10.3524C15.83 9.71244 15.29 9.18244 14.66 8.78244Z" fill="#24394A"/>
<path d="M13 13.5024C13 13.2224 12.78 13.0024 12.5 13.0024H11.5C11.22 13.0024 11 13.2224 11 13.5024V16.7824C11 17.0524 10.9 17.3224 10.7 17.4924C10.16 17.9524 9.87 18.7024 10.06 19.5024C10.24 20.2224 10.84 20.8024 11.57 20.9524C12.86 21.2224 14 20.2424 14 19.0024C14 18.4124 13.74 17.8824 13.33 17.5224C13.12 17.3324 13 17.0724 13 16.7924V13.5024Z" fill="#24394A"/>
</svg>
