<svg viewBox="0 0 24 24" fill="#24394A" xmlns="http://www.w3.org/2000/svg">
<path d="M15 12C15.5933 12 16.1734 11.8241 16.6667 11.4944C17.1601 11.1648 17.5446 10.6962 17.7716 10.1481C17.9987 9.59987 18.0581 8.99667 17.9424 8.41473C17.8266 7.83279 17.5409 7.29824 17.1213 6.87868C16.7018 6.45912 16.1672 6.1734 15.5853 6.05764C15.0033 5.94189 14.4001 6.0013 13.8519 6.22836C13.3038 6.45542 12.8352 6.83994 12.5056 7.33329C12.1759 7.82664 12 8.40666 12 9C12 9.79565 12.3161 10.5587 12.8787 11.1213C13.4413 11.6839 14.2044 12 15 12ZM15 8C15.1978 8 15.3911 8.05865 15.5556 8.16853C15.72 8.27841 15.8482 8.43459 15.9239 8.61732C15.9996 8.80004 16.0194 9.00111 15.9808 9.19509C15.9422 9.38907 15.847 9.56725 15.7071 9.70711C15.5673 9.84696 15.3891 9.9422 15.1951 9.98079C15.0011 10.0194 14.8 9.99957 14.6173 9.92388C14.4346 9.84819 14.2784 9.72002 14.1685 9.55557C14.0586 9.39112 14 9.19778 14 9C14 8.73478 14.1054 8.48043 14.2929 8.29289C14.4804 8.10536 14.7348 8 15 8Z" />
<path d="M3 3.5V17C3 18.0609 3.42143 19.0783 4.17157 19.8284C4.92172 20.5786 5.93913 21 7 21H17C18.0609 21 19.0783 20.5786 19.8284 19.8284C20.5786 19.0783 21 18.0609 21 17V3.5C21 3.36739 20.9473 3.24021 20.8536 3.14645C20.7598 3.05268 20.6326 3 20.5 3H3.5C3.36739 3 3.24021 3.05268 3.14645 3.14645C3.05268 3.24021 3 3.36739 3 3.5ZM19 5V13.76C18.9972 13.8271 18.9752 13.8919 18.9366 13.9469C18.898 14.0018 18.8444 14.0444 18.7822 14.0697C18.72 14.095 18.6518 14.1019 18.5858 14.0895C18.5199 14.0772 18.4588 14.0461 18.41 14C18.0353 13.6275 17.5284 13.4184 17 13.4184C16.4716 13.4184 15.9647 13.6275 15.59 14L14 15.59L8.41 10C8.03527 9.6275 7.52837 9.41842 7 9.41842C6.47163 9.41842 5.96473 9.6275 5.59 10C5.54119 10.0461 5.48014 10.0772 5.41415 10.0895C5.34816 10.1019 5.28001 10.095 5.21782 10.0697C5.15563 10.0444 5.10203 10.0018 5.06341 9.94687C5.02479 9.89195 5.00278 9.82708 5 9.76V5H19ZM17 19H7C6.46957 19 5.96086 18.7893 5.58579 18.4142C5.21071 18.0391 5 17.5304 5 17V13.83C4.99924 13.6984 5.02446 13.5679 5.07423 13.4461C5.12399 13.3243 5.19732 13.2134 5.29 13.12L7 11.41L12.59 17C12.9647 17.3725 13.4716 17.5816 14 17.5816C14.5284 17.5816 15.0353 17.3725 15.41 17L17 15.41L18.49 16.91C18.6529 17.0709 18.7557 17.2827 18.7811 17.5102C18.8066 17.7377 18.7533 17.9671 18.63 18.16C18.445 18.4199 18.2005 18.6317 17.9169 18.7778C17.6334 18.9239 17.319 19.0001 17 19Z" />
</svg>
