<svg width="24" height="24" viewBox="0 0 24 24" fill="none" xmlns="http://www.w3.org/2000/svg">
<path d="M20.85 13.57C20.1362 12.8829 19.1929 12.4851 18.2027 12.4537C17.2125 12.4223 16.2458 12.7595 15.49 13.4C15.4114 13.4684 15.3142 13.5117 15.2108 13.5241C15.1073 13.5366 15.0026 13.5178 14.91 13.47L13.5 12.65C13.3489 12.5627 13.2232 12.4374 13.1355 12.2866C13.0478 12.1357 13.001 11.9645 13 11.79V10.16C13.0057 10.0559 13.0419 9.95581 13.1041 9.87221C13.1664 9.78862 13.2519 9.72523 13.35 9.68998C14.2368 9.37204 14.9829 8.7513 15.4569 7.93716C15.9308 7.12301 16.1022 6.1677 15.9409 5.23956C15.7795 4.31142 15.2958 3.47001 14.5748 2.8636C13.8539 2.25718 12.9421 1.92468 12 1.92468C11.0579 1.92468 10.1461 2.25718 9.42516 2.8636C8.70423 3.47001 8.22046 4.31142 8.05911 5.23956C7.89775 6.1677 8.06916 7.12301 8.54312 7.93716C9.01709 8.7513 9.76321 9.37204 10.65 9.68998C10.7496 9.72284 10.8366 9.78559 10.8992 9.8697C10.9619 9.9538 10.9971 10.0552 11 10.16V11.79C10.9989 11.9645 10.9522 12.1357 10.8645 12.2866C10.7768 12.4374 10.6511 12.5627 10.5 12.65L9.08999 13.46C9.00117 13.5126 8.89774 13.5352 8.79506 13.5244C8.69238 13.5136 8.59592 13.47 8.52 13.4C7.89039 12.8704 7.1128 12.5478 6.2932 12.4763C5.47361 12.4047 4.65187 12.5876 3.93999 13C3.02487 13.5224 2.35287 14.3849 2.06999 15.4C1.93392 15.9075 1.89918 16.4369 1.96777 16.9579C2.03636 17.4789 2.20694 17.9813 2.46975 18.4363C2.73256 18.8914 3.08246 19.2902 3.49945 19.61C3.91644 19.9297 4.39235 20.1642 4.89999 20.3C5.22622 20.388 5.56214 20.435 5.89999 20.44C6.78455 20.4371 7.64321 20.1411 8.34164 19.5983C9.04006 19.0555 9.53886 18.2965 9.75999 17.44C9.91475 16.8725 9.93529 16.2768 9.81999 15.7C9.79559 15.5986 9.80483 15.4921 9.84632 15.3965C9.88782 15.3009 9.95931 15.2214 10.05 15.17L11.33 14.43C11.4929 14.3144 11.6845 14.2458 11.8838 14.2317C12.0831 14.2175 12.2824 14.2585 12.46 14.35L13.87 15.17C13.9595 15.2226 14.0301 15.3022 14.0714 15.3975C14.1128 15.4927 14.1228 15.5987 14.1 15.7C13.9336 16.7068 14.1583 17.739 14.7281 18.5856C15.2979 19.4321 16.1696 20.0289 17.165 20.2538C18.1603 20.4787 19.204 20.3146 20.0823 19.7953C20.9607 19.2759 21.6074 18.4405 21.89 17.46C22.0761 16.7775 22.0779 16.0579 21.8952 15.3746C21.7125 14.6912 21.3518 14.0685 20.85 13.57ZM9.99999 5.93998C9.99999 5.54442 10.1173 5.15774 10.3371 4.82884C10.5568 4.49995 10.8692 4.2436 11.2346 4.09223C11.6001 3.94085 12.0022 3.90124 12.3902 3.97841C12.7781 4.05558 13.1345 4.24607 13.4142 4.52577C13.6939 4.80548 13.8844 5.16184 13.9616 5.5498C14.0387 5.93777 13.9991 6.3399 13.8478 6.70535C13.6964 7.0708 13.44 7.38316 13.1111 7.60292C12.7822 7.82269 12.3956 7.93998 12 7.93998C11.4696 7.93998 10.9609 7.72927 10.5858 7.3542C10.2107 6.97913 9.99999 6.47042 9.99999 5.93998ZM7.86999 17C7.80172 17.2554 7.68349 17.4947 7.52214 17.7041C7.36079 17.9135 7.15953 18.0888 6.92999 18.22C6.47274 18.4832 5.93001 18.5551 5.41999 18.42C5.16461 18.3517 4.92529 18.2335 4.71588 18.0721C4.50648 17.9108 4.33113 17.7095 4.19999 17.48C4.06932 17.2521 3.98481 17.0008 3.95127 16.7403C3.91774 16.4798 3.93585 16.2152 4.00457 15.9617C4.07328 15.7082 4.19126 15.4707 4.35176 15.2628C4.51226 15.0549 4.71215 14.8806 4.93999 14.75C5.2448 14.5772 5.58964 14.4876 5.93999 14.49C6.29241 14.4886 6.63895 14.5803 6.9445 14.7559C7.25006 14.9315 7.50379 15.1848 7.67999 15.49C7.93984 15.9486 8.00813 16.4913 7.86999 17ZM20 17C19.879 17.4196 19.624 17.7881 19.274 18.0492C18.9239 18.3103 18.498 18.4496 18.0613 18.4459C17.6246 18.4422 17.2011 18.2956 16.8555 18.0286C16.5099 17.7617 16.2612 17.3889 16.1474 16.9673C16.0336 16.5457 16.0609 16.0984 16.2251 15.6937C16.3894 15.2891 16.6815 14.9493 17.057 14.7263C17.4325 14.5034 17.8706 14.4094 18.3046 14.4588C18.7385 14.5082 19.1443 14.6983 19.46 15C19.724 15.2523 19.9139 15.5721 20.0091 15.9246C20.1043 16.2772 20.1012 16.6491 20 17Z" fill="#24394A"/>
</svg>
