<svg viewBox="0 0 24 24" fill="#24394A" xmlns="http://www.w3.org/2000/svg">
<path d="M20.5 3H3.5C3.36739 3 3.24021 3.05268 3.14645 3.14645C3.05268 3.24021 3 3.36739 3 3.5V6C3 6.46574 3.10844 6.92507 3.31672 7.34164C3.525 7.75821 3.82741 8.12056 4.2 8.4L10.2 12.9C10.7193 13.2895 11.3509 13.5 12 13.5C12.6491 13.5 13.2807 13.2895 13.8 12.9L19.8 8.4C20.1726 8.12056 20.475 7.75821 20.6833 7.34164C20.8916 6.92507 21 6.46574 21 6V3.5C21 3.36739 20.9473 3.24021 20.8536 3.14645C20.7598 3.05268 20.6326 3 20.5 3ZM19 6C19 6.15525 18.9639 6.30836 18.8944 6.44721C18.825 6.58607 18.7242 6.70685 18.6 6.8L12.6 11.3C12.4269 11.4298 12.2164 11.5 12 11.5C11.7836 11.5 11.5731 11.4298 11.4 11.3L5.4 6.8C5.2758 6.70685 5.175 6.58607 5.10557 6.44721C5.03614 6.30836 5 6.15525 5 6V5H19V6Z" />
<path d="M20.5 10H19.5C19.3674 10 19.2402 10.0527 19.1464 10.1464C19.0527 10.2402 19 10.3674 19 10.5V16C19 16.5304 18.7893 17.0391 18.4142 17.4142C18.0391 17.7893 17.5304 18 17 18H7C6.46957 18 5.96086 17.7893 5.58579 17.4142C5.21071 17.0391 5 16.5304 5 16V10.5C5 10.3674 4.94732 10.2402 4.85355 10.1464C4.75979 10.0527 4.63261 10 4.5 10H3.5C3.36739 10 3.24021 10.0527 3.14645 10.1464C3.05268 10.2402 3 10.3674 3 10.5V16C3 17.0609 3.42143 18.0783 4.17157 18.8284C4.92172 19.5786 5.93913 20 7 20H17C18.0609 20 19.0783 19.5786 19.8284 18.8284C20.5786 18.0783 21 17.0609 21 16V10.5C21 10.3674 20.9473 10.2402 20.8536 10.1464C20.7598 10.0527 20.6326 10 20.5 10Z" />
</svg>
