<svg viewBox="0 0 24 24" fill="#24394A" xmlns="http://www.w3.org/2000/svg">
<path d="M21.24 11L14.62 9.38001L13 2.76001C12.9458 2.54378 12.8209 2.35186 12.6452 2.21473C12.4694 2.07759 12.2529 2.00311 12.03 2.00311C11.8071 2.00311 11.5906 2.07759 11.4148 2.21473C11.2391 2.35186 11.1142 2.54378 11.06 2.76001L9.38001 9.38001L2.76001 11C2.54378 11.0542 2.35186 11.1791 2.21473 11.3548C2.07759 11.5306 2.00311 11.7471 2.00311 11.97C2.00311 12.1929 2.07759 12.4094 2.21473 12.5852C2.35186 12.7609 2.54378 12.8858 2.76001 12.94L9.38001 14.59L11 21.24C11.0542 21.4562 11.1791 21.6482 11.3548 21.7853C11.5306 21.9224 11.7471 21.9969 11.97 21.9969C12.1929 21.9969 12.4094 21.9224 12.5852 21.7853C12.7609 21.6482 12.8858 21.4562 12.94 21.24L14.59 14.62L21.24 13C21.4562 12.9458 21.6482 12.8209 21.7853 12.6452C21.9224 12.4694 21.9969 12.2529 21.9969 12.03C21.9969 11.8071 21.9224 11.5906 21.7853 11.4148C21.6482 11.2391 21.4562 11.1142 21.24 11.06V11ZM13.56 12.8C13.3834 12.8438 13.2222 12.9349 13.0935 13.0635C12.9649 13.1922 12.8738 13.3534 12.83 13.53L12 16.88L11.17 13.56C11.1262 13.3834 11.0351 13.2222 10.9065 13.0935C10.7779 12.9649 10.6166 12.8738 10.44 12.83L7.12001 12L10.44 11.17C10.6166 11.1262 10.7779 11.0351 10.9065 10.9065C11.0351 10.7779 11.1262 10.6166 11.17 10.44L12 7.12001L12.83 10.44C12.8738 10.6166 12.9649 10.7779 13.0935 10.9065C13.2222 11.0351 13.3834 11.1262 13.56 11.17L16.88 12L13.56 12.8Z" />
<path d="M20.17 17.54L17 16.38C16.9107 16.3478 16.8141 16.3417 16.7214 16.3623C16.6288 16.383 16.5439 16.4297 16.4768 16.4968C16.4097 16.5639 16.363 16.6488 16.3423 16.7414C16.3217 16.8341 16.3278 16.9307 16.36 17.02L17.52 20.17C17.5493 20.2482 17.5977 20.3178 17.6607 20.3724C17.7238 20.4271 17.7995 20.4651 17.8811 20.483C17.9626 20.5009 18.0473 20.4981 18.1274 20.4749C18.2076 20.4517 18.2807 20.4087 18.34 20.35L20.34 18.35C20.3967 18.2913 20.4382 18.2196 20.4608 18.1411C20.4834 18.0627 20.4865 17.9799 20.4697 17.8999C20.4529 17.82 20.4169 17.7455 20.3646 17.6827C20.3124 17.62 20.2456 17.571 20.17 17.54Z" />
<path d="M3.83001 6.46001L7.00001 7.62001C7.08606 7.6451 7.17727 7.64661 7.2641 7.62436C7.35093 7.60212 7.43018 7.55694 7.49356 7.49356C7.55694 7.43018 7.60212 7.35093 7.62436 7.2641C7.64661 7.17727 7.6451 7.08606 7.62001 7.00001L6.46001 3.83001C6.43074 3.75184 6.38237 3.68225 6.3193 3.62757C6.25624 3.57289 6.18049 3.53488 6.09897 3.51698C6.01744 3.49908 5.93273 3.50188 5.85257 3.52512C5.7724 3.54835 5.69933 3.59129 5.64001 3.65001L3.64001 5.65001C3.58377 5.7101 3.54323 5.78315 3.522 5.86267C3.50077 5.94218 3.49949 6.02571 3.51829 6.10584C3.53708 6.18597 3.57537 6.26022 3.62975 6.32201C3.68413 6.38379 3.75291 6.43119 3.83001 6.46001Z" />
<path d="M7.00001 16.38L3.83001 17.54C3.75184 17.5693 3.68225 17.6177 3.62757 17.6807C3.57289 17.7438 3.53488 17.8195 3.51698 17.9011C3.49908 17.9826 3.50188 18.0673 3.52512 18.1474C3.54835 18.2276 3.59129 18.3007 3.65001 18.36L5.65001 20.36C5.70933 20.4187 5.7824 20.4617 5.86257 20.4849C5.94273 20.5081 6.02744 20.5109 6.10896 20.493C6.19049 20.4751 6.26624 20.4371 6.3293 20.3824C6.39237 20.3278 6.44074 20.2582 6.47001 20.18L7.62001 17C7.6451 16.914 7.64661 16.8227 7.62436 16.7359C7.60212 16.6491 7.55694 16.5698 7.49356 16.5065C7.43018 16.4431 7.35093 16.3979 7.2641 16.3757C7.17727 16.3534 7.08606 16.3549 7.00001 16.38Z" />
<path d="M17 7.62001L20.15 6.46001C20.2282 6.43074 20.2978 6.38237 20.3524 6.3193C20.4071 6.25624 20.4451 6.18049 20.463 6.09897C20.4809 6.01744 20.4781 5.93273 20.4549 5.85257C20.4317 5.7724 20.3887 5.69933 20.33 5.64001L18.33 3.64001C18.2707 3.58129 18.1976 3.53835 18.1174 3.51512C18.0373 3.49188 17.9526 3.48908 17.871 3.50698C17.7895 3.52488 17.7138 3.5629 17.6507 3.61757C17.5877 3.67225 17.5393 3.74184 17.51 3.82001L16.38 7.00001C16.3549 7.08606 16.3534 7.17727 16.3757 7.2641C16.3979 7.35093 16.4431 7.43018 16.5065 7.49356C16.5698 7.55694 16.6491 7.60212 16.7359 7.62436C16.8227 7.64661 16.914 7.64511 17 7.62001Z" />
</svg>
