<svg viewBox="0 0 24 24" fill="#24394A" xmlns="http://www.w3.org/2000/svg">
<path d="M9.5 4.5H7.5C7.22386 4.5 7 4.72386 7 5V7C7 7.27614 7.22386 7.5 7.5 7.5H9.5C9.77614 7.5 10 7.27614 10 7V5C10 4.72386 9.77614 4.5 9.5 4.5Z" />
<path d="M9.5 10.5H7.5C7.22386 10.5 7 10.7239 7 11V13C7 13.2761 7.22386 13.5 7.5 13.5H9.5C9.77614 13.5 10 13.2761 10 13V11C10 10.7239 9.77614 10.5 9.5 10.5Z" />
<path d="M9.5 16.5H7.5C7.22386 16.5 7 16.7239 7 17V19C7 19.2761 7.22386 19.5 7.5 19.5H9.5C9.77614 19.5 10 19.2761 10 19V17C10 16.7239 9.77614 16.5 9.5 16.5Z" />
<path d="M16.5 4.5H14.5C14.2239 4.5 14 4.72386 14 5V7C14 7.27614 14.2239 7.5 14.5 7.5H16.5C16.7761 7.5 17 7.27614 17 7V5C17 4.72386 16.7761 4.5 16.5 4.5Z" />
<path d="M16.5 10.5H14.5C14.2239 10.5 14 10.7239 14 11V13C14 13.2761 14.2239 13.5 14.5 13.5H16.5C16.7761 13.5 17 13.2761 17 13V11C17 10.7239 16.7761 10.5 16.5 10.5Z" />
<path d="M16.5 16.5H14.5C14.2239 16.5 14 16.7239 14 17V19C14 19.2761 14.2239 19.5 14.5 19.5H16.5C16.7761 19.5 17 19.2761 17 19V17C17 16.7239 16.7761 16.5 16.5 16.5Z" />
</svg>
