<svg viewBox="0 0 24 24" fill="#24394A" xmlns="http://www.w3.org/2000/svg">
<path fill-rule="evenodd" clip-rule="evenodd" d="M6.75 6.75C9.08999 4.41 12.9 4.41 15.24 6.75C16.37 7.89 17 9.39999 17 11C17 12.6 16.37 14.11 15.24 15.24C14.11 16.38 12.61 17 11 17C9.39 17 7.89 16.37 6.75 15.24C4.41 12.9 4.41 9.08999 6.75 6.75ZM8.17 8.17C6.60999 9.72999 6.60999 12.27 8.17 13.83C9.67999 15.34 12.32 15.34 13.83 13.83C14.58 13.07 15 12.07 15 11C15 9.93 14.58 8.92 13.83 8.17C13.05 7.39 12.03 7 11 7C9.97 7 8.95 7.39 8.17 8.17Z" />
<path d="M17.33 15.91L19.83 18.41C20.02 18.61 20.02 18.92 19.82 19.12L19.11 19.83C19.02 19.93 18.88 19.98 18.76 19.98C18.64 19.98 18.51 19.93 18.41 19.83L15.91 17.33C15.71 17.13 15.71 16.82 15.91 16.62L16.62 15.91C16.82 15.71 17.13 15.71 17.33 15.91Z" />
</svg>
