<svg width="24" height="24" viewBox="0 0 24 24" fill="none" xmlns="http://www.w3.org/2000/svg">
<path d="M15.99 7.87L15.7 7.73C14.99 7.37 14.22 7.15 13.44 7.06C13.19 7.03 12.99 6.83 12.99 6.57V5.5C12.99 5.22 12.77 5 12.49 5H11.49C11.21 5 10.99 5.22 10.99 5.5V6.54C10.99 6.78 10.82 7 10.59 7.03C8.93996 7.25 7.70996 8.83 8.04996 10.6C8.32996 12.02 9.65996 13 11.11 13H12.99C13.54 13 13.99 13.45 13.99 14C13.99 14.55 13.54 15 12.99 15H11.4C10.63 15 9.85996 14.82 9.16996 14.47L8.87996 14.33C8.62996 14.21 8.32996 14.31 8.20996 14.55L7.75996 15.44C7.63996 15.69 7.73996 15.99 7.97996 16.11L8.26996 16.25C8.97996 16.61 9.74996 16.83 10.53 16.92C10.78 16.95 10.98 17.15 10.98 17.41V18.48C10.98 18.76 11.2 18.98 11.48 18.98H12.48C12.76 18.98 12.98 18.76 12.98 18.48V17.44C12.98 17.2 13.15 16.98 13.38 16.95C15.03 16.73 16.26 15.15 15.92 13.38C15.64 11.96 14.31 10.98 12.86 10.98H10.98C10.43 10.98 9.97996 10.53 9.97996 9.98C9.97996 9.43 10.43 8.98 10.98 8.98H12.57C13.34 8.98 14.11 9.16 14.8 9.51L15.09 9.65C15.34 9.77 15.64 9.67 15.76 9.43L16.21 8.54C16.33 8.29 16.23 7.99 15.99 7.87Z" fill="#24394A"/>
<path d="M14.42 2.34C7.12996 0.389996 0.389958 7.12 2.33996 14.42C3.26996 17.91 6.06996 20.71 9.54996 21.64C16.85 23.59 23.58 16.86 21.63 9.56C20.7 6.07 17.9 3.27 14.42 2.34ZM15.17 19.24C8.48996 22.24 1.73996 15.48 4.72996 8.81C5.53996 7.01 7.00996 5.54 8.80996 4.73C15.48 1.74 22.24 8.49 19.25 15.16C18.44 16.96 16.97 18.43 15.17 19.24Z" fill="#24394A"/>
</svg>
