<svg width="24" height="24" viewBox="0 0 24 24" fill="none" xmlns="http://www.w3.org/2000/svg">
<path d="M20.0018 17.9773C21.6318 15.8073 22.4018 12.9573 21.7918 9.93732C21.0118 6.08732 17.9218 2.99732 14.0718 2.21732C11.0418 1.60732 8.20185 2.37732 6.03185 4.00732C5.83185 4.15732 5.55185 4.14732 5.38185 3.96732L4.06185 2.64732C3.86185 2.44732 3.55185 2.44732 3.35185 2.64732L2.64185 3.35732C2.44185 3.55732 2.44185 3.86732 2.64185 4.06732L19.9418 21.3473C20.1418 21.5473 20.4518 21.5473 20.6518 21.3473L21.3618 20.6373C21.5618 20.4373 21.5618 20.1273 21.3618 19.9273L20.0518 18.6173C19.8718 18.4373 19.8618 18.1673 20.0118 17.9673L20.0018 17.9773ZM13.2718 4.09732C16.6418 4.62732 19.3718 7.35732 19.9018 10.7273C20.2318 12.8473 19.7218 14.8273 18.6518 16.4173C18.4818 16.6773 18.1118 16.6973 17.8918 16.4773L16.1218 14.7073C16.0118 14.5973 15.9618 14.4473 15.9818 14.2873C16.0218 13.9273 15.9918 13.5473 15.8818 13.1473C15.5118 11.8373 14.2418 10.9973 12.8818 10.9973H12.6218C12.4918 10.9973 12.3618 10.9473 12.2718 10.8473L10.9218 9.50732C10.7318 9.31732 10.8618 8.99732 11.1318 8.99732H12.5918C13.3618 8.99732 14.1219 9.17732 14.8118 9.52732L15.1018 9.66732C15.3518 9.78732 15.6518 9.68732 15.7718 9.44732L16.2218 8.55732C16.3418 8.30732 16.2418 8.00732 16.0018 7.88732L15.7018 7.73732C14.9718 7.37732 14.1718 7.24732 13.3818 7.05732C13.1618 7.00732 12.9918 6.81732 12.9918 6.57732V5.50732C12.9918 5.22732 12.7718 5.00732 12.4918 5.00732H11.4918C11.2118 5.00732 10.9918 5.22732 10.9918 5.50732V6.50732C10.9918 6.75732 10.8218 6.99732 10.5618 7.03732C10.1418 7.09732 9.76185 7.24732 9.41185 7.45732C9.21185 7.57732 8.96185 7.57732 8.80185 7.40732L7.50185 6.10732C7.28185 5.88732 7.30185 5.51732 7.56185 5.34732C9.15185 4.28732 11.1318 3.76732 13.2518 4.09732H13.2718Z" fill="#24394A"/>
<path d="M11.6318 19.9873C7.58185 19.7973 4.20185 16.4273 4.01185 12.3673C3.96185 11.2273 4.15185 10.1373 4.53185 9.13732C4.60185 8.95732 4.56185 8.74732 4.42185 8.60732L3.65185 7.83732C3.41185 7.59732 2.99185 7.65732 2.85185 7.97732C2.09185 9.70732 1.79185 11.6773 2.15185 13.7473C2.86185 17.8373 6.15185 21.1373 10.2418 21.8373C12.3118 22.1973 14.2818 21.9073 16.0118 21.1473C16.3218 21.0073 16.3918 20.5873 16.1518 20.3473L15.3818 19.5773C15.2418 19.4373 15.0418 19.3973 14.8518 19.4673C13.8518 19.8473 12.7618 20.0373 11.6218 19.9873H11.6318Z" fill="#24394A"/>
<path d="M11.5018 18.9973H12.5018C12.7818 18.9973 13.0018 18.7773 13.0018 18.4973V17.6073C13.0018 17.3473 12.8918 17.0873 12.7118 16.8973L10.9718 15.1573C10.8318 15.0173 10.6418 14.9273 10.4518 14.8873C10.0118 14.7973 9.59185 14.6573 9.19185 14.4573L8.90185 14.3173C8.65185 14.1973 8.35185 14.2973 8.23185 14.5373L7.78185 15.4273C7.66185 15.6773 7.76185 15.9773 8.00185 16.0973L8.30185 16.2473C9.03185 16.6073 9.83185 16.7373 10.6218 16.9273C10.8418 16.9773 11.0118 17.1673 11.0118 17.4073V18.4773C11.0118 18.7573 11.2318 18.9773 11.5118 18.9773L11.5018 18.9973Z" fill="#24394A"/>
</svg>
