<svg viewBox="0 0 24 24" fill="#24394A" xmlns="http://www.w3.org/2000/svg">
<path d="M19.5 5H8.5C8.22386 5 8 5.22386 8 5.5V6.5C8 6.77614 8.22386 7 8.5 7H19.5C19.7761 7 20 6.77614 20 6.5V5.5C20 5.22386 19.7761 5 19.5 5Z" />
<path d="M19.5 9H8.5C8.22386 9 8 9.22386 8 9.5V10.5C8 10.7761 8.22386 11 8.5 11H19.5C19.7761 11 20 10.7761 20 10.5V9.5C20 9.22386 19.7761 9 19.5 9Z" />
<path d="M19.5 13H8.5C8.22386 13 8 13.2239 8 13.5V14.5C8 14.7761 8.22386 15 8.5 15H19.5C19.7761 15 20 14.7761 20 14.5V13.5C20 13.2239 19.7761 13 19.5 13Z" />
<path d="M19.5 17H8.5C8.22386 17 8 17.2239 8 17.5V18.5C8 18.7761 8.22386 19 8.5 19H19.5C19.7761 19 20 18.7761 20 18.5V17.5C20 17.2239 19.7761 17 19.5 17Z" />
<path d="M5.5 5H4.5C4.22386 5 4 5.22386 4 5.5V6.5C4 6.77614 4.22386 7 4.5 7H5.5C5.77614 7 6 6.77614 6 6.5V5.5C6 5.22386 5.77614 5 5.5 5Z" />
<path d="M5.5 9H4.5C4.22386 9 4 9.22386 4 9.5V10.5C4 10.7761 4.22386 11 4.5 11H5.5C5.77614 11 6 10.7761 6 10.5V9.5C6 9.22386 5.77614 9 5.5 9Z" />
<path d="M5.5 13H4.5C4.22386 13 4 13.2239 4 13.5V14.5C4 14.7761 4.22386 15 4.5 15H5.5C5.77614 15 6 14.7761 6 14.5V13.5C6 13.2239 5.77614 13 5.5 13Z" />
<path d="M5.5 17H4.5C4.22386 17 4 17.2239 4 17.5V18.5C4 18.7761 4.22386 19 4.5 19H5.5C5.77614 19 6 18.7761 6 18.5V17.5C6 17.2239 5.77614 17 5.5 17Z" />
</svg>
