<svg width="24" height="24" viewBox="0 0 24 24" fill="none" xmlns="http://www.w3.org/2000/svg">
<path d="M15 3H9C7.4087 3 5.88258 3.63214 4.75736 4.75736C3.63214 5.88258 3 7.4087 3 9V15C3 16.5913 3.63214 18.1174 4.75736 19.2426C5.88258 20.3679 7.4087 21 9 21H15C16.5913 21 18.1174 20.3679 19.2426 19.2426C20.3679 18.1174 21 16.5913 21 15V9C21 7.4087 20.3679 5.88258 19.2426 4.75736C18.1174 3.63214 16.5913 3 15 3ZM15.51 12.86L10.51 15.86C10.3556 15.9516 10.1795 15.9999 10 16C9.82821 15.9995 9.65946 15.9547 9.51 15.87C9.35553 15.7832 9.22691 15.6569 9.1373 15.504C9.04769 15.3511 9.00031 15.1772 9 15V9C9.00003 8.8235 9.04678 8.65014 9.13549 8.49755C9.22421 8.34497 9.35173 8.21858 9.5051 8.13122C9.65847 8.04387 9.83224 7.99867 10.0087 8.00021C10.1852 8.00175 10.3582 8.04998 10.51 8.14L15.51 11.14C15.6592 11.2285 15.7828 11.3544 15.8687 11.5052C15.9546 11.656 15.9997 11.8265 15.9997 12C15.9997 12.1735 15.9546 12.344 15.8687 12.4948C15.7828 12.6456 15.6592 12.7715 15.51 12.86Z" fill="#24394A"/>
</svg>
