<svg width="24" height="24" viewBox="0 0 24 24" fill="none" xmlns="http://www.w3.org/2000/svg">
<path d="M10.91 10.86C11.5967 11.0576 12.3238 11.0676 13.0157 10.8889C13.7076 10.7103 14.3391 10.3496 14.8443 9.84434C15.3496 9.33905 15.7103 8.70763 15.889 8.01573C16.0676 7.32383 16.0576 6.59672 15.86 5.90999C15.6746 5.24949 15.3224 4.64779 14.8373 4.16269C14.3522 3.67759 13.7505 3.32541 13.09 3.13999C12.4033 2.94242 11.6762 2.93243 10.9843 3.11104C10.2924 3.28965 9.66094 3.65036 9.15565 4.15564C8.65036 4.66093 8.28966 5.29235 8.11105 5.98425C7.93244 6.67615 7.94243 7.40326 8.14 8.08999C8.32542 8.75049 8.6776 9.3522 9.1627 9.83729C9.6478 10.3224 10.2495 10.6746 10.91 10.86ZM12 4.99999C12.3956 4.99999 12.7822 5.11729 13.1111 5.33705C13.44 5.55682 13.6964 5.86917 13.8478 6.23462C13.9991 6.60008 14.0387 7.00221 13.9616 7.39017C13.8844 7.77813 13.6939 8.1345 13.4142 8.4142C13.1345 8.69391 12.7781 8.88439 12.3902 8.96156C12.0022 9.03873 11.6001 8.99913 11.2346 8.84775C10.8692 8.69638 10.5568 8.44003 10.3371 8.11113C10.1173 7.78223 10 7.39555 10 6.99999C10 6.46956 10.2107 5.96085 10.5858 5.58578C10.9609 5.21071 11.4696 4.99999 12 4.99999Z" fill="#24394A"/>
<path d="M18.5 5.99999C18.3674 5.99999 18.2402 6.05267 18.1464 6.14644C18.0527 6.24021 18 6.36738 18 6.49999V7.49999C18 7.6326 18.0527 7.75978 18.1464 7.85354C18.2402 7.94731 18.3674 7.99999 18.5 7.99999H19V15.56C18.9987 15.6604 18.9673 15.7581 18.9098 15.8403C18.8522 15.9226 18.7712 15.9856 18.6774 16.0212C18.5835 16.0568 18.4811 16.0634 18.3835 16.04C18.2858 16.0165 18.1975 15.9643 18.13 15.89C17.3841 14.9867 16.4478 14.2595 15.3881 13.7603C14.3284 13.261 13.1714 13.0022 12 13.0022C10.8286 13.0022 9.67163 13.261 8.61192 13.7603C7.5522 14.2595 6.6159 14.9867 5.87 15.89C5.80248 15.9643 5.71416 16.0165 5.61654 16.04C5.51891 16.0634 5.4165 16.0568 5.32263 16.0212C5.22877 15.9856 5.14779 15.9226 5.09025 15.8403C5.0327 15.7581 5.00126 15.6604 5 15.56V7.99999H5.5C5.63261 7.99999 5.75979 7.94731 5.85355 7.85354C5.94732 7.75978 6 7.6326 6 7.49999V6.49999C6 6.36738 5.94732 6.24021 5.85355 6.14644C5.75979 6.05267 5.63261 5.99999 5.5 5.99999H3.5C3.36739 5.99999 3.24021 6.05267 3.14645 6.14644C3.05268 6.24021 3 6.36738 3 6.49999V17C3 18.0609 3.42143 19.0783 4.17157 19.8284C4.92172 20.5786 5.93913 21 7 21H17C18.0609 21 19.0783 20.5786 19.8284 19.8284C20.5786 19.0783 21 18.0609 21 17V6.49999C21 6.36738 20.9473 6.24021 20.8536 6.14644C20.7598 6.05267 20.6326 5.99999 20.5 5.99999H18.5ZM7.18 19C7.09278 18.9983 7.00746 18.9742 6.93218 18.9302C6.85691 18.8861 6.7942 18.8234 6.75006 18.7482C6.70592 18.6729 6.68181 18.5876 6.68005 18.5004C6.67829 18.4132 6.69893 18.327 6.74 18.25C7.24597 17.2874 8.00087 16.4781 8.92603 15.9064C9.85118 15.3348 10.9127 15.0218 12 15C13.0873 15.0218 14.1488 15.3348 15.074 15.9064C15.9991 16.4781 16.754 17.2874 17.26 18.25C17.3011 18.327 17.3217 18.4132 17.3199 18.5004C17.3182 18.5876 17.2941 18.6729 17.2499 18.7482C17.2058 18.8234 17.1431 18.8861 17.0678 18.9302C16.9925 18.9742 16.9072 18.9983 16.82 19H7.18Z" fill="#24394A"/>
</svg>
