<svg width="24" height="24" viewBox="0 0 24 24" fill="none" xmlns="http://www.w3.org/2000/svg">
<path d="M19 15.5V17C19 17.5304 18.7893 18.0391 18.4142 18.4142C18.0391 18.7893 17.5304 19 17 19H7C6.46957 19 5.96086 18.7893 5.58579 18.4142C5.21071 18.0391 5 17.5304 5 17V5H8.5C8.63261 5 8.75979 4.94732 8.85355 4.85355C8.94732 4.75979 9 4.63261 9 4.5V3.5C9 3.36739 8.94732 3.24021 8.85355 3.14645C8.75979 3.05268 8.63261 3 8.5 3H3.5C3.36739 3 3.24021 3.05268 3.14645 3.14645C3.05268 3.24021 3 3.36739 3 3.5V17C3 18.0609 3.42143 19.0783 4.17157 19.8284C4.92172 20.5786 5.93913 21 7 21H17C18.0609 21 19.0783 20.5786 19.8284 19.8284C20.5786 19.0783 21 18.0609 21 17V15.5C21 15.3674 20.9473 15.2402 20.8536 15.1464C20.7598 15.0527 20.6326 15 20.5 15H19.5C19.3674 15 19.2402 15.0527 19.1464 15.1464C19.0527 15.2402 19 15.3674 19 15.5Z" fill="#24394A"/>
<path d="M20.35 4.35L19.65 3.65C19.6035 3.60314 19.5482 3.56594 19.4873 3.54055C19.4264 3.51517 19.361 3.5021 19.295 3.5021C19.229 3.5021 19.1636 3.51517 19.1027 3.54055C19.0418 3.56594 18.9865 3.60314 18.94 3.65L16.35 6.23C16.3051 6.27783 16.2509 6.31595 16.1907 6.34201C16.1305 6.36807 16.0656 6.38152 16 6.38152C15.9344 6.38152 15.8695 6.36807 15.8093 6.34201C15.7491 6.31595 15.6949 6.27783 15.65 6.23L13.06 3.65C13.0135 3.60314 12.9582 3.56594 12.8973 3.54055C12.8364 3.51517 12.771 3.5021 12.705 3.5021C12.639 3.5021 12.5736 3.51517 12.5127 3.54055C12.4518 3.56594 12.3965 3.60314 12.35 3.65L11.65 4.35C11.6031 4.39648 11.5659 4.45178 11.5406 4.51271C11.5152 4.57364 11.5021 4.63899 11.5021 4.705C11.5021 4.77101 11.5152 4.83636 11.5406 4.89729C11.5659 4.95822 11.6031 5.01352 11.65 5.06L14.23 7.65C14.2778 7.69489 14.316 7.74911 14.342 7.80931C14.3681 7.8695 14.3815 7.9344 14.3815 8C14.3815 8.0656 14.3681 8.1305 14.342 8.19069C14.316 8.25089 14.2778 8.30511 14.23 8.35L11.65 10.94C11.6031 10.9865 11.5659 11.0418 11.5406 11.1027C11.5152 11.1636 11.5021 11.229 11.5021 11.295C11.5021 11.361 11.5152 11.4264 11.5406 11.4873C11.5659 11.5482 11.6031 11.6035 11.65 11.65L12.35 12.35C12.3965 12.3969 12.4518 12.4341 12.5127 12.4594C12.5736 12.4848 12.639 12.4979 12.705 12.4979C12.771 12.4979 12.8364 12.4848 12.8973 12.4594C12.9582 12.4341 13.0135 12.3969 13.06 12.35L15.65 9.77C15.6949 9.72217 15.7491 9.68405 15.8093 9.65799C15.8695 9.63193 15.9344 9.61848 16 9.61848C16.0656 9.61848 16.1305 9.63193 16.1907 9.65799C16.2509 9.68405 16.3051 9.72217 16.35 9.77L18.94 12.35C18.9865 12.3969 19.0418 12.4341 19.1027 12.4594C19.1636 12.4848 19.229 12.4979 19.295 12.4979C19.361 12.4979 19.4264 12.4848 19.4873 12.4594C19.5482 12.4341 19.6035 12.3969 19.65 12.35L20.35 11.65C20.3969 11.6035 20.4341 11.5482 20.4594 11.4873C20.4848 11.4264 20.4979 11.361 20.4979 11.295C20.4979 11.229 20.4848 11.1636 20.4594 11.1027C20.4341 11.0418 20.3969 10.9865 20.35 10.94L17.77 8.35C17.7222 8.30511 17.684 8.25089 17.658 8.19069C17.6319 8.1305 17.6185 8.0656 17.6185 8C17.6185 7.9344 17.6319 7.8695 17.658 7.80931C17.684 7.74911 17.7222 7.69489 17.77 7.65L20.35 5.06C20.3969 5.01352 20.4341 4.95822 20.4594 4.89729C20.4848 4.83636 20.4979 4.77101 20.4979 4.705C20.4979 4.63899 20.4848 4.57364 20.4594 4.51271C20.4341 4.45178 20.3969 4.39648 20.35 4.35Z" fill="#24394A"/>
</svg>
