<svg viewBox="0 0 24 24" fill="#24394A" xmlns="http://www.w3.org/2000/svg">
<path d="M20.5 3H3.5C3.36739 3 3.24021 3.05268 3.14645 3.14645C3.05268 3.24021 3 3.36739 3 3.5V17C3 18.0609 3.42143 19.0783 4.17157 19.8284C4.92172 20.5786 5.93913 21 7 21H17C18.0609 21 19.0783 20.5786 19.8284 19.8284C20.5786 19.0783 21 18.0609 21 17V3.5C21 3.36739 20.9473 3.24021 20.8536 3.14645C20.7598 3.05268 20.6326 3 20.5 3ZM19 17C19 17.5304 18.7893 18.0391 18.4142 18.4142C18.0391 18.7893 17.5304 19 17 19H7C6.46957 19 5.96086 18.7893 5.58579 18.4142C5.21071 18.0391 5 17.5304 5 17V5H19V17Z" />
<path d="M9.76 16.31L16.23 12.43C16.3023 12.3839 16.3618 12.3204 16.403 12.2452C16.4442 12.17 16.4658 12.0857 16.4658 12C16.4658 11.9143 16.4442 11.83 16.403 11.7548C16.3618 11.6796 16.3023 11.6161 16.23 11.57L9.76 7.69C9.68398 7.64372 9.59698 7.61857 9.50799 7.61714C9.419 7.61572 9.33124 7.63808 9.25377 7.6819C9.17631 7.72573 9.11195 7.78944 9.06734 7.86646C9.02273 7.94347 8.99948 8.031 9 8.12V15.88C8.99948 15.969 9.02273 16.0565 9.06734 16.1335C9.11195 16.2106 9.17631 16.2743 9.25377 16.3181C9.33124 16.3619 9.419 16.3843 9.50799 16.3829C9.59698 16.3814 9.68398 16.3563 9.76 16.31ZM11 10.77L13.06 12L11 13.23V10.77Z" />
</svg>
