<svg viewBox="0 0 24 24" fill="#24394A" xmlns="http://www.w3.org/2000/svg">
<path d="M21.065 3.65499L20.355 2.94499C19.9803 2.57249 19.4734 2.3634 18.945 2.3634C18.4166 2.3634 17.9097 2.57249 17.535 2.94499L2.945 17.525C2.75783 17.711 2.60933 17.9323 2.50807 18.176C2.40681 18.4197 2.35479 18.6811 2.355 18.945C2.35723 19.4746 2.56941 19.9816 2.945 20.355L3.655 21.065C4.02972 21.4375 4.53662 21.6466 5.065 21.6466C5.59337 21.6466 6.10027 21.4375 6.475 21.065L21.065 6.48499C21.2522 6.29893 21.4007 6.07767 21.5019 5.83396C21.6032 5.59024 21.6552 5.3289 21.655 5.06499C21.6528 4.53541 21.4406 4.02834 21.065 3.65499ZM5.065 19.655L4.355 18.945L6.655 16.655L7.355 17.355L5.065 19.655ZM17.355 7.35499L16.655 6.65499L18.945 4.35499L19.655 5.06499L17.355 7.35499Z" />
</svg>
