<svg width="24" height="24" viewBox="0 0 24 24" fill="none" xmlns="http://www.w3.org/2000/svg">
<path d="M11 17V15.11C10.7 14.84 10.5 14.44 10.5 14C10.5 13.17 11.17 12.5 12 12.5C12.83 12.5 13.5 13.17 13.5 14C13.5 14.44 13.3 14.84 13 15.11V17C13 17.28 12.78 17.5 12.5 17.5H11.5C11.22 17.5 11 17.28 11 17Z" fill="#24394A"/>
<path fill-rule="evenodd" clip-rule="evenodd" d="M18 7V8.5C18 8.78 18.22 9 18.5 9H19.5C19.78 9 20 9.22 20 9.5V17C20 19.21 18.21 21 16 21H8C5.79 21 4 19.21 4 17V9.5C4 9.22 4.22 9 4.5 9H5.5C5.78 9 6 8.78 6 8.5V7C6 4.79 7.79 3 10 3H14C16.21 3 18 4.79 18 7ZM10 5C8.9 5 8 5.9 8 7V8.5C8 8.78 8.22 9 8.5 9H15.5C15.78 9 16 8.78 16 8.5V7C16 5.9 15.1 5 14 5H10ZM16 19C17.1 19 18 18.1 18 17V11H6V17C6 18.1 6.9 19 8 19H16Z" fill="#24394A"/>
</svg>
