<svg width="24" height="24" viewBox="0 0 24 24" fill="none" xmlns="http://www.w3.org/2000/svg">
<path d="M17.4 6.5H6.6C6.26863 6.5 6 6.72386 6 7V8C6 8.27614 6.26863 8.5 6.6 8.5H17.4C17.7314 8.5 18 8.27614 18 8V7C18 6.72386 17.7314 6.5 17.4 6.5Z" fill="#24394A"/>
<path d="M17.4 11H6.6C6.26863 11 6 11.2239 6 11.5V12.5C6 12.7761 6.26863 13 6.6 13H17.4C17.7314 13 18 12.7761 18 12.5V11.5C18 11.2239 17.7314 11 17.4 11Z" fill="#24394A"/>
<path d="M17.4 15.5H6.6C6.26863 15.5 6 15.7239 6 16V17C6 17.2761 6.26863 17.5 6.6 17.5H17.4C17.7314 17.5 18 17.2761 18 17V16C18 15.7239 17.7314 15.5 17.4 15.5Z" fill="#24394A"/>
</svg>
