<svg width="24" height="24" viewBox="0 0 24 24" fill="none" xmlns="http://www.w3.org/2000/svg">
<path d="M16.21 3.59001L15.76 4.49001C15.64 4.73001 15.74 5.01001 15.97 5.14001C18.83 6.78001 20.42 9.98001 19.89 13.39C19.36 16.8 16.41 19.65 12.89 20.04C8.08 20.57 3.99 16.8 3.99 12.09C3.99 9.19001 5.52 6.57001 8.01 5.15001C8.24 5.02001 8.34 4.73001 8.22 4.49001L7.77 3.59001C7.64 3.34001 7.33 3.23001 7.08 3.37001C3.43 5.43001 1.41 9.54001 2.15 13.88C2.85 17.92 6.09 21.19 10.13 21.92C16.46 23.07 22 18.22 22 12.09C22 8.44001 20.06 5.15001 16.91 3.37001C16.66 3.23001 16.34 3.34001 16.22 3.59001H16.21Z" fill="#24394A"/>
<path d="M14.5 16.09H9.5C9.22386 16.09 9 16.3139 9 16.59V17.59C9 17.8661 9.22386 18.09 9.5 18.09H14.5C14.7761 18.09 15 17.8661 15 17.59V16.59C15 16.3139 14.7761 16.09 14.5 16.09Z" fill="#24394A"/>
<path d="M8.3 10.69L7.7 11.49C7.53 11.71 7.58 12.02 7.8 12.19L11.49 14.96C11.79 15.19 12.21 15.19 12.51 14.96L16.2 12.19C16.42 12.02 16.47 11.71 16.3 11.49L15.7 10.69C15.53 10.47 15.22 10.42 15 10.59L13.4 11.79L14.09 7.67001C14.14 7.37001 13.91 7.09001 13.6 7.09001H12.19L12.91 2.75001C12.96 2.48001 12.77 2.22001 12.5 2.17001L11.51 2.00001C11.24 1.95001 10.98 2.14001 10.93 2.41001L9.91 8.50001C9.86 8.80001 10.09 9.08001 10.4 9.08001H11.81L11.27 12.29L8.99 10.58C8.77 10.41 8.46 10.46 8.29 10.68L8.3 10.69Z" fill="#24394A"/>
</svg>
