<svg width="24" height="24" viewBox="0 0 24 24" fill="none" xmlns="http://www.w3.org/2000/svg">
<path d="M15 3H9C7.4087 3 5.88258 3.63214 4.75736 4.75736C3.63214 5.88258 3 7.4087 3 9V15C3 16.5913 3.63214 18.1174 4.75736 19.2426C5.88258 20.3679 7.4087 21 9 21H15C16.5913 21 18.1174 20.3679 19.2426 19.2426C20.3679 18.1174 21 16.5913 21 15V9C21 7.4087 20.3679 5.88258 19.2426 4.75736C18.1174 3.63214 16.5913 3 15 3ZM17 12.5C17 12.6326 16.9473 12.7598 16.8536 12.8536C16.7598 12.9473 16.6326 13 16.5 13H13.5C13.3674 13 13.2402 13.0527 13.1464 13.1464C13.0527 13.2402 13 13.3674 13 13.5V16.5C13 16.6326 12.9473 16.7598 12.8536 16.8536C12.7598 16.9473 12.6326 17 12.5 17H11.5C11.3674 17 11.2402 16.9473 11.1464 16.8536C11.0527 16.7598 11 16.6326 11 16.5V13.5C11 13.3674 10.9473 13.2402 10.8536 13.1464C10.7598 13.0527 10.6326 13 10.5 13H7.5C7.36739 13 7.24021 12.9473 7.14645 12.8536C7.05268 12.7598 7 12.6326 7 12.5V11.5C7 11.3674 7.05268 11.2402 7.14645 11.1464C7.24021 11.0527 7.36739 11 7.5 11H10.5C10.6326 11 10.7598 10.9473 10.8536 10.8536C10.9473 10.7598 11 10.6326 11 10.5V7.5C11 7.36739 11.0527 7.24021 11.1464 7.14645C11.2402 7.05268 11.3674 7 11.5 7H12.5C12.6326 7 12.7598 7.05268 12.8536 7.14645C12.9473 7.24021 13 7.36739 13 7.5V10.5C13 10.6326 13.0527 10.7598 13.1464 10.8536C13.2402 10.9473 13.3674 11 13.5 11H16.5C16.6326 11 16.7598 11.0527 16.8536 11.1464C16.9473 11.2402 17 11.3674 17 11.5V12.5Z" fill="#24394A"/>
</svg>
