<svg viewBox="0 0 24 24" fill="#24394A" xmlns="http://www.w3.org/2000/svg">
<path d="M15.8699 12.955C16.1999 11.605 15.8199 10.155 14.8199 9.165C13.8299 8.175 12.3799 7.785 11.0299 8.115L15.8699 12.955Z" />
<path d="M22.8299 11.445C22.6499 11.185 18.4599 4.995 11.9999 4.995C11.1099 4.995 10.2099 5.125 9.31988 5.365C8.95988 5.465 8.84988 5.935 9.10988 6.195L9.93988 7.025C10.0599 7.14499 10.2299 7.185 10.3899 7.155C10.9299 7.045 11.4599 6.995 11.9899 6.995C16.0399 6.995 19.1599 10.105 20.4799 11.675C20.6399 11.865 20.6399 12.135 20.4799 12.325C19.9799 12.915 19.2099 13.735 18.2299 14.525C17.9999 14.715 17.9699 15.065 18.1799 15.275L18.8899 15.985C19.0699 16.165 19.3599 16.185 19.5599 16.025C21.5799 14.375 22.7599 12.645 22.8199 12.555C23.0399 12.215 23.0399 11.785 22.8199 11.445H22.8299Z" />
<path d="M18.8499 18.935L3.55988 3.645C3.35988 3.445 3.04988 3.445 2.84988 3.645L2.13988 4.355C1.93988 4.555 1.93988 4.865 2.13988 5.065L4.38988 7.295C4.59988 7.50499 4.57988 7.845 4.34988 8.035C2.36988 9.665 1.21988 11.355 1.16988 11.445C0.949883 11.785 0.949883 12.215 1.16988 12.555C1.34988 12.815 5.53988 19.005 11.9999 19.005C13.0599 19.005 14.1299 18.825 15.1799 18.485C15.3599 18.425 15.5499 18.475 15.6799 18.605L17.4299 20.355C17.6299 20.555 17.9399 20.555 18.1399 20.355L18.8499 19.645C19.0499 19.445 19.0499 19.135 18.8499 18.935ZM11.9999 16.995C7.94988 16.995 4.82988 13.885 3.50988 12.315C3.34988 12.125 3.34988 11.855 3.50988 11.665C4.08988 10.985 5.01988 10.005 6.20988 9.115L8.11988 11.025C7.78988 12.375 8.16988 13.825 9.16988 14.815C9.92988 15.575 10.9599 15.985 12.0099 15.985C12.3299 15.985 12.6399 15.935 12.9599 15.855L13.8699 16.765C13.2499 16.915 12.6199 16.985 12.0099 16.985L11.9999 16.995Z" />
</svg>
