<svg viewBox="0 0 24 24" fill="#24394A" xmlns="http://www.w3.org/2000/svg">
<path d="M11.7351 1.48998L3.23512 6.79998C3.08512 6.88998 2.99512 7.04998 2.99512 7.21998V16.78C2.99512 16.95 3.08512 17.11 3.23512 17.2L11.7351 22.51C11.8951 22.61 12.1051 22.61 12.2651 22.51L20.7651 17.2C20.9151 17.11 21.0051 16.95 21.0051 16.78V7.21998C21.0051 7.04998 20.9151 6.88998 20.7651 6.79998L12.2551 1.48998C12.0951 1.38998 11.8851 1.38998 11.7251 1.48998H11.7351ZM18.1151 7.49998L16.0151 8.80998L10.0151 4.91998L11.9951 3.67998L18.1051 7.49998H18.1151ZM12.0051 11.32L5.88512 7.49998L8.14512 6.08998L14.1351 9.98998L11.9951 11.33L12.0051 11.32ZM4.99512 9.29998L10.9951 13.05V19.69L4.99512 15.94V9.29998ZM12.9951 19.69V13.05L14.9951 11.8V13.54C14.9951 13.93 15.4251 14.17 15.7551 13.96L16.6451 13.4C16.8551 13.27 16.9851 13.03 16.9851 12.78V10.54L18.9851 9.28998V15.93L12.9851 19.68L12.9951 19.69Z" />
</svg>
