<svg viewBox="0 0 24 24" fill="#24394A" xmlns="http://www.w3.org/2000/svg">
<path d="M4.6479 8.61152L5.3479 9.31152C5.39438 9.35838 5.44968 9.39558 5.51061 9.42096C5.57154 9.44635 5.63689 9.45942 5.7029 9.45942C5.7689 9.45942 5.83426 9.44635 5.89519 9.42096C5.95612 9.39558 6.01142 9.35838 6.0579 9.31152L6.9979 8.37152V15.4615C6.9979 15.5941 7.05058 15.7213 7.14435 15.8151C7.23811 15.9088 7.36529 15.9615 7.4979 15.9615H8.4979C8.63051 15.9615 8.75768 15.9088 8.85145 15.8151C8.94522 15.7213 8.9979 15.5941 8.9979 15.4615V8.37152L9.9379 9.31152C9.98438 9.35838 10.0397 9.39558 10.1006 9.42096C10.1615 9.44635 10.2269 9.45942 10.2929 9.45942C10.3589 9.45942 10.4243 9.44635 10.4852 9.42096C10.5461 9.39558 10.6014 9.35838 10.6479 9.31152L11.3479 8.61152C11.3948 8.56504 11.432 8.50974 11.4573 8.44881C11.4827 8.38788 11.4958 8.32252 11.4958 8.25652C11.4958 8.19051 11.4827 8.12516 11.4573 8.06423C11.432 8.0033 11.3948 7.948 11.3479 7.90152L8.3479 4.90152C8.30301 4.85369 8.24879 4.81557 8.18859 4.78951C8.1284 4.76345 8.0635 4.75 7.9979 4.75C7.9323 4.75 7.8674 4.76345 7.8072 4.78951C7.74701 4.81557 7.69279 4.85369 7.6479 4.90152L4.6479 7.90152C4.60103 7.948 4.56384 8.0033 4.53845 8.06423C4.51307 8.12516 4.5 8.19051 4.5 8.25652C4.5 8.32252 4.51307 8.38788 4.53845 8.44881C4.56384 8.50974 4.60103 8.56504 4.6479 8.61152Z" />
<path d="M18.6479 14.6115C18.6014 14.5647 18.5461 14.5275 18.4852 14.5021C18.4243 14.4767 18.3589 14.4636 18.2929 14.4636C18.2269 14.4636 18.1615 14.4767 18.1006 14.5021C18.0397 14.5275 17.9844 14.5647 17.9379 14.6115L16.9979 15.5515V8.46152C16.9979 8.32891 16.9452 8.20173 16.8515 8.10796C16.7577 8.0142 16.6305 7.96152 16.4979 7.96152H15.4979C15.3653 7.96152 15.2381 8.0142 15.1443 8.10796C15.0506 8.20173 14.9979 8.32891 14.9979 8.46152V15.5515L14.0579 14.6115C14.0114 14.5647 13.9561 14.5275 13.8952 14.5021C13.8343 14.4767 13.7689 14.4636 13.7029 14.4636C13.6369 14.4636 13.5715 14.4767 13.5106 14.5021C13.4497 14.5275 13.3944 14.5647 13.3479 14.6115L12.6479 15.3115C12.601 15.358 12.5638 15.4133 12.5385 15.4742C12.5131 15.5352 12.5 15.6005 12.5 15.6665C12.5 15.7325 12.5131 15.7979 12.5385 15.8588C12.5638 15.9197 12.601 15.975 12.6479 16.0215L15.6479 19.0215C15.6928 19.0693 15.747 19.1075 15.8072 19.1335C15.8674 19.1596 15.9323 19.173 15.9979 19.173C16.0635 19.173 16.1284 19.1596 16.1886 19.1335C16.2488 19.1075 16.303 19.0693 16.3479 19.0215L19.3479 16.0215C19.3948 15.975 19.432 15.9197 19.4573 15.8588C19.4827 15.7979 19.4958 15.7325 19.4958 15.6665C19.4958 15.6005 19.4827 15.5352 19.4573 15.4742C19.432 15.4133 19.3948 15.358 19.3479 15.3115L18.6479 14.6115Z" />
</svg>
