<svg viewBox="0 0 24 24" fill="#24394A" xmlns="http://www.w3.org/2000/svg">
<path d="M17.2 21.4L13.2 18.4C12.8538 18.1404 12.4327 18 12 18H7C5.99674 18.0546 5.01268 17.7097 4.26307 17.0407C3.51346 16.3717 3.05933 15.433 3 14.43V4.5C3 4.36739 3.05268 4.24021 3.14645 4.14645C3.24021 4.05268 3.36739 4 3.5 4H20.5C20.6326 4 20.7598 4.05268 20.8536 4.14645C20.9473 4.24021 21 4.36739 21 4.5V14.43C20.9719 15.1973 20.7011 15.9359 20.2268 16.5396C19.7524 17.1433 19.0988 17.5811 18.36 17.79C18.2569 17.8184 18.166 17.8796 18.101 17.9645C18.036 18.0493 18.0005 18.1531 18 18.26V20.77C18 21.41 17.53 21.65 17.2 21.4ZM5 6V14.43C5.0649 14.8999 5.30971 15.3262 5.68281 15.6191C6.05591 15.9119 6.52816 16.0485 7 16H12C12.8655 16 13.7076 16.2807 14.4 16.8L16 18V16.5C16 16.3674 16.0527 16.2402 16.1464 16.1464C16.2402 16.0527 16.3674 16 16.5 16H17C17.4718 16.0485 17.9441 15.9119 18.3172 15.6191C18.6903 15.3262 18.9351 14.8999 19 14.43V6H5Z" />
</svg>
