<svg viewBox="0 0 24 24" fill="#24394A" xmlns="http://www.w3.org/2000/svg">
<path d="M17.0001 6.5V3.5C17.0001 3.36739 16.9474 3.24021 16.8536 3.14645C16.7599 3.05268 16.6327 3 16.5001 3H3.50007C3.36747 3 3.24029 3.05268 3.14652 3.14645C3.05275 3.24021 3.00007 3.36739 3.00007 3.5V13C2.99407 13.9889 3.35458 14.9449 4.01201 15.6836C4.66944 16.4223 5.5772 16.8912 6.56007 17C6.67975 17.0071 6.79265 17.0579 6.87742 17.1427C6.96219 17.2274 7.01295 17.3403 7.02007 17.46C7.13304 18.4358 7.60114 19.336 8.33515 19.9888C9.06915 20.6417 10.0177 21.0016 11.0001 21H17.0001C18.0609 21 19.0784 20.5786 19.8285 19.8284C20.5786 19.0783 21.0001 18.0609 21.0001 17V7.5C21.0001 7.36739 20.9474 7.24021 20.8536 7.14645C20.7599 7.05268 20.6327 7 20.5001 7H17.5001C17.3675 7 17.2403 6.94732 17.1465 6.85355C17.0528 6.75979 17.0001 6.63261 17.0001 6.5ZM7.00007 7.5V14.42C7.00125 14.4961 6.98469 14.5714 6.95172 14.6399C6.91875 14.7085 6.87026 14.7685 6.8101 14.815C6.74994 14.8616 6.67976 14.8935 6.60512 14.9083C6.53048 14.923 6.45343 14.9202 6.38007 14.9C5.9791 14.7693 5.62971 14.5151 5.38186 14.1739C5.13401 13.8326 5.00038 13.4218 5.00007 13V5H15.0001V6.5C15.0001 6.63261 14.9474 6.75979 14.8536 6.85355C14.7599 6.94732 14.6327 7 14.5001 7H7.50007C7.36747 7 7.24029 7.05268 7.14652 7.14645C7.05275 7.24021 7.00007 7.36739 7.00007 7.5ZM19.0001 17C19.0001 17.5304 18.7894 18.0391 18.4143 18.4142C18.0392 18.7893 17.5305 19 17.0001 19H11.0001C10.4696 19 9.96093 18.7893 9.58586 18.4142C9.21079 18.0391 9.00007 17.5304 9.00007 17V9H19.0001V17Z" />
</svg>
