<svg viewBox="0 0 24 24" fill="#24394A" xmlns="http://www.w3.org/2000/svg">
<path d="M16.89 21C16.4743 21.0002 16.0688 20.8709 15.73 20.63L12.73 18.54C12.6244 18.4665 12.4987 18.427 12.37 18.427C12.2413 18.427 12.1156 18.4665 12.01 18.54L9.01 20.63C8.66799 20.8904 8.25117 21.0337 7.82133 21.0387C7.39149 21.0436 6.97149 20.9099 6.6236 20.6574C6.2757 20.4049 6.01842 20.047 5.88989 19.6368C5.76135 19.2266 5.76841 18.7859 5.91 18.38L6.97 14.87C7.00923 14.7454 7.00811 14.6117 6.96681 14.4877C6.92551 14.3638 6.84613 14.2561 6.74 14.18L3.81 12C3.4394 11.7618 3.15782 11.4079 3.00899 10.9933C2.86015 10.5786 2.85239 10.1264 2.98691 9.7069C3.12143 9.28739 3.3907 8.92403 3.7529 8.67325C4.11511 8.42247 4.54998 8.29829 4.99 8.32001L8.65 8.25001C8.78009 8.24565 8.90588 8.20234 9.01107 8.12567C9.11627 8.04901 9.19602 7.94252 9.24 7.82001L10.44 4.36001C10.5612 3.94458 10.8138 3.57966 11.16 3.32001C11.5062 3.06037 11.9273 2.92001 12.36 2.92001C12.7927 2.92001 13.2138 3.06037 13.56 3.32001C13.9062 3.57966 14.1588 3.94458 14.28 4.36001L15.48 7.82001C15.524 7.94252 15.6037 8.04901 15.7089 8.12567C15.8141 8.20234 15.9399 8.24565 16.07 8.25001L19.73 8.32001C20.17 8.29829 20.6049 8.42247 20.9671 8.67325C21.3293 8.92403 21.5986 9.28739 21.7331 9.7069C21.8676 10.1264 21.8598 10.5786 21.711 10.9933C21.5622 11.4079 21.2806 11.7618 20.91 12L18 14.21C17.8939 14.2861 17.8145 14.3938 17.7732 14.5177C17.7319 14.6417 17.7308 14.7754 17.77 14.9L18.83 18.41C18.9567 18.8133 18.9523 19.2463 18.8176 19.647C18.6828 20.0476 18.4246 20.3953 18.08 20.64C17.7317 20.8834 17.3148 21.0095 16.89 21ZM12.36 16.43C12.8961 16.4307 13.4193 16.5947 13.86 16.9L16.86 18.99L15.86 15.45C15.704 14.9354 15.7096 14.3853 15.8759 13.874C16.0422 13.3626 16.3612 12.9145 16.79 12.59L19.7 10.38L16.03 10.25C15.4916 10.2378 14.9697 10.0619 14.5338 9.74574C14.0979 9.42953 13.7687 8.98802 13.59 8.48001L12.36 5.00001L11.13 8.48001C10.9513 8.98802 10.6221 9.42953 10.1862 9.74574C9.75028 10.0619 9.22838 10.2378 8.69 10.25L5.03 10.32L7.93 12.59C8.3588 12.9145 8.67784 13.3626 8.84413 13.874C9.01041 14.3853 9.01595 14.9354 8.86 15.45L7.8 19L10.86 16.9C11.3007 16.5947 11.8239 16.4307 12.36 16.43Z" />
</svg>
