<svg width="24" height="24" viewBox="0 0 24 24" fill="none" xmlns="http://www.w3.org/2000/svg">
<path d="M12 22C11.7716 22.0067 11.5478 21.9349 11.3658 21.7966C11.1839 21.6583 11.0548 21.4619 11 21.24L9.38001 14.62L2.76001 13C2.54378 12.9458 2.35186 12.8209 2.21473 12.6452C2.07759 12.4694 2.00311 12.2529 2.00311 12.03C2.00311 11.8071 2.07759 11.5906 2.21473 11.4148C2.35186 11.2391 2.54378 11.1142 2.76001 11.06L9.38001 9.38001L11 2.76001C11.0542 2.54378 11.1791 2.35186 11.3548 2.21473C11.5306 2.07759 11.7471 2.00311 11.97 2.00311C12.1929 2.00311 12.4094 2.07759 12.5852 2.21473C12.7609 2.35186 12.8858 2.54378 12.94 2.76001L14.59 9.38001L21.24 11C21.4562 11.0542 21.6482 11.1791 21.7853 11.3548C21.9224 11.5306 21.9969 11.7471 21.9969 11.97C21.9969 12.1929 21.9224 12.4094 21.7853 12.5852C21.6482 12.7609 21.4562 12.8858 21.24 12.94L14.62 14.59L13 21.24C12.9453 21.4619 12.8162 21.6583 12.6342 21.7966C12.4523 21.9349 12.2284 22.0067 12 22ZM7.12001 12L10.44 12.83C10.6166 12.8738 10.7779 12.9649 10.9065 13.0935C11.0351 13.2222 11.1262 13.3834 11.17 13.56L12 16.88L12.83 13.56C12.8738 13.3834 12.9649 13.2222 13.0935 13.0935C13.2222 12.9649 13.3834 12.8738 13.56 12.83L16.88 12L13.56 11.17C13.3834 11.1262 13.2222 11.0351 13.0935 10.9065C12.9649 10.7779 12.8738 10.6166 12.83 10.44L12 7.12001L11.17 10.44C11.1262 10.6166 11.0351 10.7779 10.9065 10.9065C10.7779 11.0351 10.6166 11.1262 10.44 11.17L7.12001 12Z" fill="#24394A"/>
</svg>
