<svg viewBox="0 0 24 24" fill="#24394A" xmlns="http://www.w3.org/2000/svg">
<path d="M11.6479 16.0579L5.6479 10.0579C5.60103 10.0114 5.56384 9.95612 5.53845 9.89519C5.51307 9.83426 5.5 9.7689 5.5 9.7029C5.5 9.63689 5.51307 9.57154 5.53845 9.51061C5.56384 9.44968 5.60103 9.39438 5.6479 9.3479L6.3479 8.6479C6.39438 8.60103 6.44968 8.56384 6.51061 8.53845C6.57154 8.51307 6.63689 8.5 6.7029 8.5C6.7689 8.5 6.83426 8.51307 6.89519 8.53845C6.95612 8.56384 7.01142 8.60103 7.0579 8.6479L11.9979 13.5879L16.9379 8.6479C16.9844 8.60103 17.0397 8.56384 17.1006 8.53845C17.1615 8.51307 17.2269 8.5 17.2929 8.5C17.3589 8.5 17.4243 8.51307 17.4852 8.53845C17.5461 8.56384 17.6014 8.60103 17.6479 8.6479L18.3479 9.3479C18.3948 9.39438 18.432 9.44968 18.4573 9.51061C18.4827 9.57154 18.4958 9.63689 18.4958 9.7029C18.4958 9.7689 18.4827 9.83426 18.4573 9.89519C18.432 9.95612 18.3948 10.0114 18.3479 10.0579L12.3479 16.0579C12.303 16.1057 12.2488 16.1439 12.1886 16.1699C12.1284 16.196 12.0635 16.2094 11.9979 16.2094C11.9323 16.2094 11.8674 16.196 11.8072 16.1699C11.747 16.1439 11.6928 16.1057 11.6479 16.0579Z" />
</svg>
