<svg width="24" height="24" viewBox="0 0 24 24" fill="none" xmlns="http://www.w3.org/2000/svg">
<path d="M20.5 6H15.43C15.3593 5.99927 15.2893 6.01385 15.2248 6.04273C15.1603 6.07161 15.1028 6.11411 15.0562 6.16731C15.0097 6.22051 14.9752 6.28315 14.9551 6.35093C14.9351 6.41872 14.9299 6.49004 14.94 6.56L15.94 14.48C15.9996 14.8107 15.9996 15.1493 15.94 15.48L15.38 18H14V17.5C14 17.3674 13.9473 17.2402 13.8536 17.1464C13.7598 17.0527 13.6326 17 13.5 17H10.5C10.3674 17 10.2402 17.0527 10.1464 17.1464C10.0527 17.2402 10 17.3674 10 17.5V18H8.62L8.11 15.44C8.05043 15.1093 8.05043 14.7707 8.11 14.44L9.11 6.52C9.11476 6.44875 9.10389 6.37731 9.07815 6.3107C9.05241 6.24409 9.01241 6.18391 8.96097 6.13437C8.90953 6.08484 8.84789 6.04714 8.78035 6.02393C8.71282 6.00072 8.64102 5.99255 8.57 6H3.5C3.36739 6 3.24021 6.05268 3.14645 6.14645C3.05268 6.24021 3 6.36739 3 6.5V17C3 18.0609 3.42143 19.0783 4.17157 19.8284C4.92172 20.5786 5.93913 21 7 21H8.61C8.68415 21 8.75738 20.9835 8.82438 20.9518C8.89137 20.92 8.95046 20.8737 8.99737 20.8163C9.04427 20.7588 9.07781 20.6917 9.09556 20.6197C9.11332 20.5477 9.11483 20.4727 9.1 20.4L9 20H15L14.92 20.4C14.9052 20.4727 14.9067 20.5477 14.9244 20.6197C14.9422 20.6917 14.9757 20.7588 15.0226 20.8163C15.0695 20.8737 15.1286 20.92 15.1956 20.9518C15.2626 20.9835 15.3358 21 15.41 21H17C18.0609 21 19.0783 20.5786 19.8284 19.8284C20.5786 19.0783 21 18.0609 21 17V6.5C21 6.36739 20.9473 6.24021 20.8536 6.14645C20.7598 6.05268 20.6326 6 20.5 6ZM6.15 15.83L6.78 19C6.28856 18.9456 5.83468 18.7111 5.50597 18.3418C5.17725 17.9724 4.997 17.4944 5 17V8H6.87L6.09 14.23C6.01951 14.7629 6.0398 15.3039 6.15 15.83ZM19 17C19.003 17.4944 18.8227 17.9724 18.494 18.3418C18.1653 18.7111 17.7114 18.9456 17.22 19L17.85 15.84C17.9602 15.3139 17.9805 14.7729 17.91 14.24L17.13 8H19V17Z" fill="#24394A"/>
<path d="M21.5 3H2.5C2.22386 3 2 3.22386 2 3.5V4.5C2 4.77614 2.22386 5 2.5 5H21.5C21.7761 5 22 4.77614 22 4.5V3.5C22 3.22386 21.7761 3 21.5 3Z" fill="#24394A"/>
</svg>
