<svg viewBox="0 0 24 24" fill="#24394A" xmlns="http://www.w3.org/2000/svg">
<path d="M20.55 17.8739L13.79 4.34392C13.6241 4.01111 13.3687 3.73113 13.0526 3.53543C12.7364 3.33973 12.3719 3.23605 12 3.23605C11.6281 3.23605 11.2636 3.33973 10.9474 3.53543C10.6312 3.73113 10.3759 4.01111 10.21 4.34392L3.45 17.8739C3.29852 18.1788 3.22735 18.5172 3.24324 18.8573C3.25912 19.1973 3.36154 19.5276 3.54078 19.817C3.72002 20.1064 3.97016 20.3453 4.26751 20.511C4.56487 20.6767 4.89959 20.7637 5.24 20.7639H18.76C19.1004 20.7637 19.4351 20.6767 19.7325 20.511C20.0298 20.3453 20.28 20.1064 20.4592 19.817C20.6385 19.5276 20.7409 19.1973 20.7568 18.8573C20.7726 18.5172 20.7015 18.1788 20.55 17.8739ZM11.5 7.76392H12.5C12.6326 7.76392 12.7598 7.8166 12.8536 7.91037C12.9473 8.00414 13 8.13131 13 8.26392V12.2639C13 12.3965 12.9473 12.5237 12.8536 12.6175C12.7598 12.7112 12.6326 12.7639 12.5 12.7639H11.5C11.3674 12.7639 11.2402 12.7112 11.1464 12.6175C11.0527 12.5237 11 12.3965 11 12.2639V8.26392C11 8.13131 11.0527 8.00414 11.1464 7.91037C11.2402 7.8166 11.3674 7.76392 11.5 7.76392ZM12 18.7639C11.6044 18.7639 11.2178 18.6466 10.8889 18.4269C10.56 18.2071 10.3036 17.8947 10.1522 17.5293C10.0009 17.1638 9.96126 16.7617 10.0384 16.3737C10.1156 15.9858 10.3061 15.6294 10.5858 15.3497C10.8655 15.07 11.2219 14.8795 11.6098 14.8024C11.9978 14.7252 12.3999 14.7648 12.7654 14.9162C13.1308 15.0675 13.4432 15.3239 13.6629 15.6528C13.8827 15.9817 14 16.3684 14 16.7639C14 17.2944 13.7893 17.8031 13.4142 18.1781C13.0391 18.5532 12.5304 18.7639 12 18.7639Z" />
</svg>
