<svg width="24" height="24" viewBox="0 0 24 24" fill="none" xmlns="http://www.w3.org/2000/svg">
<path d="M18 21H14C13.8674 21 13.7402 20.9473 13.6464 20.8535C13.5527 20.7598 13.5 20.6326 13.5 20.5V14H10.5V20.5C10.5 20.6326 10.4473 20.7598 10.3536 20.8535C10.2598 20.9473 10.1326 21 10 21H6C5.20435 21 4.44129 20.6839 3.87868 20.1213C3.31607 19.5587 3 18.7956 3 18V10.55C3.0005 10.1085 3.09846 9.67249 3.28687 9.27319C3.47529 8.87388 3.74952 8.52109 4.09 8.23999L10.09 3.23999C10.6276 2.79617 11.3029 2.55341 12 2.55341C12.6971 2.55341 13.3724 2.79617 13.91 3.23999L19.91 8.23999C20.2505 8.52109 20.5247 8.87388 20.7131 9.27319C20.9015 9.67249 20.9995 10.1085 21 10.55V18C21 18.7956 20.6839 19.5587 20.1213 20.1213C19.5587 20.6839 18.7956 21 18 21ZM15.5 19H18C18.2652 19 18.5196 18.8946 18.7071 18.7071C18.8946 18.5196 19 18.2652 19 18V10.55C19.0002 10.4031 18.9681 10.2579 18.9059 10.1248C18.8437 9.99175 18.7529 9.87401 18.64 9.77999L12.64 4.77999C12.4603 4.63032 12.2339 4.54836 12 4.54836C11.7661 4.54836 11.5397 4.63032 11.36 4.77999L5.36 9.77999C5.24712 9.87401 5.15634 9.99175 5.09412 10.1248C5.0319 10.2579 4.99976 10.4031 5 10.55V18C5 18.2652 5.10536 18.5196 5.29289 18.7071C5.48043 18.8946 5.73478 19 6 19H8.5V14C8.5 13.4696 8.71071 12.9608 9.08579 12.5858C9.46086 12.2107 9.96957 12 10.5 12H13.5C14.0304 12 14.5391 12.2107 14.9142 12.5858C15.2893 12.9608 15.5 13.4696 15.5 14V19Z" fill="#24394A"/>
</svg>
