<svg width="24" height="24" viewBox="0 0 24 24" fill="none" xmlns="http://www.w3.org/2000/svg">
<path d="M19.07 10.16C18.9507 10.0496 18.8601 9.91171 18.8061 9.75837C18.7521 9.60503 18.7362 9.44083 18.76 9.28C18.86 8.67 19 7.72 19 7.5C19 4.7 15.92 2.5 12 2.5C8.08 2.5 5 4.7 5 7.5C5 7.72 5.14 8.67 5.24 9.28C5.26375 9.44083 5.24794 9.60503 5.19392 9.75837C5.1399 9.91171 5.04931 10.0496 4.93 10.16C4.33307 10.7165 3.85448 11.3877 3.52287 12.1334C3.19126 12.8791 3.01342 13.684 3 14.5C3 18.36 7 21.5 12 21.5C17 21.5 21 18.36 21 14.5C20.9866 13.684 20.8087 12.8791 20.4771 12.1334C20.1455 11.3877 19.6669 10.7165 19.07 10.16ZM12 14.5C9.64 14.5 7.87 13.5 7.74 12.61L7.57 11.4C8.9261 12.1451 10.4529 12.5242 12 12.5C13.5471 12.5242 15.0739 12.1451 16.43 11.4L16.26 12.62C16.11 13.5 14.35 14.5 12 14.5ZM12 4.5C14.69 4.5 17 5.88 17 7.5C17 9.12 14.53 10.5 12 10.5C9.47 10.5 7 9.08 7 7.5C7 5.92 9.31 4.5 12 4.5ZM12 19.5C8.14 19.5 5 17.26 5 14.5C5.0192 13.7475 5.25914 13.0172 5.69 12.4L6 14.64C6.35 16.81 8.71 18.5 12 18.5C15.29 18.5 17.68 16.8 18 14.64L18.32 12.4C18.7506 13.0168 18.9873 13.7479 19 14.5C19 17.26 15.86 19.5 12 19.5Z" fill="#24394A"/>
</svg>
