<svg width="24" height="24" viewBox="0 0 24 24" fill="none" xmlns="http://www.w3.org/2000/svg">
<path d="M19.975 11.1816C20.1667 11.0644 20.3133 10.886 20.3912 10.6753C20.4691 10.4646 20.4738 10.2338 20.4045 10.0201C20.3352 9.80635 20.1959 9.62221 20.0091 9.49732C19.8224 9.37243 19.599 9.31406 19.375 9.33163L15.715 9.26163C15.381 9.25516 15.0569 9.14617 14.7868 8.94942C14.5167 8.75266 14.3136 8.47765 14.205 8.16163L12.975 4.70163C12.9209 4.4854 12.796 4.29348 12.6202 4.15635C12.4445 4.01921 12.228 3.94473 12.005 3.94473C11.7821 3.94473 11.5656 4.01921 11.3899 4.15635C11.2141 4.29348 11.0892 4.4854 11.035 4.70163L9.79505 8.16163C9.68646 8.47765 9.48336 8.75266 9.21327 8.94942C8.94318 9.14617 8.61915 9.25516 8.28505 9.26163L4.62505 9.33163C4.40107 9.31406 4.1777 9.37243 3.99095 9.49732C3.8042 9.62221 3.66495 9.80635 3.59564 10.0201C3.52633 10.2338 3.531 10.4646 3.6089 10.6753C3.6868 10.886 3.8334 11.0644 4.02505 11.1816L6.97505 13.4016C7.23874 13.6039 7.43519 13.8811 7.53868 14.197C7.64218 14.5128 7.64788 14.8525 7.55505 15.1716L6.46505 18.6816C6.38172 18.8885 6.36993 19.1172 6.43153 19.3315C6.49314 19.5459 6.62461 19.7334 6.80506 19.8645C6.9855 19.9955 7.20456 20.0624 7.42742 20.0547C7.65029 20.0469 7.86416 19.9649 8.03505 19.8216L11.035 17.7316C11.3075 17.5406 11.6323 17.4381 11.965 17.4381C12.2978 17.4381 12.6226 17.5406 12.895 17.7316L15.895 19.8216C16.0659 19.9649 16.2798 20.0469 16.5027 20.0547C16.7255 20.0624 16.9446 19.9955 17.125 19.8645C17.3055 19.7334 17.437 19.5459 17.4986 19.3315C17.5602 19.1172 17.5484 18.8885 17.465 18.6816L16.405 15.1716C16.3111 14.8535 16.3153 14.5144 16.417 14.1987C16.5186 13.8829 16.7131 13.6052 16.975 13.4016L19.975 11.1816Z" fill="#24394A"/>
</svg>
