<svg width="24" height="24" viewBox="0 0 24 24" fill="none" xmlns="http://www.w3.org/2000/svg">
<path d="M4.5 10H9.5C9.63261 10 9.75979 9.94732 9.85355 9.85355C9.94732 9.75979 10 9.63261 10 9.5V4.5C10 4.36739 9.94732 4.24021 9.85355 4.14645C9.75979 4.05268 9.63261 4 9.5 4H4.5C4.36739 4 4.24021 4.05268 4.14645 4.14645C4.05268 4.24021 4 4.36739 4 4.5V9.5C4 9.63261 4.05268 9.75979 4.14645 9.85355C4.24021 9.94732 4.36739 10 4.5 10ZM6 6H8V8H6V6Z" fill="#24394A"/>
<path d="M14 4.5V9.5C14 9.63261 14.0527 9.75979 14.1464 9.85355C14.2402 9.94732 14.3674 10 14.5 10H19.5C19.6326 10 19.7598 9.94732 19.8536 9.85355C19.9473 9.75979 20 9.63261 20 9.5V4.5C20 4.36739 19.9473 4.24021 19.8536 4.14645C19.7598 4.05268 19.6326 4 19.5 4H14.5C14.3674 4 14.2402 4.05268 14.1464 4.14645C14.0527 4.24021 14 4.36739 14 4.5ZM18 8H16V6H18V8Z" fill="#24394A"/>
<path d="M4.5 20H9.5C9.63261 20 9.75979 19.9473 9.85355 19.8536C9.94732 19.7598 10 19.6326 10 19.5V14.5C10 14.3674 9.94732 14.2402 9.85355 14.1464C9.75979 14.0527 9.63261 14 9.5 14H4.5C4.36739 14 4.24021 14.0527 4.14645 14.1464C4.05268 14.2402 4 14.3674 4 14.5V19.5C4 19.6326 4.05268 19.7598 4.14645 19.8536C4.24021 19.9473 4.36739 20 4.5 20ZM6 16H8V18H6V16Z" fill="#24394A"/>
<path d="M14.5 20H19.5C19.6326 20 19.7598 19.9473 19.8536 19.8536C19.9473 19.7598 20 19.6326 20 19.5V14.5C20 14.3674 19.9473 14.2402 19.8536 14.1464C19.7598 14.0527 19.6326 14 19.5 14H14.5C14.3674 14 14.2402 14.0527 14.1464 14.1464C14.0527 14.2402 14 14.3674 14 14.5V19.5C14 19.6326 14.0527 19.7598 14.1464 19.8536C14.2402 19.9473 14.3674 20 14.5 20ZM16 16H18V18H16V16Z" fill="#24394A"/>
</svg>
