<svg viewBox="0 0 24 24" fill="#24394A" xmlns="http://www.w3.org/2000/svg">
<path d="M19.5 5H10.5C10.2239 5 10 5.22386 10 5.5V6.5C10 6.77614 10.2239 7 10.5 7H19.5C19.7761 7 20 6.77614 20 6.5V5.5C20 5.22386 19.7761 5 19.5 5Z" />
<path d="M17.5 9H10.5C10.2239 9 10 9.22386 10 9.5V10.5C10 10.7761 10.2239 11 10.5 11H17.5C17.7761 11 18 10.7761 18 10.5V9.5C18 9.22386 17.7761 9 17.5 9Z" />
<path d="M15.5 13H10.5C10.2239 13 10 13.2239 10 13.5V14.5C10 14.7761 10.2239 15 10.5 15H15.5C15.7761 15 16 14.7761 16 14.5V13.5C16 13.2239 15.7761 13 15.5 13Z" />
<path d="M13.5 17H10.5C10.2239 17 10 17.2239 10 17.5V18.5C10 18.7761 10.2239 19 10.5 19H13.5C13.7761 19 14 18.7761 14 18.5V17.5C14 17.2239 13.7761 17 13.5 17Z" />
<path d="M6.50001 5H5.50001C5.3674 5 5.24022 5.05268 5.14645 5.14645C5.05268 5.24021 5.00001 5.36739 5.00001 5.5V16.5H4.00001C3.89993 16.4963 3.80113 16.5234 3.71691 16.5776C3.63269 16.6318 3.5671 16.7105 3.52897 16.8031C3.49084 16.8957 3.482 16.9978 3.50364 17.0956C3.52528 17.1933 3.57636 17.2821 3.65001 17.35L5.65001 19.35C5.6949 19.3978 5.74911 19.436 5.80931 19.462C5.86951 19.4881 5.93441 19.5015 6.00001 19.5015C6.0656 19.5015 6.1305 19.4881 6.1907 19.462C6.2509 19.436 6.30512 19.3978 6.35001 19.35L8.35001 17.35C8.42365 17.2821 8.47473 17.1933 8.49637 17.0956C8.51801 16.9978 8.50917 16.8957 8.47104 16.8031C8.43291 16.7105 8.36732 16.6318 8.2831 16.5776C8.19889 16.5234 8.10009 16.4963 8.00001 16.5H7.00001V5.5C7.00001 5.36739 6.94733 5.24021 6.85356 5.14645C6.75979 5.05268 6.63261 5 6.50001 5Z" />
</svg>
