<svg viewBox="0 0 24 24" fill="#24394A" xmlns="http://www.w3.org/2000/svg">
<path d="M17.5 19H6.5C6.22386 19 6 19.2239 6 19.5V20.5C6 20.7761 6.22386 21 6.5 21H17.5C17.7761 21 18 20.7761 18 20.5V19.5C18 19.2239 17.7761 19 17.5 19Z" />
<path d="M17.5 3H6.5C6.22386 3 6 3.22386 6 3.5V4.5C6 4.77614 6.22386 5 6.5 5H17.5C17.7761 5 18 4.77614 18 4.5V3.5C18 3.22386 17.7761 3 17.5 3Z" />
<path d="M19 6H5C4.46957 6 3.96086 6.21071 3.58579 6.58579C3.21071 6.96086 3 7.46957 3 8V14C3 15.0609 3.42143 16.0783 4.17157 16.8284C4.92172 17.5786 5.93913 18 7 18H17C18.0609 18 19.0783 17.5786 19.8284 16.8284C20.5786 16.0783 21 15.0609 21 14V8C21 7.46957 20.7893 6.96086 20.4142 6.58579C20.0391 6.21071 19.5304 6 19 6ZM19 14C19 14.5304 18.7893 15.0391 18.4142 15.4142C18.0391 15.7893 17.5304 16 17 16H7C6.46957 16 5.96086 15.7893 5.58579 15.4142C5.21071 15.0391 5 14.5304 5 14V8H19V14Z" />
</svg>
