<svg width="24" height="24" viewBox="0 0 24 24" fill="none" xmlns="http://www.w3.org/2000/svg">
<path d="M13 2.26999C12.696 2.09446 12.3511 2.00204 12 2.00204C11.6489 2.00204 11.304 2.09446 11 2.26999C9.18001 3.31999 3.22001 7.26999 3.00001 13.51C2.93261 14.7542 3.32394 15.9799 4.09987 16.9549C4.8758 17.9299 5.98241 18.5864 7.21001 18.8C7.92022 18.9068 8.64511 18.8594 9.33536 18.661C10.0256 18.4625 10.665 18.1177 11.21 17.65C11.5043 17.4196 11.7696 17.1543 12 16.86C12.2149 17.1514 12.4632 17.4166 12.74 17.65C13.285 18.1177 13.9244 18.4625 14.6147 18.661C15.3049 18.8594 16.0298 18.9068 16.74 18.8C17.9768 18.5974 19.0953 17.9456 19.8814 16.9694C20.6674 15.9933 21.0657 14.7615 21 13.51C20.78 7.24999 14.82 3.31999 13 2.26999ZM16.48 16.86C16.0499 16.9299 15.6097 16.9053 15.19 16.7879C14.7704 16.6705 14.3814 16.463 14.05 16.18C13.5766 15.7932 13.2286 15.2746 13.05 14.69C13.0012 14.4626 12.8747 14.2593 12.6922 14.1151C12.5096 13.9709 12.2826 13.8948 12.05 13.9H11.79C11.5575 13.8948 11.3304 13.9709 11.1479 14.1151C10.9653 14.2593 10.8388 14.4626 10.79 14.69C10.6114 15.2746 10.2634 15.7932 9.79001 16.18C9.47764 16.4415 9.11527 16.6367 8.725 16.7536C8.33472 16.8705 7.92473 16.9067 7.52001 16.86C6.76885 16.7214 6.09562 16.3095 5.63026 15.7038C5.16489 15.0981 4.94037 14.3415 5.00001 13.58C5.18001 8.33999 10.41 4.91999 12 3.99999C13.59 4.91999 18.82 8.33999 19 13.58C19.0597 14.3415 18.8351 15.0981 18.3698 15.7038C17.9044 16.3095 17.2312 16.7214 16.48 16.86Z" fill="#24394A"/>
<path d="M12.35 18.8C12.3051 18.7522 12.2509 18.714 12.1907 18.688C12.1305 18.6619 12.0656 18.6485 12 18.6485C11.9344 18.6485 11.8695 18.6619 11.8093 18.688C11.7491 18.714 11.6949 18.7522 11.65 18.8L9.44001 21.01C9.37149 21.0799 9.32499 21.1683 9.30627 21.2644C9.28755 21.3605 9.29743 21.4599 9.3347 21.5504C9.37196 21.6409 9.43497 21.7185 9.5159 21.7735C9.59684 21.8286 9.69215 21.8586 9.79001 21.86H14.21C14.3079 21.8586 14.4032 21.8286 14.4841 21.7735C14.5651 21.7185 14.6281 21.6409 14.6653 21.5504C14.7026 21.4599 14.7125 21.3605 14.6938 21.2644C14.675 21.1683 14.6285 21.0799 14.56 21.01L12.35 18.8Z" fill="#24394A"/>
</svg>
