<svg viewBox="0 0 24 24" fill="#24394A" xmlns="http://www.w3.org/2000/svg">
<path d="M20.5 6H16.87C16.6361 6.00472 16.4079 5.92725 16.2251 5.78107C16.0424 5.6349 15.9168 5.42928 15.87 5.2C15.696 4.57105 15.3217 4.01598 14.8037 3.61897C14.2858 3.22196 13.6526 3.00465 13 3H11C10.344 3.0003 9.7062 3.2156 9.18423 3.61295C8.66227 4.01029 8.28493 4.56776 8.11 5.2C8.06325 5.42928 7.93758 5.6349 7.75486 5.78107C7.57214 5.92725 7.34395 6.00472 7.11 6H3.5C3.36739 6 3.24021 6.05268 3.14645 6.14645C3.05268 6.24021 3 6.36739 3 6.5V17C3 18.0609 3.42143 19.0783 4.17157 19.8284C4.92172 20.5786 5.93913 21 7 21H17C18.0609 21 19.0783 20.5786 19.8284 19.8284C20.5786 19.0783 21 18.0609 21 17V6.5C21 6.36739 20.9473 6.24021 20.8536 6.14645C20.7598 6.05268 20.6326 6 20.5 6ZM11 5H13C13.2652 5 13.5196 5.10536 13.7071 5.29289C13.8946 5.48043 14 5.73478 14 6H10C10 5.73478 10.1054 5.48043 10.2929 5.29289C10.4804 5.10536 10.7348 5 11 5ZM19 17C19 17.5304 18.7893 18.0391 18.4142 18.4142C18.0391 18.7893 17.5304 19 17 19H7C6.46957 19 5.96086 18.7893 5.58579 18.4142C5.21071 18.0391 5 17.5304 5 17V8H19V17Z" />
<path d="M11 14.22V16C11 16.1326 11.0527 16.2598 11.1464 16.3536C11.2402 16.4473 11.3674 16.5 11.5 16.5H12.5C12.6326 16.5 12.7598 16.4473 12.8536 16.3536C12.9473 16.2598 13 16.1326 13 16V14.22C12.9963 14.0871 13.0212 13.9549 13.073 13.8325C13.1247 13.71 13.2021 13.6 13.3 13.51C13.6068 13.2423 13.8245 12.8874 13.9242 12.4926C14.0238 12.0979 14.0006 11.6821 13.8577 11.3009C13.7147 10.9197 13.4588 10.5912 13.1242 10.3593C12.7896 10.1273 12.3921 10.0031 11.985 10.0031C11.5779 10.0031 11.1804 10.1273 10.8458 10.3593C10.5112 10.5912 10.2553 10.9197 10.1123 11.3009C9.96938 11.6821 9.94618 12.0979 10.0458 12.4926C10.1455 12.8874 10.3632 13.2423 10.67 13.51C10.7699 13.6001 10.8507 13.7094 10.9074 13.8314C10.9641 13.9534 10.9956 14.0855 11 14.22Z" />
</svg>
