<svg viewBox="0 0 24 24" fill="#24394A" xmlns="http://www.w3.org/2000/svg">
<path d="M15.88 6.00001L17.59 6.43001L18 8.12001C18.0232 8.23551 18.0857 8.33942 18.1769 8.41407C18.268 8.48872 18.3822 8.52951 18.5 8.52951C18.6178 8.52951 18.732 8.48872 18.8232 8.41407C18.9143 8.33942 18.9768 8.23551 19 8.12001L19.42 6.41001L21.12 6.00001C21.2526 6.00001 21.3798 5.94733 21.4736 5.85356C21.5673 5.75979 21.62 5.63262 21.62 5.50001C21.62 5.3674 21.5673 5.24022 21.4736 5.14645C21.3798 5.05269 21.2526 5.00001 21.12 5.00001L19.41 4.57001L19 2.88001C18.969 2.77135 18.9034 2.67576 18.8132 2.6077C18.7229 2.53965 18.613 2.50284 18.5 2.50284C18.387 2.50284 18.2771 2.53965 18.1869 2.6077C18.0966 2.67576 18.031 2.77135 18 2.88001L17.58 4.59001L15.88 5.00001C15.7474 5.00001 15.6202 5.05269 15.5265 5.14645C15.4327 5.24022 15.38 5.3674 15.38 5.50001C15.38 5.63262 15.4327 5.75979 15.5265 5.85356C15.6202 5.94733 15.7474 6.00001 15.88 6.00001Z" />
<path d="M8.12001 18L6.41001 17.57L6.00001 15.88C5.96897 15.7713 5.90338 15.6758 5.81316 15.6077C5.72294 15.5396 5.61301 15.5028 5.50001 15.5028C5.387 15.5028 5.27707 15.5396 5.18686 15.6077C5.09664 15.6758 5.03105 15.7713 5.00001 15.88L4.58001 17.59L2.88001 18C2.7474 18 2.62022 18.0527 2.52645 18.1465C2.43269 18.2402 2.38001 18.3674 2.38001 18.5C2.38001 18.6326 2.43269 18.7598 2.52645 18.8536C2.62022 18.9473 2.7474 19 2.88001 19L4.59001 19.43L5.00001 21.12C5.02322 21.2355 5.08571 21.3394 5.17686 21.4141C5.26801 21.4887 5.38219 21.5295 5.50001 21.5295C5.61782 21.5295 5.73201 21.4887 5.82315 21.4141C5.9143 21.3394 5.97679 21.2355 6.00001 21.12L6.42001 19.41L8.12001 19C8.25262 19 8.37979 18.9473 8.47356 18.8536C8.56733 18.7598 8.62001 18.6326 8.62001 18.5C8.62001 18.3674 8.56733 18.2402 8.47356 18.1465C8.37979 18.0527 8.25262 18 8.12001 18Z" />
<path d="M21.24 11L14.62 9.38001L13 2.76001C12.9458 2.54378 12.8209 2.35186 12.6452 2.21473C12.4694 2.07759 12.2529 2.00311 12.03 2.00311C11.8071 2.00311 11.5906 2.07759 11.4148 2.21473C11.2391 2.35186 11.1142 2.54378 11.06 2.76001L9.38001 9.38001L2.76001 11C2.54378 11.0542 2.35186 11.1791 2.21473 11.3548C2.07759 11.5306 2.00311 11.7471 2.00311 11.97C2.00311 12.1929 2.07759 12.4094 2.21473 12.5852C2.35186 12.7609 2.54378 12.8858 2.76001 12.94L9.38001 14.59L11 21.24C11.0542 21.4562 11.1791 21.6482 11.3548 21.7853C11.5306 21.9224 11.7471 21.9969 11.97 21.9969C12.1929 21.9969 12.4094 21.9224 12.5852 21.7853C12.7609 21.6482 12.8858 21.4562 12.94 21.24L14.59 14.62L21.24 13C21.4562 12.9458 21.6482 12.8209 21.7853 12.6452C21.9224 12.4694 21.9969 12.2529 21.9969 12.03C21.9969 11.8071 21.9224 11.5906 21.7853 11.4148C21.6482 11.2391 21.4562 11.1142 21.24 11.06V11ZM13.56 12.8C13.3834 12.8438 13.2222 12.9349 13.0935 13.0635C12.9649 13.1922 12.8738 13.3534 12.83 13.53L12 16.88L11.17 13.56C11.1262 13.3834 11.0351 13.2222 10.9065 13.0935C10.7779 12.9649 10.6166 12.8738 10.44 12.83L7.12001 12L10.44 11.17C10.6166 11.1262 10.7779 11.0351 10.9065 10.9065C11.0351 10.7779 11.1262 10.6166 11.17 10.44L12 7.12001L12.83 10.44C12.8738 10.6166 12.9649 10.7779 13.0935 10.9065C13.2222 11.0351 13.3834 11.1262 13.56 11.17L16.88 12L13.56 12.8Z" />
<path d="M18.5 16.5C18.0056 16.5 17.5222 16.6466 17.1111 16.9213C16.7 17.196 16.3795 17.5865 16.1903 18.0433C16.0011 18.5001 15.9516 19.0028 16.048 19.4877C16.1445 19.9727 16.3826 20.4181 16.7322 20.7678C17.0819 21.1174 17.5273 21.3555 18.0123 21.452C18.4972 21.5484 18.9999 21.4989 19.4567 21.3097C19.9135 21.1205 20.304 20.8001 20.5787 20.3889C20.8534 19.9778 21 19.4945 21 19C21 18.337 20.7366 17.7011 20.2678 17.2322C19.7989 16.7634 19.163 16.5 18.5 16.5ZM18.5 19.5C18.4011 19.5 18.3044 19.4707 18.2222 19.4157C18.14 19.3608 18.0759 19.2827 18.0381 19.1913C18.0002 19.1 17.9903 18.9995 18.0096 18.9025C18.0289 18.8055 18.0765 18.7164 18.1465 18.6465C18.2164 18.5765 18.3055 18.5289 18.4025 18.5096C18.4995 18.4903 18.6 18.5002 18.6913 18.5381C18.7827 18.5759 18.8608 18.64 18.9157 18.7222C18.9707 18.8044 19 18.9011 19 19C19 19.1326 18.9473 19.2598 18.8536 19.3536C18.7598 19.4473 18.6326 19.5 18.5 19.5Z" />
<path d="M5.50001 8.00001C5.99446 8.00001 6.47781 7.85338 6.88893 7.57868C7.30006 7.30398 7.62049 6.91353 7.80971 6.45672C7.99893 5.9999 8.04843 5.49723 7.95197 5.01228C7.85551 4.52733 7.61741 4.08187 7.26777 3.73224C6.91814 3.38261 6.47269 3.14451 5.98773 3.04804C5.50278 2.95158 5.00011 3.00109 4.5433 3.19031C4.08648 3.37953 3.69604 3.69996 3.42133 4.11108C3.14663 4.5222 3.00001 5.00555 3.00001 5.50001C3.00001 6.16305 3.2634 6.79893 3.73224 7.26777C4.20108 7.73662 4.83697 8.00001 5.50001 8.00001ZM5.50001 5.00001C5.5989 5.00001 5.69557 5.02933 5.77779 5.08427C5.86002 5.13921 5.9241 5.2173 5.96195 5.30867C5.99979 5.40003 6.00969 5.50056 5.9904 5.59755C5.97111 5.69454 5.92349 5.78363 5.85356 5.85356C5.78363 5.92349 5.69454 5.97111 5.59755 5.9904C5.50056 6.00969 5.40003 5.99979 5.30867 5.96195C5.2173 5.9241 5.13921 5.86002 5.08427 5.77779C5.02933 5.69557 5.00001 5.5989 5.00001 5.50001C5.00001 5.3674 5.05269 5.24022 5.14645 5.14645C5.24022 5.05269 5.3674 5.00001 5.50001 5.00001Z" />
</svg>
