<svg viewBox="0 0 24 24" fill="#24394A" xmlns="http://www.w3.org/2000/svg">
<path d="M10.15 15.455L7.64997 12.955C7.60311 12.9085 7.56591 12.8532 7.54053 12.7923C7.51514 12.7314 7.50208 12.666 7.50208 12.6C7.50208 12.534 7.51514 12.4686 7.54053 12.4077C7.56591 12.3468 7.60311 12.2915 7.64997 12.245L8.34997 11.545C8.39646 11.4981 8.45176 11.4609 8.51269 11.4355C8.57362 11.4102 8.63897 11.3971 8.70497 11.3971C8.77098 11.3971 8.83633 11.4102 8.89726 11.4355C8.95819 11.4609 9.01349 11.4981 9.05997 11.545L10.5 12.985L14.94 8.54499C14.9865 8.49813 15.0418 8.46093 15.1027 8.43555C15.1636 8.41016 15.229 8.39709 15.295 8.39709C15.361 8.39709 15.4263 8.41016 15.4873 8.43555C15.5482 8.46093 15.6035 8.49813 15.65 8.54499L16.35 9.24499C16.3968 9.29148 16.434 9.34678 16.4594 9.40771C16.4848 9.46863 16.4979 9.53399 16.4979 9.59999C16.4979 9.666 16.4848 9.73135 16.4594 9.79228C16.434 9.85321 16.3968 9.90851 16.35 9.95499L10.85 15.455C10.8051 15.5028 10.7509 15.5409 10.6907 15.567C10.6305 15.5931 10.5656 15.6065 10.5 15.6065C10.4344 15.6065 10.3695 15.5931 10.3093 15.567C10.2491 15.5409 10.1949 15.5028 10.15 15.455Z" />
</svg>
