<svg viewBox="0 0 24 24" fill="#24394A" xmlns="http://www.w3.org/2000/svg">
<path d="M2 3.5V6.39C2.00122 6.98337 2.17494 7.56359 2.5 8.06L3.5 9.47C3.74536 9.87596 4.07661 10.2233 4.47049 10.4876C4.86437 10.7519 5.31133 10.9268 5.78 11C6.24313 11.0536 6.71237 11.0013 7.15236 10.8471C7.59234 10.693 7.99159 10.4409 8.32 10.11L9 9.41L9.68 10.09C10.2605 10.6716 11.0482 10.9989 11.87 11H12.13C12.9518 10.9989 13.7395 10.6716 14.32 10.09L15 9.41L15.68 10.09C16.0084 10.4209 16.4077 10.673 16.8476 10.8271C17.2876 10.9813 17.7569 11.0336 18.22 10.98C18.6958 10.916 19.1515 10.7474 19.5544 10.4863C19.9572 10.2253 20.2973 9.87816 20.55 9.47L21.5 8.06C21.8251 7.56359 21.9988 6.98337 22 6.39V3.5C22 3.36739 21.9473 3.24021 21.8536 3.14645C21.7598 3.05268 21.6326 3 21.5 3H2.5C2.36739 3 2.24021 3.05268 2.14645 3.14645C2.05268 3.24021 2 3.36739 2 3.5ZM20 6.39C20.0004 6.58944 19.9412 6.78446 19.83 6.95L18.83 8.51C18.7388 8.64528 18.619 8.7588 18.479 8.84249C18.339 8.92619 18.1822 8.97799 18.0199 8.99422C17.8576 9.01046 17.6937 8.99071 17.5399 8.9364C17.3861 8.88209 17.2461 8.79455 17.13 8.68L15.71 7.29C15.617 7.19627 15.5064 7.12188 15.3846 7.07111C15.2627 7.02034 15.132 6.9942 15 6.9942C14.868 6.9942 14.7373 7.02034 14.6154 7.07111C14.4936 7.12188 14.383 7.19627 14.29 7.29L12.91 8.68C12.7004 8.88242 12.4213 8.99693 12.13 9H11.87C11.5787 8.99693 11.2996 8.88242 11.09 8.68L9.71 7.29C9.61704 7.19627 9.50644 7.12188 9.38458 7.07111C9.26272 7.02034 9.13201 6.9942 9 6.9942C8.86799 6.9942 8.73728 7.02034 8.61542 7.07111C8.49356 7.12188 8.38296 7.19627 8.29 7.29L6.91 8.68C6.79387 8.79455 6.65391 8.88209 6.5001 8.9364C6.34628 8.99071 6.18239 9.01046 6.02008 8.99422C5.85777 8.97799 5.70103 8.92619 5.56101 8.84249C5.421 8.7588 5.30115 8.64528 5.21 8.51L4.17 7C4.04875 6.82045 3.98909 6.60638 4 6.39V5H20V6.39Z" />
<path d="M15 15.47H13.8C13.6947 15.4698 13.592 15.4371 13.506 15.3762C13.4201 15.3153 13.3551 15.2293 13.32 15.13L13 14C12.9342 13.7999 12.807 13.6257 12.6364 13.5022C12.4658 13.3787 12.2606 13.3123 12.05 13.3123C11.8394 13.3123 11.6342 13.3787 11.4636 13.5022C11.293 13.6257 11.1658 13.7999 11.1 14L10.73 15.14C10.6949 15.2393 10.6299 15.3253 10.544 15.3862C10.458 15.4471 10.3553 15.4798 10.25 15.48H9C8.78837 15.4792 8.58196 15.5456 8.41047 15.6696C8.23898 15.7937 8.11124 15.9689 8.04566 16.1701C7.98007 16.3713 7.98001 16.5881 8.04548 16.7894C8.11095 16.9906 8.23858 17.1659 8.41 17.29L9.41 18C9.49593 18.062 9.5604 18.1493 9.59445 18.2497C9.6285 18.35 9.63044 18.4585 9.6 18.56L9.22 19.7C9.15498 19.9018 9.15578 20.119 9.22229 20.3204C9.28879 20.5217 9.41756 20.6966 9.59 20.82C9.76032 20.9429 9.965 21.009 10.175 21.009C10.385 21.009 10.5897 20.9429 10.76 20.82L11.76 20.11C11.8452 20.0511 11.9464 20.0195 12.05 20.0195C12.1536 20.0195 12.2548 20.0511 12.34 20.11L13.34 20.82C13.5103 20.9429 13.715 21.009 13.925 21.009C14.135 21.009 14.3397 20.9429 14.51 20.82C14.6824 20.6966 14.8112 20.5217 14.8777 20.3204C14.9442 20.119 14.945 19.9018 14.88 19.7L14.5 18.56C14.4696 18.4585 14.4715 18.35 14.5056 18.2497C14.5396 18.1493 14.6041 18.062 14.69 18L15.69 17.29C15.8766 17.1639 16.0152 16.9784 16.0832 16.7637C16.1513 16.549 16.1449 16.3176 16.065 16.107C15.9852 15.8964 15.8366 15.7189 15.6433 15.6033C15.45 15.4877 15.2233 15.4407 15 15.47Z" />
<path d="M7 20.46C6.99947 20.5334 6.98309 20.6059 6.95198 20.6724C6.92087 20.7389 6.87576 20.7979 6.81974 20.8454C6.76372 20.8929 6.69811 20.9277 6.62739 20.9475C6.55668 20.9672 6.48252 20.9715 6.41 20.96C5.46121 20.8185 4.59487 20.3408 3.96892 19.6138C3.34297 18.8869 2.9991 17.9593 3 17V12.5C3 12.3674 3.05268 12.2402 3.14645 12.1464C3.24022 12.0527 3.36739 12 3.5 12H4.5C4.63261 12 4.75979 12.0527 4.85355 12.1464C4.94732 12.2402 5 12.3674 5 12.5V17C4.99144 17.4707 5.14921 17.9294 5.44554 18.2952C5.74187 18.6611 6.15776 18.9106 6.62 19C6.72924 19.027 6.82617 19.0901 6.89513 19.179C6.96409 19.2679 7.00104 19.3775 7 19.49V20.46Z" />
<path d="M17 20.46V19.46C16.999 19.3475 17.0359 19.2379 17.1049 19.149C17.1738 19.0601 17.2708 18.997 17.38 18.97C17.8371 18.8815 18.249 18.6364 18.5448 18.2767C18.8405 17.9171 19.0015 17.4656 19 17V12.5C19 12.3674 19.0527 12.2402 19.1464 12.1464C19.2402 12.0527 19.3674 12 19.5 12H20.5C20.6326 12 20.7598 12.0527 20.8536 12.1464C20.9473 12.2402 21 12.3674 21 12.5V17C21.0106 17.9661 20.6711 18.9034 20.0442 19.6387C19.4174 20.374 18.5456 20.8575 17.59 21C17.514 21.0123 17.4363 21.0072 17.3626 20.9851C17.2889 20.9631 17.2211 20.9247 17.1644 20.8727C17.1076 20.8208 17.0633 20.7567 17.0349 20.6852C17.0064 20.6137 16.9945 20.5367 17 20.46Z" />
</svg>
