<svg width="24" height="24" viewBox="0 0 24 24" fill="none" xmlns="http://www.w3.org/2000/svg">
<path d="M9.73013 8.69499C8.62013 9.47499 8.00013 10.685 8.00013 11.995C8.00013 13.065 8.42013 14.065 9.17013 14.825C9.92013 15.585 10.9301 15.995 12.0001 15.995C13.0701 15.995 14.0701 15.575 14.8301 14.825C15.5901 14.075 16.0001 13.065 16.0001 11.995C16.0001 10.685 15.3801 9.47499 14.2701 8.69499C12.9301 7.75499 11.0701 7.75499 9.73013 8.69499ZM13.4101 13.405C12.6501 14.165 11.3401 14.165 10.5801 13.405C10.2001 13.025 9.99013 12.525 9.99013 11.995C9.99013 11.465 10.2001 10.955 10.5801 10.585C10.9601 10.215 11.4601 9.995 11.9901 9.995C12.5201 9.995 13.0301 10.205 13.4001 10.585C13.7701 10.965 13.9901 11.465 13.9901 11.995C13.9901 12.525 13.7801 13.035 13.4001 13.405H13.4101Z" fill="#24394A"/>
<path d="M22.8301 11.445C22.6501 11.185 18.4601 4.995 12.0001 4.995C5.54013 4.995 1.34013 11.175 1.17013 11.445C0.950127 11.785 0.950127 12.215 1.17013 12.555C1.35013 12.815 5.54013 19.005 12.0001 19.005C18.4601 19.005 22.6601 12.825 22.8301 12.555C23.0501 12.215 23.0501 11.785 22.8301 11.445ZM12.0001 16.995C7.96013 16.995 4.83013 13.885 3.51013 12.315C3.35013 12.125 3.35013 11.855 3.51013 11.665C4.83013 10.095 7.95013 6.985 12.0001 6.985C16.0501 6.985 19.1701 10.095 20.4901 11.665C20.6501 11.855 20.6501 12.125 20.4901 12.315C19.1701 13.885 16.0501 16.995 12.0001 16.995Z" fill="#24394A"/>
</svg>
