<svg width="24" height="24" viewBox="0 0 24 24" fill="none" xmlns="http://www.w3.org/2000/svg">
<path d="M10.1479 17.5579L5.1479 12.5579C5.10103 12.5114 5.06384 12.4561 5.03845 12.3952C5.01307 12.3343 5 12.2689 5 12.2029C5 12.1369 5.01307 12.0715 5.03845 12.0106C5.06384 11.9497 5.10103 11.8944 5.1479 11.8479L5.8479 11.1479C5.89438 11.101 5.94968 11.0638 6.01061 11.0385C6.07154 11.0131 6.13689 11 6.2029 11C6.26891 11 6.33426 11.0131 6.39519 11.0385C6.45612 11.0638 6.51142 11.101 6.5579 11.1479L10.4979 15.0879L18.4379 7.1479C18.4844 7.10103 18.5397 7.06384 18.6006 7.03845C18.6615 7.01307 18.7269 7 18.7929 7C18.8589 7 18.9243 7.01307 18.9852 7.03845C19.0461 7.06384 19.1014 7.10103 19.1479 7.1479L19.8479 7.8479C19.8948 7.89438 19.932 7.94968 19.9573 8.01061C19.9827 8.07154 19.9958 8.13689 19.9958 8.2029C19.9958 8.26891 19.9827 8.33426 19.9573 8.39519C19.932 8.45612 19.8948 8.51142 19.8479 8.5579L10.8479 17.5579C10.803 17.6057 10.7488 17.6439 10.6886 17.6699C10.6284 17.696 10.5635 17.7094 10.4979 17.7094C10.4323 17.7094 10.3674 17.696 10.3072 17.6699C10.247 17.6439 10.1928 17.6057 10.1479 17.5579Z" fill="#24394A"/>
</svg>
