<svg width="24" height="24" viewBox="0 0 24 24" fill="none" xmlns="http://www.w3.org/2000/svg">
<path d="M13.55 17.14C13.5497 16.8687 13.6045 16.6002 13.7112 16.3508C13.8179 16.1014 13.9742 15.8763 14.1707 15.6892C14.3671 15.5021 14.5996 15.357 14.8539 15.2626C15.1082 15.1681 15.3791 15.1264 15.65 15.14C15.8664 15.123 16.0839 15.1518 16.2883 15.2248C16.4928 15.2977 16.6795 15.413 16.8362 15.5631C16.993 15.7132 17.1162 15.8948 17.1978 16.0959C17.2795 16.297 17.3177 16.5131 17.31 16.73C17.3103 17.0013 17.2555 17.2698 17.1488 17.5192C17.0421 17.7686 16.8857 17.9937 16.6893 18.1808C16.4929 18.3679 16.2604 18.513 16.0061 18.6075C15.7518 18.7019 15.4809 18.7436 15.21 18.73C14.994 18.7455 14.7771 18.7155 14.5734 18.642C14.3697 18.5685 14.1836 18.4531 14.0272 18.3033C13.8708 18.1535 13.7475 17.9726 13.6653 17.7722C13.5831 17.5719 13.5439 17.3565 13.55 17.14Z" fill="#24394A"/>
<path d="M13.14 9.65001C13.36 8.24001 13.68 7.42001 14.27 7.24001C14.9487 7.42369 15.6471 7.52443 16.35 7.54001C18.01 7.54001 19.53 6.83001 20.86 4.21001C20.5868 4.46546 20.2603 4.65715 19.9041 4.77127C19.5479 4.8854 19.1708 4.91912 18.8 4.87001C16.45 4.86001 12 3.70001 9.14999 3.70001C6.29999 3.70001 3.21999 4.54001 3.14999 7.70001C3.15641 8.02655 3.22779 8.34854 3.35996 8.6472C3.49213 8.94586 3.68244 9.21521 3.91981 9.43955C4.15717 9.66388 4.43683 9.8387 4.74247 9.95381C5.04811 10.0689 5.37362 10.122 5.69999 10.11C5.98854 10.1407 6.28031 10.1107 6.55656 10.0219C6.83281 9.93312 7.08743 9.78751 7.30405 9.59444C7.52066 9.40136 7.69448 9.16511 7.81434 8.90085C7.9342 8.63659 7.99744 8.35017 7.99999 8.06001C7.99102 7.75742 7.89071 7.46462 7.71222 7.2201C7.53374 6.97558 7.28546 6.79079 6.99999 6.69001C6.81796 6.91507 6.58787 7.09655 6.32659 7.22113C6.06531 7.34572 5.77946 7.41025 5.48999 7.41001C5.29787 7.4224 5.10526 7.39502 4.92419 7.3296C4.74312 7.26418 4.5775 7.16211 4.43766 7.02978C4.29782 6.89745 4.18678 6.73771 4.11148 6.56052C4.03617 6.38334 3.99822 6.19253 3.99999 6.00001C3.99999 5.09001 4.71999 4.66001 5.86999 4.66001C8.21999 4.66001 11.39 6.47001 14.24 7.22001C12.8 7.30001 9.99999 7.90001 9.62999 10.14L8.76999 15.35C8.45999 17.35 8.26999 18.35 6.48999 18.35C8.43999 18.5 9.99999 20 11.34 20.26C12.079 20.4079 12.8465 20.2722 13.49 19.88C12.18 19.5 11.68 18.38 11.94 16.88L13.14 9.65001Z" fill="#24394A"/>
</svg>
