<svg width="24" height="24" viewBox="0 0 24 24" fill="none" xmlns="http://www.w3.org/2000/svg">
<path d="M14 4C14 3.73478 13.8946 3.48043 13.7071 3.29289C13.5196 3.10536 13.2652 3 13 3H11C10.7348 3 10.4804 3.10536 10.2929 3.29289C10.1054 3.48043 10 3.73478 10 4C10 4.26522 9.89464 4.51957 9.70711 4.70711C9.51957 4.89464 9.26522 5 9 5H6.5C6.36739 5 6.24021 5.05268 6.14645 5.14645C6.05268 5.24021 6 5.36739 6 5.5V6.5C6 6.63261 6.05268 6.75979 6.14645 6.85355C6.24021 6.94732 6.36739 7 6.5 7H17.5C17.6326 7 17.7598 6.94732 17.8536 6.85355C17.9473 6.75979 18 6.63261 18 6.5V5.5C18 5.36739 17.9473 5.24021 17.8536 5.14645C17.7598 5.05268 17.6326 5 17.5 5H15C14.7348 5 14.4804 4.89464 14.2929 4.70711C14.1054 4.51957 14 4.26522 14 4Z" fill="#24394A"/>
<path d="M6 17C6 18.0609 6.42143 19.0783 7.17157 19.8284C7.92172 20.5786 8.93913 21 10 21H14C15.0609 21 16.0783 20.5786 16.8284 19.8284C17.5786 19.0783 18 18.0609 18 17V8.5C18 8.36739 17.9473 8.24021 17.8536 8.14645C17.7598 8.05268 17.6326 8 17.5 8H6.5C6.36739 8 6.24021 8.05268 6.14645 8.14645C6.05268 8.24021 6 8.36739 6 8.5V17ZM8 10H16V17C16 17.5304 15.7893 18.0391 15.4142 18.4142C15.0391 18.7893 14.5304 19 14 19H10C9.46957 19 8.96086 18.7893 8.58579 18.4142C8.21071 18.0391 8 17.5304 8 17V10Z" fill="#24394A"/>
</svg>
