<svg width="24" height="24" viewBox="0 0 24 24" fill="none" xmlns="http://www.w3.org/2000/svg">
<path d="M5.5 2.5V18C5.5 20.21 7.29 22 9.5 22H14.5C16.71 22 18.5 20.21 18.5 18V2.5C18.5 2.22 18.28 2 18 2H6C5.72 2 5.5 2.22 5.5 2.5ZM10 12.21C9.87 12.14 9.74 12.09 9.59 12.09C9.04 12.09 8.59 12.65 8.59 13.34C8.59 14.03 9.04 14.59 9.59 14.59C9.74 14.59 9.88 14.54 10 14.47V16.14C10 16.9 9.57 17.59 8.89 17.93L7.59 18.58C7.53 18.39 7.49 18.2 7.49 18V5.37L9.71 6.48C9.88 6.56 9.99 6.74 9.99 6.93V12.21H10ZM16.5 18C16.5 19.1 15.6 20 14.5 20H9.5C9.42 20 9.35 19.99 9.28 19.98L9.79 19.73C11.15 19.05 12 17.67 12 16.15V5.69C12 5.5 11.89 5.33 11.72 5.24L9.23 4H16.49V18H16.5Z" fill="#24394A"/>
</svg>
