<svg viewBox="0 0 24 24" fill="#24394A" xmlns="http://www.w3.org/2000/svg">
<path d="M20.5 12H19.5C19.22 12 19 12.22 19 12.5V17C19 18.1 18.1 19 17 19H7C5.9 19 5 18.1 5 17V12.5C5 12.22 4.78 12 4.5 12H3.5C3.22 12 3 12.22 3 12.5V17C3 19.21 4.79 21 7 21H17C19.21 21 21 19.21 21 17V12.5C21 12.22 20.78 12 20.5 12Z" />
<path d="M21.5 3H2.5C2.22 3 2 3.22 2 3.5V6.39C2 6.98 2.18 7.56 2.5 8.05L3.54 9.61C4 10.3 4.72 10.77 5.52 10.93C5.83 10.99 6.13 10.75 6.13 10.43V9.4C6.13 9.18 5.98 9 5.77 8.93C5.54 8.85 5.34 8.7 5.21 8.5L4.17 6.94C4.06 6.78 4 6.58 4 6.38V4.99H20V6.38C20 6.58 19.94 6.77 19.83 6.93L18.79 8.49C18.65 8.7 18.45 8.85 18.23 8.92C18.02 8.99 17.87 9.17 17.87 9.39V10.42C17.87 10.74 18.16 10.98 18.48 10.92C19.28 10.76 19.99 10.29 20.46 9.6L21.5 8.04C21.83 7.55 22 6.97 22 6.38V3.5C22 3.22 21.78 3 21.5 3Z" />
<path d="M7.65 15.65L8.36 16.36C8.56 16.56 8.87 16.56 9.07 16.36L11.66 13.77C11.86 13.57 12.17 13.57 12.37 13.77L14.96 16.36C15.16 16.56 15.47 16.56 15.67 16.36L16.38 15.65C16.58 15.45 16.58 15.14 16.38 14.94L13.79 12.35C13.59 12.15 13.59 11.84 13.79 11.64L16.38 9.05C16.58 8.85 16.58 8.54 16.38 8.34L15.67 7.63C15.47 7.43 15.16 7.43 14.96 7.63L12.37 10.22C12.17 10.42 11.86 10.42 11.66 10.22L9.07 7.63C8.87 7.43 8.56 7.43 8.36 7.63L7.65 8.34C7.45 8.54 7.45 8.85 7.65 9.05L10.24 11.64C10.44 11.84 10.44 12.15 10.24 12.35L7.65 14.94C7.45 15.14 7.45 15.45 7.65 15.65Z" />
</svg>
