<svg viewBox="0 0 24 24" fill="#24394A" xmlns="http://www.w3.org/2000/svg">
<path d="M20 16.41C19.9949 15.3553 19.663 14.3282 19.05 13.47C17.7323 11.5945 17.0172 9.36207 17 7.07C17.0093 5.74392 16.4914 4.46846 15.5603 3.52422C14.6292 2.57997 13.3611 2.04429 12.035 2.035C10.7089 2.02572 9.43346 2.5436 8.48921 3.47472C7.54497 4.40584 7.00928 5.67392 7 7C7.01303 9.3108 6.31478 11.5697 5 13.47C4.36915 14.3222 4.01961 15.3499 4 16.41V18.5C4 18.6326 4.05268 18.7598 4.14645 18.8536C4.24021 18.9473 4.36739 19 4.5 19H8.56C8.73451 19.0011 8.90571 19.0478 9.05658 19.1355C9.20746 19.2232 9.33274 19.3489 9.42 19.5C9.68563 19.9477 10.0632 20.3185 10.5155 20.5761C10.9679 20.8337 11.4795 20.9691 12 20.9691C12.5205 20.9691 13.0321 20.8337 13.4845 20.5761C13.9368 20.3185 14.3144 19.9477 14.58 19.5C14.6673 19.3489 14.7925 19.2232 14.9434 19.1355C15.0943 19.0478 15.2655 19.0011 15.44 19H19.5C19.6326 19 19.7598 18.9473 19.8536 18.8536C19.9473 18.7598 20 18.6326 20 18.5V16.41ZM12 19C11.8022 19 11.6089 18.9414 11.4444 18.8315C11.28 18.7216 11.1518 18.5654 11.0761 18.3827C11.0004 18.2 10.9806 17.9989 11.0192 17.8049C11.0578 17.6109 11.153 17.4327 11.2929 17.2929C11.4327 17.153 11.6109 17.0578 11.8049 17.0192C11.9989 16.9806 12.2 17.0004 12.3827 17.0761C12.5654 17.1518 12.7216 17.28 12.8315 17.4444C12.9414 17.6089 13 17.8022 13 18C13 18.2652 12.8946 18.5196 12.7071 18.7071C12.5196 18.8946 12.2652 19 12 19ZM18 17H15.44C15.2655 16.999 15.0943 16.9522 14.9434 16.8645C14.7925 16.7768 14.6673 16.6511 14.58 16.5C14.3144 16.0523 13.9368 15.6815 13.4845 15.4239C13.0321 15.1663 12.5205 15.0309 12 15.0309C11.4795 15.0309 10.9679 15.1663 10.5155 15.4239C10.0632 15.6815 9.68563 16.0523 9.42 16.5C9.33274 16.6511 9.20746 16.7768 9.05658 16.8645C8.90571 16.9522 8.73451 16.999 8.56 17H6V16.41C6.00412 15.7662 6.21052 15.14 6.59 14.62C8.12765 12.4297 8.96768 9.82595 9 7.15C8.98729 6.44691 9.21248 5.76014 9.63904 5.20107C10.0656 4.64201 10.6685 4.24344 11.35 4.07C11.7886 3.97266 12.2435 3.97507 12.681 4.07706C13.1186 4.17905 13.5276 4.37802 13.878 4.65926C14.2283 4.94051 14.5111 5.29686 14.7053 5.702C14.8995 6.10714 15.0002 6.55072 15 7C15.0031 9.72701 15.8445 12.3871 17.41 14.62C17.7895 15.14 17.9959 15.7662 18 16.41V17Z" />
</svg>
