<svg viewBox="0 0 24 24" fill="#24394A" xmlns="http://www.w3.org/2000/svg">
<path d="M6.5 14H5.5C5.22386 14 5 14.2239 5 14.5V19.5C5 19.7762 5.22386 20 5.5 20H6.5C6.77614 20 7 19.7762 7 19.5V14.5C7 14.2239 6.77614 14 6.5 14Z" />
<path d="M10.5 11H9.5C9.22386 11 9 11.2239 9 11.5V19.5C9 19.7762 9.22386 20 9.5 20H10.5C10.7761 20 11 19.7762 11 19.5V11.5C11 11.2239 10.7761 11 10.5 11Z" />
<path d="M14.5 14H13.5C13.2239 14 13 14.2239 13 14.5V19.5C13 19.7762 13.2239 20 13.5 20H14.5C14.7761 20 15 19.7762 15 19.5V14.5C15 14.2239 14.7761 14 14.5 14Z" />
<path d="M18.5 11H17.5C17.2239 11 17 11.2239 17 11.5V19.5C17 19.7762 17.2239 20 17.5 20H18.5C18.7761 20 19 19.7762 19 19.5V11.5C19 11.2239 18.7761 11 18.5 11Z" />
<path d="M19.5 4.00001H17.21C17.1113 3.99943 17.0146 4.02808 16.9322 4.08236C16.8497 4.13663 16.7852 4.2141 16.7467 4.305C16.7082 4.3959 16.6974 4.49616 16.7158 4.59315C16.7342 4.69014 16.7809 4.77951 16.85 4.85001L17.29 5.29001L14 8.59001L10.35 4.94001C10.3051 4.89218 10.2509 4.85406 10.1907 4.828C10.1305 4.80194 10.0656 4.78849 10 4.78849C9.9344 4.78849 9.8695 4.80194 9.80931 4.828C9.74911 4.85406 9.69489 4.89218 9.65 4.94001L5.58 9.00001H5.5C5.20333 9.00001 4.91332 9.08798 4.66665 9.2528C4.41997 9.41763 4.22771 9.65189 4.11418 9.92598C4.00065 10.2001 3.97094 10.5017 4.02882 10.7926C4.0867 11.0836 4.22956 11.3509 4.43934 11.5607C4.64912 11.7704 4.91639 11.9133 5.20737 11.9712C5.49834 12.0291 5.79994 11.9994 6.07403 11.8858C6.34811 11.7723 6.58238 11.58 6.74721 11.3334C6.91203 11.0867 7 10.7967 7 10.5C7 10.5 7 10.45 7 10.42L10 7.42001L13.65 11.07C13.6949 11.1178 13.7491 11.156 13.8093 11.182C13.8695 11.2081 13.9344 11.2215 14 11.2215C14.0656 11.2215 14.1305 11.2081 14.1907 11.182C14.2509 11.156 14.3051 11.1178 14.35 11.07L18.71 6.72001L19.15 7.16001C19.2211 7.22976 19.3114 7.2767 19.4093 7.29479C19.5073 7.31288 19.6084 7.30131 19.6997 7.26155C19.7911 7.2218 19.8684 7.15568 19.9219 7.07167C19.9754 6.98765 20.0026 6.88958 20 6.79001V4.50001C20 4.3674 19.9473 4.24022 19.8536 4.14646C19.7598 4.05269 19.6326 4.00001 19.5 4.00001Z" />
</svg>
