<svg width="24" height="24" viewBox="0 0 24 24" fill="none" xmlns="http://www.w3.org/2000/svg">
<path d="M13 4.5H11C10.7239 4.5 10.5 4.72386 10.5 5V7C10.5 7.27614 10.7239 7.5 11 7.5H13C13.2761 7.5 13.5 7.27614 13.5 7V5C13.5 4.72386 13.2761 4.5 13 4.5Z" fill="#24394A"/>
<path d="M13 10.5H11C10.7239 10.5 10.5 10.7239 10.5 11V13C10.5 13.2761 10.7239 13.5 11 13.5H13C13.2761 13.5 13.5 13.2761 13.5 13V11C13.5 10.7239 13.2761 10.5 13 10.5Z" fill="#24394A"/>
<path d="M13 16.5H11C10.7239 16.5 10.5 16.7239 10.5 17V19C10.5 19.2761 10.7239 19.5 11 19.5H13C13.2761 19.5 13.5 19.2761 13.5 19V17C13.5 16.7239 13.2761 16.5 13 16.5Z" fill="#24394A"/>
</svg>
