<svg viewBox="0 0 24 24" fill="#24394A" xmlns="http://www.w3.org/2000/svg">
<path d="M19 17C19 17.5304 18.7893 18.0391 18.4142 18.4142C18.0391 18.7893 17.5304 19 17 19H7C6.46957 19 5.96086 18.7893 5.58579 18.4142C5.21071 18.0391 5 17.5304 5 17V5.00001H14.5C14.6326 5.00001 14.7598 4.94733 14.8536 4.85356C14.9473 4.75979 15 4.63262 15 4.50001V3.50001C15 3.3674 14.9473 3.24022 14.8536 3.14646C14.7598 3.05269 14.6326 3.00001 14.5 3.00001H3.5C3.36739 3.00001 3.24021 3.05269 3.14645 3.14646C3.05268 3.24022 3 3.3674 3 3.50001V17C3 18.0609 3.42143 19.0783 4.17157 19.8284C4.92172 20.5786 5.93913 21 7 21H17C18.0609 21 19.0783 20.5786 19.8284 19.8284C20.5786 19.0783 21 18.0609 21 17V9.50001C21 9.3674 20.9473 9.24022 20.8536 9.14645C20.7598 9.05269 20.6326 9.00001 20.5 9.00001H19.5C19.3674 9.00001 19.2402 9.05269 19.1464 9.14645C19.0527 9.24022 19 9.3674 19 9.50001V17Z" />
<path d="M13.41 9.88001L14.12 10.59C14.2139 10.6806 14.3395 10.7308 14.47 10.73C14.6035 10.7313 14.7324 10.6812 14.83 10.59L19.07 6.34001C19.1178 6.29512 19.156 6.2409 19.182 6.1807C19.2081 6.12051 19.2215 6.05561 19.2215 5.99001C19.2215 5.92441 19.2081 5.85951 19.182 5.79931C19.156 5.73912 19.1178 5.6849 19.07 5.64001L18.36 4.93001C18.3151 4.88218 18.2609 4.84406 18.2007 4.818C18.1405 4.79193 18.0756 4.77849 18.01 4.77849C17.9444 4.77849 17.8795 4.79193 17.8193 4.818C17.7591 4.84406 17.7049 4.88218 17.66 4.93001L13.41 9.17001C13.3178 9.26516 13.2662 9.39248 13.2662 9.52501C13.2662 9.65754 13.3178 9.78486 13.41 9.88001Z" />
<path d="M21.19 3.51001L20.49 2.81001C20.4435 2.76314 20.3882 2.72595 20.3273 2.70056C20.2664 2.67518 20.201 2.66211 20.135 2.66211C20.069 2.66211 20.0036 2.67518 19.9427 2.70056C19.8818 2.72595 19.8265 2.76314 19.78 2.81001L19.07 3.51001C18.9778 3.60516 18.9262 3.73248 18.9262 3.86501C18.9262 3.99754 18.9778 4.12486 19.07 4.22001L19.78 4.93001C19.8254 4.9771 19.8797 5.01464 19.9398 5.0404C19.9999 5.06616 20.0646 5.07963 20.13 5.08001C20.2651 5.07968 20.3946 5.02573 20.49 4.93001L21.19 4.22001C21.2369 4.17353 21.2741 4.11823 21.2994 4.0573C21.3248 3.99637 21.3379 3.93101 21.3379 3.86501C21.3379 3.799 21.3248 3.73365 21.2994 3.67272C21.2741 3.61179 21.2369 3.55649 21.19 3.51001Z" />
<path d="M12.71 10.59C12.6509 10.5274 12.5763 10.4816 12.4938 10.457C12.4113 10.4324 12.3237 10.43 12.24 10.45C12.1568 10.4696 12.08 10.5103 12.017 10.5681C11.9539 10.6258 11.9068 10.6988 11.88 10.78L11.53 11.84C11.4984 11.9275 11.493 12.0223 11.5143 12.1128C11.5356 12.2034 11.5827 12.2858 11.65 12.35C11.6946 12.398 11.7489 12.4362 11.8091 12.462C11.8694 12.4879 11.9344 12.5008 12 12.5C12.0529 12.5096 12.1071 12.5096 12.16 12.5L13.22 12.15C13.3012 12.1232 13.3742 12.0761 13.4319 12.013C13.4897 11.95 13.5304 11.8732 13.55 11.79C13.57 11.7063 13.5676 11.6187 13.543 11.5362C13.5185 11.4537 13.4726 11.3791 13.41 11.32L12.71 10.59Z" />
</svg>
