<svg width="24" height="24" viewBox="0 0 24 24" fill="none" xmlns="http://www.w3.org/2000/svg">
<path d="M17 11.71V12.71C17 12.8426 17.0527 12.9698 17.1464 13.0635C17.2402 13.1573 17.3674 13.21 17.5 13.21H19V17.21C19 17.7404 18.7893 18.2491 18.4142 18.6242C18.0391 18.9993 17.5304 19.21 17 19.21H7C6.46957 19.21 5.96086 18.9993 5.58579 18.6242C5.21071 18.2491 5 17.7404 5 17.21V13.21H6.5C6.63261 13.21 6.75979 13.1573 6.85355 13.0635C6.94732 12.9698 7 12.8426 7 12.71V11.71C7 11.5774 6.94732 11.4502 6.85355 11.3564C6.75979 11.2627 6.63261 11.21 6.5 11.21H3.5C3.36739 11.21 3.24021 11.2627 3.14645 11.3564C3.05268 11.4502 3 11.5774 3 11.71V17.21C3 18.2709 3.42143 19.2883 4.17157 20.0384C4.92172 20.7886 5.93913 21.21 7 21.21H17C18.0609 21.21 19.0783 20.7886 19.8284 20.0384C20.5786 19.2883 21 18.2709 21 17.21V11.71C21 11.5774 20.9473 11.4502 20.8536 11.3564C20.7598 11.2627 20.6326 11.21 20.5 11.21H17.5C17.3674 11.21 17.2402 11.2627 17.1464 11.3564C17.0527 11.4502 17 11.5774 17 11.71Z" fill="#24394A"/>
<path d="M11 6.61999V14.71C11 14.8426 11.0527 14.9698 11.1464 15.0635C11.2402 15.1573 11.3674 15.21 11.5 15.21H12.5C12.6326 15.21 12.7598 15.1573 12.8536 15.0635C12.9473 14.9698 13 14.8426 13 14.71V6.61999L14.94 8.55999C14.9865 8.60686 15.0418 8.64405 15.1027 8.66944C15.1636 8.69482 15.229 8.70789 15.295 8.70789C15.361 8.70789 15.4264 8.69482 15.4873 8.66944C15.5482 8.64405 15.6035 8.60686 15.65 8.55999L16.35 7.85999C16.3969 7.81351 16.4341 7.75821 16.4594 7.69728C16.4848 7.63635 16.4979 7.571 16.4979 7.50499C16.4979 7.43899 16.4848 7.37363 16.4594 7.3127C16.4341 7.25177 16.3969 7.19647 16.35 7.14999L12.35 3.14999C12.3051 3.10216 12.2509 3.06404 12.1907 3.03798C12.1305 3.01192 12.0656 2.99847 12 2.99847C11.9344 2.99847 11.8695 3.01192 11.8093 3.03798C11.7491 3.06404 11.6949 3.10216 11.65 3.14999L7.65 7.14999C7.60314 7.19647 7.56594 7.25177 7.54055 7.3127C7.51517 7.37363 7.5021 7.43899 7.5021 7.50499C7.5021 7.571 7.51517 7.63635 7.54055 7.69728C7.56594 7.75821 7.60314 7.81351 7.65 7.85999L8.35 8.55999C8.39648 8.60686 8.45178 8.64405 8.51271 8.66944C8.57364 8.69482 8.63899 8.70789 8.705 8.70789C8.77101 8.70789 8.83636 8.69482 8.89729 8.66944C8.95822 8.64405 9.01352 8.60686 9.06 8.55999L11 6.61999Z" fill="#24394A"/>
</svg>
