<svg width="24" height="24" viewBox="0 0 24 24" fill="none" xmlns="http://www.w3.org/2000/svg">
<path d="M12.5 4H11.5C11.2239 4 11 4.22386 11 4.5V14.5C11 14.7761 11.2239 15 11.5 15H12.5C12.7761 15 13 14.7761 13 14.5V4.5C13 4.22386 12.7761 4 12.5 4Z" fill="#24394A"/>
<path d="M9.5 18H10.5C10.6326 18 10.7598 18.0527 10.8536 18.1464C10.9473 18.2402 11 18.3674 11 18.5V19.5C11 19.6326 11.0527 19.7598 11.1464 19.8536C11.2402 19.9473 11.3674 20 11.5 20H12.5C12.6326 20 12.7598 19.9473 12.8536 19.8536C12.9473 19.7598 13 19.6326 13 19.5V18.5C13 18.3674 13.0527 18.2402 13.1464 18.1464C13.2402 18.0527 13.3674 18 13.5 18H14.5C14.6326 18 14.7598 17.9473 14.8536 17.8536C14.9473 17.7598 15 17.6326 15 17.5V16.5C15 16.3674 14.9473 16.2402 14.8536 16.1464C14.7598 16.0527 14.6326 16 14.5 16H9.5C9.36739 16 9.24021 16.0527 9.14645 16.1464C9.05268 16.2402 9 16.3674 9 16.5V17.5C9 17.6326 9.05268 17.7598 9.14645 17.8536C9.24021 17.9473 9.36739 18 9.5 18Z" fill="#24394A"/>
<path d="M6.5 4H5.5C5.22386 4 5 4.22386 5 4.5V6.5C5 6.77614 5.22386 7 5.5 7H6.5C6.77614 7 7 6.77614 7 6.5V4.5C7 4.22386 6.77614 4 6.5 4Z" fill="#24394A"/>
<path d="M9 9.5V8.5C9 8.36739 8.94732 8.24021 8.85355 8.14645C8.75979 8.05268 8.63261 8 8.5 8H3.5C3.36739 8 3.24021 8.05268 3.14645 8.14645C3.05268 8.24021 3 8.36739 3 8.5V9.5C3 9.63261 3.05268 9.75979 3.14645 9.85355C3.24021 9.94732 3.36739 10 3.5 10H4.5C4.63261 10 4.75979 10.0527 4.85355 10.1464C4.94732 10.2402 5 10.3674 5 10.5V19.5C5 19.6326 5.05268 19.7598 5.14645 19.8536C5.24021 19.9473 5.36739 20 5.5 20H6.5C6.63261 20 6.75979 19.9473 6.85355 19.8536C6.94732 19.7598 7 19.6326 7 19.5V10.5C7 10.3674 7.05268 10.2402 7.14645 10.1464C7.24021 10.0527 7.36739 10 7.5 10H8.5C8.63261 10 8.75979 9.94732 8.85355 9.85355C8.94732 9.75979 9 9.63261 9 9.5Z" fill="#24394A"/>
<path d="M18.5 4H17.5C17.2239 4 17 4.22386 17 4.5V9.5C17 9.77614 17.2239 10 17.5 10H18.5C18.7761 10 19 9.77614 19 9.5V4.5C19 4.22386 18.7761 4 18.5 4Z" fill="#24394A"/>
<path d="M20.5 11H15.5C15.3674 11 15.2402 11.0527 15.1464 11.1464C15.0527 11.2402 15 11.3674 15 11.5V12.5C15 12.6326 15.0527 12.7598 15.1464 12.8536C15.2402 12.9473 15.3674 13 15.5 13H16.5C16.6326 13 16.7598 13.0527 16.8536 13.1464C16.9473 13.2402 17 13.3674 17 13.5V19.5C17 19.6326 17.0527 19.7598 17.1464 19.8536C17.2402 19.9473 17.3674 20 17.5 20H18.5C18.6326 20 18.7598 19.9473 18.8536 19.8536C18.9473 19.7598 19 19.6326 19 19.5V13.5C19 13.3674 19.0527 13.2402 19.1464 13.1464C19.2402 13.0527 19.3674 13 19.5 13H20.5C20.6326 13 20.7598 12.9473 20.8536 12.8536C20.9473 12.7598 21 12.6326 21 12.5V11.5C21 11.3674 20.9473 11.2402 20.8536 11.1464C20.7598 11.0527 20.6326 11 20.5 11Z" fill="#24394A"/>
</svg>
