<svg width="24" height="24" viewBox="0 0 24 24" fill="none" xmlns="http://www.w3.org/2000/svg">
<path d="M20.5 12H19.5C19.3674 12 19.2402 12.0527 19.1464 12.1464C19.0527 12.2402 19 12.3674 19 12.5V17C19 17.5304 18.7893 18.0391 18.4142 18.4142C18.0391 18.7893 17.5304 19 17 19H7C6.46957 19 5.96086 18.7893 5.58579 18.4142C5.21071 18.0391 5 17.5304 5 17V5H16.5C16.6326 5 16.7598 4.94732 16.8536 4.85355C16.9473 4.75979 17 4.63261 17 4.5V3.5C17 3.36739 16.9473 3.24021 16.8536 3.14645C16.7598 3.05268 16.6326 3 16.5 3H3.5C3.36739 3 3.24021 3.05268 3.14645 3.14645C3.05268 3.24021 3 3.36739 3 3.5V17C3 18.0609 3.42143 19.0783 4.17157 19.8284C4.92172 20.5786 5.93913 21 7 21H17C18.0609 21 19.0783 20.5786 19.8284 19.8284C20.5786 19.0783 21 18.0609 21 17V12.5C21 12.3674 20.9473 12.2402 20.8536 12.1464C20.7598 12.0527 20.6326 12 20.5 12Z" fill="#24394A"/>
<path d="M11.06 9.65C11.0135 9.60314 10.9582 9.56594 10.8973 9.54055C10.8364 9.51517 10.771 9.5021 10.705 9.5021C10.639 9.5021 10.5736 9.51517 10.5127 9.54055C10.4518 9.56594 10.3965 9.60314 10.35 9.65L9.65 10.35C9.60314 10.3965 9.56594 10.4518 9.54055 10.5127C9.51517 10.5736 9.5021 10.639 9.5021 10.705C9.5021 10.771 9.51517 10.8364 9.54055 10.8973C9.56594 10.9582 9.60314 11.0135 9.65 11.06L12.65 14.06C12.6949 14.1078 12.7491 14.146 12.8093 14.172C12.8695 14.1981 12.9344 14.2115 13 14.2115C13.0656 14.2115 13.1305 14.1981 13.1907 14.172C13.2509 14.146 13.3051 14.1078 13.35 14.06L20.35 7.06C20.3969 7.01352 20.4341 6.95822 20.4594 6.89729C20.4848 6.83636 20.4979 6.77101 20.4979 6.705C20.4979 6.63899 20.4848 6.57364 20.4594 6.51271C20.4341 6.45178 20.3969 6.39648 20.35 6.35L19.65 5.65C19.6035 5.60314 19.5482 5.56594 19.4873 5.54055C19.4264 5.51517 19.361 5.5021 19.295 5.5021C19.229 5.5021 19.1636 5.51517 19.1027 5.54055C19.0418 5.56594 18.9865 5.60314 18.94 5.65L13 11.59L11.06 9.65Z" fill="#24394A"/>
</svg>
