<svg width="24" height="24" viewBox="0 0 24 24" fill="none" xmlns="http://www.w3.org/2000/svg">
<path d="M20.5 5H16.87C16.6361 5.00472 16.4079 4.92725 16.2251 4.78107C16.0424 4.6349 15.9168 4.42928 15.87 4.2C15.696 3.57105 15.3217 3.01598 14.8037 2.61897C14.2858 2.22196 13.6526 2.00465 13 2H11C10.344 2.0003 9.7062 2.2156 9.18423 2.61295C8.66227 3.01029 8.28493 3.56776 8.11 4.2C8.06325 4.42928 7.93758 4.6349 7.75486 4.78107C7.57214 4.92725 7.34395 5.00472 7.11 5H3.5C3.36739 5 3.24021 5.05268 3.14645 5.14645C3.05268 5.24021 3 5.36739 3 5.5V17C3 18.0609 3.42143 19.0783 4.17157 19.8284C4.92172 20.5786 5.93913 21 7 21H17C18.0609 21 19.0783 20.5786 19.8284 19.8284C20.5786 19.0783 21 18.0609 21 17V5.5C21 5.36739 20.9473 5.24021 20.8536 5.14645C20.7598 5.05268 20.6326 5 20.5 5ZM19 17C19 17.5304 18.7893 18.0391 18.4142 18.4142C18.0391 18.7893 17.5304 19 17 19H7C6.46957 19 5.96086 18.7893 5.58579 18.4142C5.21071 18.0391 5 17.5304 5 17V7H7.5C7.63261 7 7.75979 7.05268 7.85355 7.14645C7.94732 7.24021 8 7.36739 8 7.5C8 7.63261 8.05268 7.75979 8.14645 7.85355C8.24021 7.94732 8.36739 8 8.5 8H9.5C9.63261 8 9.75979 7.94732 9.85355 7.85355C9.94732 7.75979 10 7.63261 10 7.5V5C10 4.73478 10.1054 4.48043 10.2929 4.29289C10.4804 4.10536 10.7348 4 11 4H13C13.2652 4 13.5196 4.10536 13.7071 4.29289C13.8946 4.48043 14 4.73478 14 5V7.5C14 7.63261 14.0527 7.75979 14.1464 7.85355C14.2402 7.94732 14.3674 8 14.5 8H15.5C15.6326 8 15.7598 7.94732 15.8536 7.85355C15.9473 7.75979 16 7.63261 16 7.5C16 7.36739 16.0527 7.24021 16.1464 7.14645C16.2402 7.05268 16.3674 7 16.5 7H19V17Z" fill="#24394A"/>
<path d="M14.1095 8.84V17H11.8055V11.096L10.1375 12.116L9.10547 10.568L11.9975 8.84H14.1095Z" fill="#ED174C"/>
</svg>
