<svg width="24" height="24" viewBox="0 0 24 24" fill="none" xmlns="http://www.w3.org/2000/svg">
<path d="M22.31 19.65C21.4517 19.1346 20.7579 18.3854 20.31 17.49C20.5239 17.3046 20.696 17.0759 20.8149 16.8191C20.9339 16.5622 20.997 16.2831 21 16C20.9979 15.651 20.9045 15.3086 20.729 15.0068C20.5536 14.7051 20.3023 14.4545 20 14.28V11.28C19.9985 11.1011 20.045 10.9251 20.1347 10.7703C20.2244 10.6155 20.354 10.4877 20.51 10.4L22.27 9.40001C22.3494 9.35716 22.4157 9.29365 22.4619 9.21619C22.5081 9.13873 22.5325 9.05021 22.5325 8.96001C22.5325 8.86981 22.5081 8.78129 22.4619 8.70383C22.4157 8.62637 22.3494 8.56285 22.27 8.52001L12.49 3.13001C12.338 3.04224 12.1655 2.99603 11.99 2.99603C11.8144 2.99603 11.642 3.04224 11.49 3.13001L1.72998 8.56001C1.65061 8.60285 1.5843 8.66637 1.53808 8.74383C1.49187 8.82129 1.46747 8.90981 1.46747 9.00001C1.46747 9.09021 1.49187 9.17873 1.53808 9.25619C1.5843 9.33365 1.65061 9.39716 1.72998 9.44001L3.48998 10.44C3.64593 10.5277 3.77551 10.6555 3.86522 10.8103C3.95492 10.9651 4.00146 11.1411 3.99998 11.32V15C3.99998 17.8 7.50998 20 12 20C13.3211 20.0079 14.6347 19.8019 15.89 19.39C16.0159 19.3409 16.1172 19.2438 16.1716 19.12C16.226 18.9963 16.229 18.856 16.18 18.73L15.81 17.8C15.763 17.6798 15.6705 17.5829 15.5526 17.5305C15.4346 17.478 15.3007 17.4743 15.18 17.52C14.1511 17.8433 13.0784 18.0052 12 18C8.45998 18 5.99998 16.42 5.99998 15V12.66C5.99974 12.5731 6.02217 12.4876 6.06503 12.412C6.1079 12.3364 6.16974 12.2733 6.24444 12.2289C6.31915 12.1845 6.40414 12.1603 6.49104 12.1587C6.57793 12.1572 6.66374 12.1783 6.73998 12.22L11.51 14.87C11.662 14.9578 11.8344 15.004 12.01 15.004C12.1855 15.004 12.358 14.9578 12.51 14.87L17.28 12.22C17.3562 12.1783 17.442 12.1572 17.5289 12.1587C17.6158 12.1603 17.7008 12.1845 17.7755 12.2289C17.8502 12.2733 17.9121 12.3364 17.9549 12.412C17.9978 12.4876 18.0202 12.5731 18.02 12.66V14.28C17.7499 14.4383 17.5208 14.6578 17.351 14.9207C17.1812 15.1837 17.0755 15.4829 17.0424 15.7942C17.0093 16.1055 17.0498 16.4202 17.1605 16.713C17.2713 17.0058 17.4492 17.2685 17.68 17.48C17.4949 18.2853 17.5638 19.1282 17.8771 19.8928C18.1905 20.6574 18.733 21.3062 19.43 21.75C19.5106 21.7965 19.6019 21.821 19.695 21.821C19.788 21.821 19.8794 21.7965 19.96 21.75L22.3 20.49C22.3707 20.4455 22.4291 20.384 22.47 20.3111C22.5108 20.2382 22.5327 20.1563 22.5337 20.0727C22.5347 19.9892 22.5148 19.9067 22.4757 19.8329C22.4366 19.759 22.3796 19.6962 22.31 19.65ZM12 12.86L5.05998 9.00001L12 5.14001L18.94 9.00001L17.94 9.56001L14.71 7.81001C14.5653 7.73297 14.4039 7.69267 14.24 7.69267C14.0761 7.69267 13.9147 7.73297 13.77 7.81001L12.94 8.25001C12.8606 8.29285 12.7943 8.35637 12.7481 8.43383C12.7019 8.51129 12.6775 8.59981 12.6775 8.69001C12.6775 8.78021 12.7019 8.86873 12.7481 8.94619C12.7943 9.02365 12.8606 9.08717 12.94 9.13001L15.87 10.71L12 12.86Z" fill="#24394A"/>
</svg>
