<svg viewBox="0 0 24 24" fill="#24394A" xmlns="http://www.w3.org/2000/svg">
<path d="M12 2C10.0222 2 8.08879 2.58649 6.4443 3.6853C4.79981 4.78412 3.51809 6.3459 2.76121 8.17317C2.00433 10.0004 1.8063 12.0111 2.19215 13.9509C2.578 15.8907 3.53041 17.6725 4.92894 19.0711C6.32746 20.4696 8.10929 21.422 10.0491 21.8079C11.9889 22.1937 13.9996 21.9957 15.8268 21.2388C17.6541 20.4819 19.2159 19.2002 20.3147 17.5557C21.4135 15.9112 22 13.9778 22 12C22 9.34784 20.9464 6.8043 19.0711 4.92893C17.1957 3.05357 14.6522 2 12 2V2ZM14.21 6.83C13.4788 6.94356 12.74 7.0004 12 7C11.2601 7 10.5212 6.94317 9.79 6.83C10.42 5 11.3 4 12 4C12.7 4 13.58 5 14.21 6.83ZM15.56 4.83C16.153 5.12639 16.7044 5.4996 17.2 5.94C16.8739 6.09664 16.5402 6.23682 16.2 6.36C16.0262 5.84082 15.8122 5.33596 15.56 4.85V4.83ZM9 11C9.03706 10.2522 9.12055 9.50744 9.25 8.77C10.159 8.92058 11.0786 8.9975 12 9C12.9116 9.00096 13.8215 8.92401 14.72 8.77C14.8595 9.5068 14.953 10.2516 15 11H9ZM15 13C14.963 13.7478 14.8795 14.4926 14.75 15.23C13.841 15.0794 12.9214 15.0025 12 15C11.0884 14.999 10.1785 15.076 9.28 15.23C9.14049 14.4932 9.04698 13.7484 9 13H15ZM7.82 6.36C7.478 6.23773 7.14401 6.09411 6.82 5.93C7.31497 5.50664 7.85884 5.14406 8.44 4.85C8.19465 5.33657 7.98736 5.84141 7.82 6.36ZM7.33 8.3C7.15952 9.19157 7.04927 10.0936 7 11H4.07C4.23007 9.72893 4.69305 8.51488 5.42 7.46C6.026 7.80513 6.66607 8.08662 7.33 8.3ZM7 13C7.04267 13.9059 7.14624 14.808 7.31 15.7C6.64406 15.9124 6.00354 16.1974 5.4 16.55C4.67865 15.4903 4.22251 14.2728 4.07 13H7ZM7.8 17.64C7.96736 18.1586 8.17465 18.6634 8.42 19.15C7.8351 18.8583 7.29055 18.4919 6.8 18.06C7.13264 17.9027 7.47308 17.7626 7.82 17.64H7.8ZM9.8 17.17C11.2646 16.9433 12.7554 16.9433 14.22 17.17C13.58 19 12.7 20 12 20C11.3 20 10.42 19 9.79 17.17H9.8ZM16.19 17.64C16.532 17.7623 16.866 17.9059 17.19 18.07C16.6888 18.4947 16.1382 18.8573 15.55 19.15C15.7988 18.6637 16.0094 18.1589 16.18 17.64H16.19ZM16.68 15.7C16.8471 14.8082 16.954 13.9062 17 13H19.95C19.7899 14.2711 19.327 15.4851 18.6 16.54C17.9876 16.1936 17.3408 15.9121 16.67 15.7H16.68ZM17 11C16.9573 10.0941 16.8538 9.19203 16.69 8.3C17.3559 8.08764 17.9965 7.80259 18.6 7.45C19.3214 8.50968 19.7775 9.7272 19.93 11H17Z" />
</svg>
