<svg viewBox="0 0 24 24" fill="#24394A" xmlns="http://www.w3.org/2000/svg">
<path d="M14.12 11.29L18.29 7.10001C18.3369 7.05353 18.3741 6.99823 18.3995 6.9373C18.4249 6.87637 18.4379 6.81102 18.4379 6.74501C18.4379 6.67901 18.4249 6.61365 18.3995 6.55272C18.3741 6.4918 18.3369 6.43649 18.29 6.39001L17.59 5.69001C17.5436 5.64315 17.4882 5.60595 17.4273 5.58057C17.3664 5.55518 17.301 5.54211 17.235 5.54211C17.169 5.54211 17.1037 5.55518 17.0427 5.58057C16.9818 5.60595 16.9265 5.64315 16.88 5.69001L12.71 9.88001C12.6171 9.97374 12.5065 10.0481 12.3846 10.0989C12.2628 10.1497 12.132 10.1758 12 10.1758C11.868 10.1758 11.7373 10.1497 11.6155 10.0989C11.4936 10.0481 11.383 9.97374 11.29 9.88001L7.12003 5.71001C7.07355 5.66315 7.01825 5.62595 6.95732 5.60057C6.89639 5.57518 6.83104 5.56211 6.76503 5.56211C6.69903 5.56211 6.63367 5.57518 6.57274 5.60057C6.51181 5.62595 6.45651 5.66315 6.41003 5.71001L5.71003 6.41001C5.66317 6.45649 5.62597 6.5118 5.60059 6.57272C5.5752 6.63365 5.56213 6.69901 5.56213 6.76501C5.56213 6.83102 5.5752 6.89637 5.60059 6.9573C5.62597 7.01823 5.66317 7.07353 5.71003 7.12001L9.88003 11.29C9.97376 11.383 10.0482 11.4936 10.0989 11.6154C10.1497 11.7373 10.1758 11.868 10.1758 12C10.1758 12.132 10.1497 12.2627 10.0989 12.3846C10.0482 12.5064 9.97376 12.617 9.88003 12.71L5.71003 16.88C5.66317 16.9265 5.62597 16.9818 5.60059 17.0427C5.5752 17.1037 5.56213 17.169 5.56213 17.235C5.56213 17.301 5.5752 17.3664 5.60059 17.4273C5.62597 17.4882 5.66317 17.5435 5.71003 17.59L6.41003 18.29C6.45657 18.3383 6.51254 18.3766 6.57447 18.4024C6.63639 18.4282 6.70295 18.441 6.77003 18.44C6.83561 18.4408 6.90063 18.4279 6.9609 18.402C7.02118 18.3762 7.07539 18.3381 7.12003 18.29L11.29 14.1C11.383 14.0063 11.4936 13.9319 11.6155 13.8811C11.7373 13.8304 11.868 13.8042 12 13.8042C12.132 13.8042 12.2628 13.8304 12.3846 13.8811C12.5065 13.9319 12.6171 14.0063 12.71 14.1L16.88 18.27C16.9247 18.3181 16.9789 18.3562 17.0392 18.382C17.0994 18.4079 17.1645 18.4208 17.23 18.42C17.2971 18.421 17.3637 18.4082 17.4256 18.3824C17.4875 18.3566 17.5435 18.3183 17.59 18.27L18.29 17.57C18.3369 17.5235 18.3741 17.4682 18.3995 17.4073C18.4249 17.3464 18.4379 17.281 18.4379 17.215C18.4379 17.149 18.4249 17.0837 18.3995 17.0227C18.3741 16.9618 18.3369 16.9065 18.29 16.86L14.12 12.69C13.9368 12.5031 13.8342 12.2518 13.8342 11.99C13.8342 11.7283 13.9368 11.4769 14.12 11.29Z" />
</svg>
