<svg viewBox="0 0 24 24" fill="#24394A" xmlns="http://www.w3.org/2000/svg">
<path d="M2 3.5V6.39C2.00122 6.98337 2.17494 7.56359 2.5 8.06L3.5 9.47C3.74536 9.87596 4.07661 10.2233 4.47049 10.4876C4.86437 10.7519 5.31133 10.9268 5.78 11C6.24313 11.0536 6.71237 11.0013 7.15236 10.8471C7.59234 10.693 7.99159 10.4409 8.32 10.11L9 9.41L9.68 10.09C10.2605 10.6716 11.0482 10.9989 11.87 11H12.13C12.9518 10.9989 13.7395 10.6716 14.32 10.09L15 9.41L15.68 10.09C16.0084 10.4209 16.4077 10.673 16.8476 10.8271C17.2876 10.9813 17.7569 11.0336 18.22 10.98C18.6958 10.916 19.1515 10.7474 19.5544 10.4863C19.9572 10.2253 20.2973 9.87816 20.55 9.47L21.5 8.06C21.8251 7.56359 21.9988 6.98337 22 6.39V3.5C22 3.36739 21.9473 3.24021 21.8536 3.14645C21.7598 3.05268 21.6326 3 21.5 3H2.5C2.36739 3 2.24021 3.05268 2.14645 3.14645C2.05268 3.24021 2 3.36739 2 3.5ZM20 6.39C20.0004 6.58944 19.9412 6.78446 19.83 6.95L18.83 8.51C18.7388 8.64528 18.619 8.7588 18.479 8.84249C18.339 8.92619 18.1822 8.97799 18.0199 8.99422C17.8576 9.01046 17.6937 8.99071 17.5399 8.9364C17.3861 8.88209 17.2461 8.79455 17.13 8.68L15.71 7.29C15.617 7.19627 15.5064 7.12188 15.3846 7.07111C15.2627 7.02034 15.132 6.9942 15 6.9942C14.868 6.9942 14.7373 7.02034 14.6154 7.07111C14.4936 7.12188 14.383 7.19627 14.29 7.29L12.91 8.68C12.7004 8.88242 12.4213 8.99693 12.13 9H11.87C11.5787 8.99693 11.2996 8.88242 11.09 8.68L9.71 7.29C9.61704 7.19627 9.50644 7.12188 9.38458 7.07111C9.26272 7.02034 9.13201 6.9942 9 6.9942C8.86799 6.9942 8.73728 7.02034 8.61542 7.07111C8.49356 7.12188 8.38296 7.19627 8.29 7.29L6.91 8.68C6.79387 8.79455 6.65391 8.88209 6.5001 8.9364C6.34628 8.99071 6.18239 9.01046 6.02008 8.99422C5.85777 8.97799 5.70103 8.92619 5.56101 8.84249C5.421 8.7588 5.30115 8.64528 5.21 8.51L4.17 7C4.04875 6.82045 3.98909 6.60638 4 6.39V5H20V6.39Z" />
<path d="M17 21H7C5.93913 21 4.92172 20.5786 4.17157 19.8284C3.42143 19.0783 3 18.0609 3 17V12.5C3 12.3674 3.05268 12.2402 3.14645 12.1464C3.24021 12.0527 3.36739 12 3.5 12H4.5C4.63261 12 4.75979 12.0527 4.85355 12.1464C4.94732 12.2402 5 12.3674 5 12.5V17C5 17.5304 5.21071 18.0391 5.58579 18.4142C5.96086 18.7893 6.46957 19 7 19H17C17.5304 19 18.0391 18.7893 18.4142 18.4142C18.7893 18.0391 19 17.5304 19 17V12.5C19 12.3674 19.0527 12.2402 19.1464 12.1464C19.2402 12.0527 19.3674 12 19.5 12H20.5C20.6326 12 20.7598 12.0527 20.8536 12.1464C20.9473 12.2402 21 12.3674 21 12.5V17C21 18.0609 20.5786 19.0783 19.8284 19.8284C19.0783 20.5786 18.0609 21 17 21Z" />
</svg>
