<svg width="24" height="24" viewBox="0 0 24 24" fill="none" xmlns="http://www.w3.org/2000/svg">
<path d="M16.7801 4.06C16.0698 3.95316 15.345 4.00057 14.6547 4.19902C13.9645 4.39746 13.3251 4.74228 12.7801 5.21C12.4892 5.44102 12.2274 5.70627 12.0001 6C11.7852 5.70858 11.5368 5.44343 11.2601 5.21C10.715 4.74228 10.0756 4.39746 9.3854 4.19902C8.69516 4.00057 7.97026 3.95316 7.26005 4.06C6.02328 4.26264 4.90474 4.91444 4.11868 5.89055C3.33263 6.86666 2.93432 8.09846 3.00005 9.35C3.21005 15.61 9.17005 19.54 11.0001 20.59C11.3041 20.7655 11.649 20.8579 12.0001 20.8579C12.3511 20.8579 12.696 20.7655 13.0001 20.59C14.8201 19.54 20.7801 15.59 21.0001 9.35C21.0671 8.10432 20.6744 6.87738 19.8964 5.90218C19.1185 4.92697 18.0095 4.27142 16.7801 4.06ZM12.0001 18.86C10.4101 17.94 5.18005 14.52 5.00005 9.28C4.94041 8.51849 5.16494 7.76188 5.6303 7.15616C6.09567 6.55045 6.76889 6.13857 7.52005 6C7.67971 5.98514 7.8404 5.98514 8.00005 6C8.73225 5.98786 9.44361 6.24394 10.0001 6.72C10.4734 7.10681 10.8214 7.62535 11.0001 8.21C11.0488 8.43743 11.1754 8.64074 11.3579 8.78493C11.5404 8.92912 11.7675 9.00517 12.0001 9H12.2601C12.4926 9.00517 12.7197 8.92912 12.9022 8.78493C13.0847 8.64074 13.2113 8.43743 13.2601 8.21C13.4387 7.62535 13.7867 7.10681 14.2601 6.72C14.5632 6.45776 14.9159 6.25893 15.2972 6.13527C15.6785 6.01161 16.0807 5.96561 16.4801 6C17.2312 6.13857 17.9044 6.55045 18.3698 7.15616C18.8352 7.76188 19.0597 8.51849 19.0001 9.28C18.8201 14.52 13.5901 17.94 12.0001 18.86Z" fill="#24394A"/>
</svg>
