<svg width="24" height="24" viewBox="0 0 24 24" fill="none" xmlns="http://www.w3.org/2000/svg">
<path d="M12 11C12.7911 11 13.5645 10.7654 14.2223 10.3259C14.8801 9.88636 15.3928 9.26165 15.6955 8.53074C15.9983 7.79984 16.0775 6.99557 15.9231 6.21965C15.7688 5.44372 15.3878 4.73099 14.8284 4.17158C14.269 3.61217 13.5563 3.23121 12.7804 3.07687C12.0044 2.92253 11.2002 3.00174 10.4693 3.30449C9.73836 3.60724 9.11365 4.11993 8.67412 4.77773C8.2346 5.43552 8 6.20888 8 7.00001C8 8.06087 8.42143 9.07829 9.17157 9.82843C9.92172 10.5786 10.9391 11 12 11ZM12 5.00001C12.3956 5.00001 12.7822 5.11731 13.1111 5.33707C13.44 5.55683 13.6964 5.86919 13.8478 6.23464C13.9991 6.60009 14.0387 7.00223 13.9616 7.39019C13.8844 7.77815 13.6939 8.13452 13.4142 8.41422C13.1345 8.69393 12.7781 8.88441 12.3902 8.96158C12.0022 9.03875 11.6001 8.99914 11.2346 8.84777C10.8692 8.69639 10.5568 8.44005 10.3371 8.11115C10.1173 7.78225 10 7.39557 10 7.00001C10 6.46957 10.2107 5.96087 10.5858 5.58579C10.9609 5.21072 11.4696 5.00001 12 5.00001Z" fill="#24394A"/>
<path d="M12.5 17H11.5C11.3674 17 11.2402 17.0527 11.1464 17.1465C11.0527 17.2402 11 17.3674 11 17.5V18.5C11 18.6326 10.9473 18.7598 10.8536 18.8536C10.7598 18.9473 10.6326 19 10.5 19H9.5C9.36739 19 9.24021 19.0527 9.14645 19.1465C9.05268 19.2402 9 19.3674 9 19.5V20.5C9 20.6326 9.05268 20.7598 9.14645 20.8536C9.24021 20.9473 9.36739 21 9.5 21H10.5C10.6326 21 10.7598 21.0527 10.8536 21.1465C10.9473 21.2402 11 21.3674 11 21.5V22.5C11 22.6326 11.0527 22.7598 11.1464 22.8536C11.2402 22.9473 11.3674 23 11.5 23H12.5C12.6326 23 12.7598 22.9473 12.8536 22.8536C12.9473 22.7598 13 22.6326 13 22.5V21.5C13 21.3674 13.0527 21.2402 13.1464 21.1465C13.2402 21.0527 13.3674 21 13.5 21H14.5C14.6326 21 14.7598 20.9473 14.8536 20.8536C14.9473 20.7598 15 20.6326 15 20.5V19.5C15 19.3674 14.9473 19.2402 14.8536 19.1465C14.7598 19.0527 14.6326 19 14.5 19H13.5C13.3674 19 13.2402 18.9473 13.1464 18.8536C13.0527 18.7598 13 18.6326 13 18.5V17.5C13 17.3674 12.9473 17.2402 12.8536 17.1465C12.7598 17.0527 12.6326 17 12.5 17Z" fill="#24394A"/>
<path d="M10.91 10.86C11.5967 11.0576 12.3238 11.0676 13.0157 10.889C13.7076 10.7103 14.3391 10.3496 14.8443 9.84436C15.3496 9.33907 15.7103 8.70765 15.889 8.01575C16.0676 7.32385 16.0576 6.59674 15.86 5.91001C15.6746 5.24951 15.3224 4.6478 14.8373 4.16271C14.3522 3.67761 13.7505 3.32543 13.09 3.14001C12.3981 2.9378 11.6644 2.92632 10.9665 3.10678C10.2686 3.28725 9.63247 3.65295 9.12532 4.16522C8.61817 4.67749 8.25888 5.31729 8.08543 6.01696C7.91199 6.71663 7.93084 7.45017 8.14 8.14001C8.33281 8.79127 8.68827 9.38271 9.1729 9.85858C9.65752 10.3345 10.2553 10.6791 10.91 10.86ZM12 5.00001C12.3956 5.00001 12.7822 5.11731 13.1111 5.33707C13.44 5.55683 13.6964 5.86919 13.8478 6.23464C13.9991 6.60009 14.0387 7.00223 13.9616 7.39019C13.8844 7.77815 13.6939 8.13452 13.4142 8.41422C13.1345 8.69393 12.7781 8.88441 12.3902 8.96158C12.0022 9.03875 11.6001 8.99914 11.2346 8.84777C10.8692 8.69639 10.5568 8.44005 10.3371 8.11115C10.1173 7.78225 10 7.39557 10 7.00001C10 6.46957 10.2107 5.96087 10.5858 5.58579C10.9609 5.21072 11.4696 5.00001 12 5.00001Z" fill="#24394A"/>
<path d="M20.5 6.00001H18.5C18.3674 6.00001 18.2402 6.05269 18.1464 6.14645C18.0527 6.24022 18 6.3674 18 6.50001V7.50001C18 7.63262 18.0527 7.75979 18.1464 7.85356C18.2402 7.94733 18.3674 8.00001 18.5 8.00001H19V15.56C18.9987 15.6604 18.9673 15.7581 18.9098 15.8403C18.8522 15.9226 18.7712 15.9856 18.6774 16.0212C18.5835 16.0568 18.4811 16.0634 18.3835 16.04C18.2858 16.0166 18.1975 15.9643 18.13 15.89C17.3841 14.9868 16.4478 14.2595 15.3881 13.7603C14.3284 13.2611 13.1714 13.0022 12 13.0022C10.8286 13.0022 9.67163 13.2611 8.61192 13.7603C7.5522 14.2595 6.6159 14.9868 5.87 15.89C5.80248 15.9643 5.71416 16.0166 5.61654 16.04C5.51891 16.0634 5.4165 16.0568 5.32263 16.0212C5.22877 15.9856 5.14779 15.9226 5.09025 15.8403C5.0327 15.7581 5.00126 15.6604 5 15.56V8.00001H5.5C5.63261 8.00001 5.75979 7.94733 5.85355 7.85356C5.94732 7.75979 6 7.63262 6 7.50001V6.50001C6 6.3674 5.94732 6.24022 5.85355 6.14645C5.75979 6.05269 5.63261 6.00001 5.5 6.00001H3.5C3.36739 6.00001 3.24021 6.05269 3.14645 6.14645C3.05268 6.24022 3 6.3674 3 6.50001V17C3 18.0609 3.42143 19.0783 4.17157 19.8284C4.92172 20.5786 5.93913 21 7 21H7.5C7.63261 21 7.75979 20.9473 7.85355 20.8536C7.94732 20.7598 8 20.6326 8 20.5V19.5C8 19.3674 7.94732 19.2402 7.85355 19.1465C7.75979 19.0527 7.63261 19 7.5 19H7C6.62 19 6.56 18.59 6.74 18.25C7.24597 17.2874 8.00087 16.4781 8.92603 15.9065C9.85118 15.3348 10.9127 15.0218 12 15C13.0873 15.0218 14.1488 15.3348 15.074 15.9065C15.9991 16.4781 16.754 17.2874 17.26 18.25C17.44 18.59 17.38 19 17 19H16.5C16.3674 19 16.2402 19.0527 16.1464 19.1465C16.0527 19.2402 16 19.3674 16 19.5V20.5C16 20.6326 16.0527 20.7598 16.1464 20.8536C16.2402 20.9473 16.3674 21 16.5 21H17C18.0609 21 19.0783 20.5786 19.8284 19.8284C20.5786 19.0783 21 18.0609 21 17V6.50001C21 6.3674 20.9473 6.24022 20.8536 6.14645C20.7598 6.05269 20.6326 6.00001 20.5 6.00001Z" fill="#24394A"/>
</svg>
