<svg width="24" height="24" viewBox="0 0 24 24" fill="none" xmlns="http://www.w3.org/2000/svg">
<path d="M12 21.695C11.4719 21.6954 10.965 21.4869 10.59 21.115L9 19.545C6.43342 16.9739 4.81821 13.606 4.42 9.995L4.16 7.695C4.09389 7.05189 4.23729 6.40463 4.56885 5.84963C4.9004 5.29463 5.40238 4.86158 6 4.61499L10.85 2.53499C11.2229 2.37544 11.6244 2.29318 12.03 2.29318C12.4356 2.29318 12.8371 2.37544 13.21 2.53499L18 4.61499C18.5902 4.86813 19.0835 5.30395 19.4075 5.85838C19.7316 6.4128 19.8691 7.05657 19.8 7.695L19.54 9.995C19.1527 13.6009 17.5519 16.9682 15 19.545L13.41 21.115C13.035 21.4869 12.5281 21.6954 12 21.695ZM12 4.29499C11.8656 4.29152 11.7322 4.31888 11.61 4.37499L6.76 6.445C6.56796 6.52797 6.40677 6.66909 6.29914 6.84848C6.1915 7.02787 6.14284 7.2365 6.16 7.445L6.41 9.745C6.75776 12.9014 8.16827 15.8459 10.41 18.095L12 19.705L13.57 18.115C15.8117 15.8659 17.2222 12.9214 17.57 9.765L17.82 7.46499C17.8372 7.25649 17.7885 7.04787 17.6809 6.86848C17.5732 6.68909 17.412 6.54797 17.22 6.46499L12.37 4.39499C12.2555 4.33488 12.1292 4.30074 12 4.29499Z" fill="#24394A"/>
</svg>
