<svg viewBox="0 0 24 24" fill="#24394A" xmlns="http://www.w3.org/2000/svg">
<path d="M21.45 6.11C21.284 6.02576 21.0977 5.98956 20.9122 6.00546C20.7267 6.02136 20.5493 6.08874 20.4 6.2L18.8 7.4C18.7257 7.45571 18.6374 7.48964 18.5449 7.49798C18.4524 7.50632 18.3594 7.48874 18.2764 7.44721C18.1933 7.40569 18.1235 7.34185 18.0747 7.26287C18.0259 7.18388 18 7.09286 18 7C18 6.46957 17.7893 5.96086 17.4142 5.58579C17.0391 5.21071 16.5304 5 16 5H6C4.93913 5 3.92172 5.42143 3.17157 6.17157C2.42143 6.92172 2 7.93913 2 9V15C2 16.0609 2.42143 17.0783 3.17157 17.8284C3.92172 18.5786 4.93913 19 6 19H16C16.5304 19 17.0391 18.7893 17.4142 18.4142C17.7893 18.0391 18 17.5304 18 17C18 16.9071 18.0259 16.8161 18.0747 16.7371C18.1235 16.6581 18.1933 16.5943 18.2764 16.5528C18.3594 16.5113 18.4524 16.4937 18.5449 16.502C18.6374 16.5104 18.7257 16.5443 18.8 16.6L20.4 17.8C20.5731 17.9298 20.7836 18 21 18C21.157 18.0028 21.312 17.9649 21.45 17.89C21.6149 17.8069 21.7536 17.6798 21.8507 17.5227C21.9478 17.3656 21.9994 17.1847 22 17V7C21.9994 6.81533 21.9478 6.63443 21.8507 6.47733C21.7536 6.32024 21.6149 6.1931 21.45 6.11ZM6 17C5.46957 17 4.96086 16.7893 4.58579 16.4142C4.21071 16.0391 4 15.5304 4 15V9C4 8.46957 4.21071 7.96086 4.58579 7.58579C4.96086 7.21071 5.46957 7 6 7H16V17H6ZM19.2 14.4L18.4 13.8C18.2758 13.7069 18.175 13.5861 18.1056 13.4472C18.0361 13.3084 18 13.1552 18 13V11C18 10.8448 18.0361 10.6916 18.1056 10.5528C18.175 10.4139 18.2758 10.2931 18.4 10.2L19.2 9.6C19.2743 9.54429 19.3626 9.51036 19.4551 9.50202C19.5476 9.49368 19.6406 9.51126 19.7236 9.55279C19.8067 9.59431 19.8765 9.65815 19.9253 9.73713C19.9741 9.81612 20 9.90714 20 10V14C20 14.0929 19.9741 14.1839 19.9253 14.2629C19.8765 14.3419 19.8067 14.4057 19.7236 14.4472C19.6406 14.4887 19.5476 14.5063 19.4551 14.498C19.3626 14.4896 19.2743 14.4557 19.2 14.4Z" />
<path d="M10.5 9H9.5C9.36739 9 9.24021 9.05268 9.14645 9.14645C9.05268 9.24021 9 9.36739 9 9.5V10.5C9 10.6326 8.94732 10.7598 8.85355 10.8536C8.75979 10.9473 8.63261 11 8.5 11H7.5C7.36739 11 7.24021 11.0527 7.14645 11.1464C7.05268 11.2402 7 11.3674 7 11.5V12.5C7 12.6326 7.05268 12.7598 7.14645 12.8536C7.24021 12.9473 7.36739 13 7.5 13H8.5C8.63261 13 8.75979 13.0527 8.85355 13.1464C8.94732 13.2402 9 13.3674 9 13.5V14.5C9 14.6326 9.05268 14.7598 9.14645 14.8536C9.24021 14.9473 9.36739 15 9.5 15H10.5C10.6326 15 10.7598 14.9473 10.8536 14.8536C10.9473 14.7598 11 14.6326 11 14.5V13.5C11 13.3674 11.0527 13.2402 11.1464 13.1464C11.2402 13.0527 11.3674 13 11.5 13H12.5C12.6326 13 12.7598 12.9473 12.8536 12.8536C12.9473 12.7598 13 12.6326 13 12.5V11.5C13 11.3674 12.9473 11.2402 12.8536 11.1464C12.7598 11.0527 12.6326 11 12.5 11H11.5C11.3674 11 11.2402 10.9473 11.1464 10.8536C11.0527 10.7598 11 10.6326 11 10.5V9.5C11 9.36739 10.9473 9.24021 10.8536 9.14645C10.7598 9.05268 10.6326 9 10.5 9Z" />
</svg>
