<svg width="24" height="24" viewBox="0 0 24 24" fill="none" xmlns="http://www.w3.org/2000/svg">
<path d="M15 3H9C7.4087 3 5.88258 3.63214 4.75736 4.75736C3.63214 5.88258 3 7.4087 3 9V15C3 16.5913 3.63214 18.1174 4.75736 19.2426C5.88258 20.3679 7.4087 21 9 21H15C16.5913 21 18.1174 20.3679 19.2426 19.2426C20.3679 18.1174 21 16.5913 21 15V9C21 7.4087 20.3679 5.88258 19.2426 4.75736C18.1174 3.63214 16.5913 3 15 3ZM13 17.5C13 17.6326 12.9473 17.7598 12.8536 17.8536C12.7598 17.9473 12.6326 18 12.5 18H11.5C11.3674 18 11.2402 17.9473 11.1464 17.8536C11.0527 17.7598 11 17.6326 11 17.5V12.5C11 12.3674 11.0527 12.2402 11.1464 12.1464C11.2402 12.0527 11.3674 12 11.5 12H12.5C12.6326 12 12.7598 12.0527 12.8536 12.1464C12.9473 12.2402 13 12.3674 13 12.5V17.5ZM12 10C11.6044 10 11.2178 9.8827 10.8889 9.66294C10.56 9.44318 10.3036 9.13082 10.1522 8.76537C10.0009 8.39991 9.96126 7.99778 10.0384 7.60982C10.1156 7.22186 10.3061 6.86549 10.5858 6.58579C10.8655 6.30608 11.2219 6.1156 11.6098 6.03843C11.9978 5.96126 12.3999 6.00087 12.7654 6.15224C13.1308 6.30362 13.4432 6.55996 13.6629 6.88886C13.8827 7.21776 14 7.60444 14 8C14 8.53043 13.7893 9.03914 13.4142 9.41421C13.0391 9.78929 12.5304 10 12 10Z" fill="#24394A"/>
</svg>
