<svg width="24" height="24" viewBox="0 0 24 24" fill="none" xmlns="http://www.w3.org/2000/svg">
<path d="M7 8.5C6.00284 8.53302 5.03976 8.87089 4.24053 9.46809C3.44129 10.0653 2.8443 10.8931 2.53 11.84C2.48984 11.9429 2.48984 12.0571 2.53 12.16C2.8443 13.1069 3.44129 13.9347 4.24053 14.5319C5.03976 15.1291 6.00284 15.467 7 15.5C7.99716 15.467 8.96024 15.1291 9.75947 14.5319C10.5587 13.9347 11.1557 13.1069 11.47 12.16C11.5102 12.0571 11.5102 11.9429 11.47 11.84C11.1557 10.8931 10.5587 10.0653 9.75947 9.46809C8.96024 8.87089 7.99716 8.53302 7 8.5ZM7 14.5C6.24063 14.4724 5.50653 14.2201 4.89061 13.7751C4.2747 13.33 3.80466 12.7123 3.54 12C3.80466 11.2877 4.2747 10.67 4.89061 10.2249C5.50653 9.7799 6.24063 9.52762 7 9.5C7.75937 9.52762 8.49347 9.7799 9.10939 10.2249C9.7253 10.67 10.1953 11.2877 10.46 12C10.1953 12.7123 9.7253 13.33 9.10939 13.7751C8.49347 14.2201 7.75937 14.4724 7 14.5Z" fill="#24394A"/>
<path d="M8 10.5C7.70333 10.5 7.41332 10.588 7.16664 10.7528C6.91997 10.9176 6.72771 11.1519 6.61418 11.426C6.50065 11.7001 6.47094 12.0017 6.52882 12.2926C6.5867 12.5836 6.72956 12.8509 6.93934 13.0607C7.14912 13.2704 7.41639 13.4133 7.70736 13.4712C7.99834 13.5291 8.29994 13.4994 8.57402 13.3858C8.84811 13.2723 9.08238 13.08 9.2472 12.8334C9.41203 12.5867 9.5 12.2967 9.5 12C9.5 11.6022 9.34196 11.2206 9.06066 10.9393C8.77936 10.658 8.39782 10.5 8 10.5ZM8 12.5C7.90111 12.5 7.80444 12.4707 7.72221 12.4157C7.63999 12.3608 7.5759 12.2827 7.53806 12.1913C7.50022 12.1 7.49031 11.9994 7.50961 11.9025C7.5289 11.8055 7.57652 11.7164 7.64645 11.6464C7.71637 11.5765 7.80546 11.5289 7.90245 11.5096C7.99945 11.4903 8.09998 11.5002 8.19134 11.5381C8.2827 11.5759 8.36079 11.64 8.41574 11.7222C8.47068 11.8044 8.5 11.9011 8.5 12C8.5 12.1326 8.44732 12.2598 8.35355 12.3536C8.25979 12.4473 8.13261 12.5 8 12.5Z" fill="#24394A"/>
<path d="M17 8.5C16.0028 8.53302 15.0398 8.87089 14.2405 9.46809C13.4413 10.0653 12.8443 10.8931 12.53 11.84C12.4898 11.9429 12.4898 12.0571 12.53 12.16C12.8443 13.1069 13.4413 13.9347 14.2405 14.5319C15.0398 15.1291 16.0028 15.467 17 15.5C17.9972 15.467 18.9602 15.1291 19.7595 14.5319C20.5587 13.9347 21.1557 13.1069 21.47 12.16C21.5102 12.0571 21.5102 11.9429 21.47 11.84C21.1557 10.8931 20.5587 10.0653 19.7595 9.46809C18.9602 8.87089 17.9972 8.53302 17 8.5ZM17 14.5C16.2406 14.4724 15.5065 14.2201 14.8906 13.7751C14.2747 13.33 13.8047 12.7123 13.54 12C13.8047 11.2877 14.2747 10.67 14.8906 10.2249C15.5065 9.7799 16.2406 9.52762 17 9.5C17.7594 9.52762 18.4935 9.7799 19.1094 10.2249C19.7253 10.67 20.1953 11.2877 20.46 12C20.1953 12.7123 19.7253 13.33 19.1094 13.7751C18.4935 14.2201 17.7594 14.4724 17 14.5Z" fill="#24394A"/>
<path d="M18 10.5C17.7033 10.5 17.4133 10.588 17.1666 10.7528C16.92 10.9176 16.7277 11.1519 16.6142 11.426C16.5007 11.7001 16.4709 12.0017 16.5288 12.2926C16.5867 12.5836 16.7296 12.8509 16.9393 13.0607C17.1491 13.2704 17.4164 13.4133 17.7074 13.4712C17.9983 13.5291 18.2999 13.4994 18.574 13.3858C18.8481 13.2723 19.0824 13.08 19.2472 12.8334C19.412 12.5867 19.5 12.2967 19.5 12C19.5 11.6022 19.342 11.2206 19.0607 10.9393C18.7794 10.658 18.3978 10.5 18 10.5ZM18 12.5C17.9011 12.5 17.8044 12.4707 17.7222 12.4157C17.64 12.3608 17.5759 12.2827 17.5381 12.1913C17.5002 12.1 17.4903 11.9994 17.5096 11.9025C17.5289 11.8055 17.5765 11.7164 17.6464 11.6464C17.7164 11.5765 17.8055 11.5289 17.9025 11.5096C17.9994 11.4903 18.1 11.5002 18.1913 11.5381C18.2827 11.5759 18.3608 11.64 18.4157 11.7222C18.4707 11.8044 18.5 11.9011 18.5 12C18.5 12.1326 18.4473 12.2598 18.3536 12.3536C18.2598 12.4473 18.1326 12.5 18 12.5Z" fill="#24394A"/>
</svg>
