<svg viewBox="0 0 24 24" fill="#24394A" xmlns="http://www.w3.org/2000/svg">
<path d="M13.17 2.5H7C5.62 2.5 4.5 3.62 4.5 5V19C4.5 20.38 5.62 21.5 7 21.5H17C18.38 21.5 19.5 20.38 19.5 19V8.83C19.5 8.17 19.24 7.53 18.77 7.06L14.94 3.23C14.47 2.76 13.84 2.5 13.17 2.5ZM14.5 4.21L17.79 7.5H16C15.17 7.5 14.5 6.83 14.5 6V4.21ZM17 20.5H7C6.17 20.5 5.5 19.83 5.5 19V5C5.5 4.17 6.17 3.5 7 3.5H13C13.28 3.5 13.5 3.72 13.5 4V6C13.5 7.38 14.62 8.5 16 8.5H18C18.28 8.5 18.5 8.72 18.5 9V19C18.5 19.83 17.83 20.5 17 20.5Z" />
<path d="M16 11.5H8C7.72 11.5 7.5 11.72 7.5 12C7.5 12.28 7.72 12.5 8 12.5H16C16.28 12.5 16.5 12.28 16.5 12C16.5 11.72 16.28 11.5 16 11.5Z" />
<path d="M16 15.5H8C7.72 15.5 7.5 15.72 7.5 16C7.5 16.28 7.72 16.5 8 16.5H16C16.28 16.5 16.5 16.28 16.5 16C16.5 15.72 16.28 15.5 16 15.5Z" />
<path d="M8 8.5H11C11.28 8.5 11.5 8.28 11.5 8C11.5 7.72 11.28 7.5 11 7.5H8C7.72 7.5 7.5 7.72 7.5 8C7.5 8.28 7.72 8.5 8 8.5Z" />
</svg>
