<svg width="24" height="24" viewBox="0 0 24 24" fill="none" xmlns="http://www.w3.org/2000/svg">
<path d="M11.225 13.5512L7.225 11.5512C7.085 11.4812 6.915 11.4812 6.775 11.5512L2.785 13.5512C2.615 13.6312 2.505 13.8112 2.505 14.0012V19.0012C2.505 19.1912 2.615 19.3612 2.785 19.4513L6.78501 21.4513C6.85501 21.4913 6.935 21.5012 7.005 21.5012C7.07501 21.5012 7.155 21.4813 7.225 21.4513L11.225 19.4513C11.395 19.3713 11.505 19.1912 11.505 19.0012V14.0012C11.505 13.8112 11.395 13.6412 11.225 13.5512ZM7.005 12.5612L9.885 14.0012L7.005 15.4412L4.125 14.0012L7.005 12.5612ZM3.505 14.8112L6.505 16.3112V20.1912L3.505 18.6912V14.8112ZM7.505 20.1912V16.3112L10.505 14.8112V18.6912L7.505 20.1912Z" fill="#24394A"/>
<path d="M21.225 13.5512L17.225 11.5512C17.085 11.4812 16.915 11.4812 16.775 11.5512L12.775 13.5512C12.605 13.6312 12.495 13.8112 12.495 14.0012V19.0012C12.495 19.1912 12.605 19.3612 12.775 19.4513L16.775 21.4513C16.845 21.4913 16.925 21.5012 16.995 21.5012C17.065 21.5012 17.145 21.4813 17.215 21.4513L21.215 19.4513C21.385 19.3713 21.495 19.1912 21.495 19.0012V14.0012C21.495 13.8112 21.385 13.6412 21.215 13.5512H21.225ZM17.005 12.5612L19.885 14.0012L17.005 15.4412L14.125 14.0012L17.005 12.5612ZM13.505 14.8112L16.505 16.3112V20.1912L13.505 18.6912V14.8112ZM17.505 20.1912V16.3112L20.505 14.8112V18.6912L17.505 20.1912Z" fill="#24394A"/>
<path d="M16.505 10.0012V5.00125C16.505 4.81125 16.395 4.64125 16.225 4.55125L12.225 2.55125C12.085 2.48125 11.915 2.48125 11.775 2.55125L7.78501 4.55125C7.61501 4.63125 7.505 4.81125 7.505 5.00125V10.0012C7.505 10.1912 7.61501 10.3612 7.78501 10.4512L11.785 12.4512C11.855 12.4912 11.935 12.5012 12.005 12.5012C12.075 12.5012 12.155 12.4812 12.225 12.4512L16.225 10.4512C16.395 10.3712 16.505 10.1912 16.505 10.0012ZM12.005 3.56125L14.885 5.00125L12.005 6.44125L9.125 5.00125L12.005 3.56125ZM8.505 5.81125L11.505 7.31125V11.1912L8.505 9.69125V5.81125ZM12.505 11.1912V7.31125L15.505 5.81125V9.69125L12.505 11.1912Z" fill="#24394A"/>
</svg>
