<svg width="24" height="24" viewBox="0 0 24 24" fill="none" xmlns="http://www.w3.org/2000/svg">
<path d="M20.01 6.5H19.01C18.73 6.5 18.51 6.28 18.51 6V5C18.51 4.73 18.28 4.5 18.01 4.5C14.38 4.5 12.71 5.54 12.01 6.22C11.31 5.54 9.64001 4.5 6.01001 4.5C5.74001 4.5 5.51001 4.72 5.51001 5V5.89C5.51001 6.28 5.29001 6.5 5.01001 6.5H4.01001C3.73001 6.5 3.51001 6.72 3.51001 7V19C3.51001 19.28 3.73001 19.5 4.01001 19.5H9.01001C9.29001 19.5 9.51001 19.28 9.51001 19C9.51001 18.72 9.29001 18.5 9.01001 18.5H5.01001C4.73001 18.5 4.51001 18.28 4.51001 18V7.5H5.51001V17C5.51001 17.28 5.74001 17.5 6.02001 17.5C10.56 17.5 11.56 19.21 11.56 19.22C11.64 19.39 11.81 19.49 12 19.49C12.18 19.49 12.35 19.39 12.44 19.23C12.44 19.21 13.45 17.5 17.98 17.5C18.26 17.5 18.49 17.28 18.49 17V7.5H19.49V18C19.49 18.28 19.27 18.5 18.99 18.5H14.99C14.71 18.5 14.49 18.72 14.49 19C14.49 19.28 14.71 19.5 14.99 19.5H19.99C20.27 19.5 20.49 19.28 20.49 19V7C20.49 6.72 20.27 6.5 19.99 6.5H20.01ZM6.51001 16.03V6.03C6.51001 5.74 6.75001 5.51 7.04001 5.53C9.80001 5.71 10.97 6.57 11.37 6.99C11.46 7.08 11.51 7.21 11.51 7.34V16.95C11.51 17.32 11.13 17.56 10.8 17.4C9.97001 16.99 8.76001 16.63 6.99001 16.53C6.72001 16.51 6.51001 16.3 6.51001 16.03ZM17.03 16.53C15.27 16.63 14.05 17 13.22 17.4C12.89 17.56 12.51 17.32 12.51 16.95V7.34C12.51 7.21 12.56 7.09 12.65 6.99C13.06 6.56 14.22 5.7 16.98 5.53C17.27 5.51 17.51 5.75 17.51 6.03V16.03C17.51 16.3 17.29 16.51 17.03 16.53Z" fill="#24394A"/>
</svg>
