<svg width="24" height="24" viewBox="0 0 24 24" fill="none" xmlns="http://www.w3.org/2000/svg">
<path d="M12.7396 16.2059C12.6629 16.157 12.6003 16.0887 12.5582 16.008C12.5161 15.9273 12.4959 15.8369 12.4996 15.7459V11.4959C12.4996 11.3633 12.447 11.2361 12.3532 11.1424C12.2594 11.0486 12.1322 10.9959 11.9996 10.9959C11.8678 10.9985 11.7421 11.052 11.6489 11.1452C11.5557 11.2384 11.5022 11.3641 11.4996 11.4959V15.7459C11.5034 15.8369 11.4832 15.9273 11.4411 16.008C11.399 16.0887 11.3364 16.157 11.2596 16.2059C11.029 16.3331 10.8368 16.52 10.7031 16.7469C10.5694 16.9738 10.4991 17.2325 10.4996 17.4959C10.4996 17.8937 10.6577 18.2753 10.939 18.5566C11.2203 18.8379 11.6018 18.9959 11.9996 18.9959C12.3975 18.9959 12.779 18.8379 13.0603 18.5566C13.3416 18.2753 13.4996 17.8937 13.4996 17.4959C13.5001 17.2325 13.4299 16.9738 13.2962 16.7469C13.1625 16.52 12.9703 16.3331 12.7396 16.2059ZM11.9996 17.9959C11.867 17.9959 11.7399 17.9432 11.6461 17.8495C11.5523 17.7557 11.4996 17.6285 11.4996 17.4959C11.5022 17.3641 11.5557 17.2384 11.6489 17.1452C11.7421 17.052 11.8678 16.9985 11.9996 16.9959C12.1322 16.9959 12.2594 17.0486 12.3532 17.1424C12.447 17.2361 12.4996 17.3633 12.4996 17.4959C12.4996 17.6285 12.447 17.7557 12.3532 17.8495C12.2594 17.9432 12.1322 17.9959 11.9996 17.9959Z" fill="#24394A"/>
<path d="M19.8096 10.1459C19.1459 8.60249 18.0396 7.2904 16.6305 6.37536C15.2215 5.46032 13.5728 4.98339 11.8929 5.00479C10.2129 5.02619 8.57696 5.54497 7.19167 6.4956C5.80638 7.44624 4.73388 8.78608 4.10964 10.3459C3.69156 11.3806 3.48334 12.4881 3.49707 13.6039C3.51081 14.7198 3.74623 15.8218 4.18964 16.8459C4.22867 16.9353 4.29302 17.0114 4.37476 17.0647C4.4565 17.118 4.55205 17.1462 4.64964 17.1459C4.71565 17.1591 4.78363 17.1591 4.84964 17.1459L8.51964 15.4959C8.63899 15.4449 8.73439 15.3503 8.78642 15.2314C8.83844 15.1125 8.84317 14.9782 8.79964 14.8559C8.61127 14.432 8.5098 13.9747 8.50121 13.511C8.49262 13.0472 8.5771 12.5865 8.74964 12.1559C8.91812 11.7289 9.17038 11.3399 9.49154 11.0119C9.81269 10.6838 10.1963 10.4234 10.6196 10.2459C11.4778 9.89144 12.4415 9.89144 13.2996 10.2459C13.7273 10.4155 14.1172 10.668 14.4469 10.9888C14.7767 11.3096 15.0397 11.6925 15.2209 12.1154C15.4022 12.5382 15.498 12.9927 15.5029 13.4528C15.5078 13.9128 15.4218 14.3693 15.2496 14.7959C15.2253 14.857 15.2132 14.9222 15.2141 14.988C15.215 15.0537 15.2288 15.1186 15.2548 15.179C15.2809 15.2393 15.3185 15.294 15.3657 15.3398C15.4128 15.3856 15.4685 15.4217 15.5296 15.4459L19.2396 16.9359C19.3026 16.9455 19.3667 16.9455 19.4296 16.9359C19.511 16.9325 19.5902 16.9084 19.6596 16.8659H19.7196C19.7934 16.8186 19.8497 16.7483 19.8796 16.6659C20.3031 15.6293 20.5151 14.5185 20.5031 13.3988C20.4911 12.2792 20.2553 11.1732 19.8096 10.1459ZM16.4096 14.2759C16.5195 13.728 16.5195 13.1638 16.4096 12.6159C16.3851 12.5007 16.4005 12.3805 16.4532 12.2752C16.5058 12.1698 16.5927 12.0854 16.6996 12.0359L18.5796 11.2359C18.6442 11.2074 18.7141 11.1928 18.7847 11.1932C18.8553 11.1936 18.925 11.209 18.9892 11.2383C19.0535 11.2675 19.1108 11.3101 19.1574 11.3631C19.204 11.4162 19.2388 11.4784 19.2596 11.5459C19.5746 12.7693 19.5746 14.0525 19.2596 15.2759C19.2408 15.3439 19.2079 15.4071 19.1629 15.4615C19.1179 15.5158 19.0619 15.56 18.9987 15.5912C18.9354 15.6223 18.8662 15.6398 18.7957 15.6423C18.7252 15.6449 18.655 15.6324 18.5896 15.6059L16.6896 14.8459C16.5866 14.7952 16.5032 14.7117 16.4525 14.6086C16.4019 14.5055 16.3868 14.3885 16.4096 14.2759ZM7.32964 14.9559L5.44964 15.7659C5.38762 15.7953 5.32022 15.8116 5.25162 15.8139C5.18302 15.8161 5.1147 15.8042 5.0509 15.7788C4.98711 15.7535 4.92922 15.7153 4.88083 15.6666C4.83244 15.618 4.79459 15.5598 4.76964 15.4959C4.44975 14.2765 4.44975 12.9953 4.76964 11.7759C4.78844 11.7079 4.82141 11.6447 4.8664 11.5903C4.91138 11.536 4.96734 11.4918 5.03062 11.4606C5.0939 11.4295 5.16306 11.412 5.23356 11.4095C5.30405 11.407 5.37428 11.4194 5.43964 11.4459L7.33964 12.2059C7.44758 12.2519 7.53636 12.3337 7.59101 12.4376C7.64566 12.5414 7.66284 12.6609 7.63964 12.7759C7.53456 13.3243 7.53456 13.8876 7.63964 14.4359C7.65368 14.5448 7.63076 14.6552 7.57455 14.7495C7.51834 14.8438 7.43209 14.9165 7.32964 14.9559ZM7.65964 11.2259L5.76964 10.4959C5.70289 10.4716 5.64221 10.4331 5.59181 10.3831C5.54142 10.333 5.50251 10.2726 5.47778 10.206C5.45304 10.1394 5.44308 10.0683 5.44859 9.99747C5.45409 9.92665 5.47492 9.85788 5.50964 9.79591C6.13275 8.68956 7.02758 7.76031 8.10964 7.09591C8.17144 7.0622 8.23956 7.04165 8.3097 7.03555C8.37984 7.02945 8.45048 7.03795 8.51717 7.06049C8.58387 7.08304 8.64518 7.11915 8.69723 7.16655C8.74929 7.21395 8.79096 7.27161 8.81964 7.33591L9.61964 9.21591C9.66412 9.32378 9.66948 9.44381 9.63478 9.55522C9.60008 9.66662 9.52751 9.76238 9.42964 9.82591C8.9729 10.1477 8.57962 10.5511 8.26964 11.0159C8.20913 11.1173 8.11469 11.194 8.00304 11.2325C7.89139 11.2709 7.76974 11.2686 7.65964 11.2259ZM10.5396 8.82591L9.73964 6.94591C9.71109 6.88134 9.69654 6.81146 9.69694 6.74086C9.69735 6.67027 9.7127 6.60056 9.74198 6.53632C9.77127 6.47208 9.81382 6.41477 9.86685 6.36816C9.91988 6.32156 9.98217 6.28671 10.0496 6.26591C11.273 5.95094 12.5563 5.95094 13.7796 6.26591C13.848 6.28589 13.9114 6.31995 13.9658 6.36591C14.0201 6.41187 14.0643 6.46871 14.0954 6.53276C14.1265 6.59682 14.1438 6.66667 14.1462 6.73783C14.1487 6.80898 14.1362 6.87986 14.1096 6.94591L13.3496 8.83591C13.3036 8.94386 13.2218 9.03264 13.118 9.08728C13.0142 9.14193 12.8947 9.15911 12.7796 9.13591C12.2313 9.03083 11.668 9.03083 11.1196 9.13591C11.0019 9.16098 10.8791 9.14362 10.773 9.08688C10.6669 9.03015 10.5842 8.93771 10.5396 8.82591ZM14.2796 9.15591L14.9996 7.26591C15.0264 7.19989 15.0666 7.1402 15.1179 7.09069C15.1691 7.04117 15.2301 7.00294 15.297 6.97845C15.3639 6.95395 15.4351 6.94374 15.5062 6.94847C15.5773 6.9532 15.6466 6.97277 15.7096 7.00591C16.804 7.63089 17.7199 8.52607 18.3696 9.60591C18.4066 9.66697 18.4298 9.73537 18.4376 9.80633C18.4454 9.87729 18.4376 9.94909 18.4147 10.0167C18.3919 10.0844 18.3545 10.1462 18.3053 10.1978C18.256 10.2495 18.1961 10.2898 18.1296 10.3159L16.2596 11.1159C16.1503 11.1611 16.0287 11.1668 15.9156 11.1321C15.8024 11.0975 15.7049 11.0246 15.6396 10.9259C15.3206 10.4668 14.9167 10.0731 14.4496 9.76591C14.3567 9.69827 14.2894 9.60122 14.2585 9.49049C14.2276 9.37977 14.2351 9.26187 14.2796 9.15591Z" fill="#24394A"/>
</svg>
