<svg viewBox="0 0 24 24" fill="#24394A" xmlns="http://www.w3.org/2000/svg">
<path d="M15.5 7.5H8.5C8.10218 7.5 7.72064 7.65804 7.43934 7.93934C7.15804 8.22064 7 8.60218 7 9V19C7 19.3978 7.15804 19.7794 7.43934 20.0607C7.72064 20.342 8.10218 20.5 8.5 20.5H15.5C15.8978 20.5 16.2794 20.342 16.5607 20.0607C16.842 19.7794 17 19.3978 17 19V9C17 8.60218 16.842 8.22064 16.5607 7.93934C16.2794 7.65804 15.8978 7.5 15.5 7.5ZM16 19C16 19.1326 15.9473 19.2598 15.8536 19.3536C15.7598 19.4473 15.6326 19.5 15.5 19.5H8.5C8.36739 19.5 8.24021 19.4473 8.14645 19.3536C8.05268 19.2598 8 19.1326 8 19V9C8 8.86739 8.05268 8.74021 8.14645 8.64645C8.24021 8.55268 8.36739 8.5 8.5 8.5H15.5C15.6326 8.5 15.7598 8.55268 15.8536 8.64645C15.9473 8.74021 16 8.86739 16 9V19Z" />
<path d="M17 5.5H15C14.8674 5.5 14.7402 5.44732 14.6464 5.35355C14.5527 5.25979 14.5 5.13261 14.5 5C14.5 4.60218 14.342 4.22064 14.0607 3.93934C13.7794 3.65804 13.3978 3.5 13 3.5H11C10.6022 3.5 10.2206 3.65804 9.93934 3.93934C9.65804 4.22064 9.5 4.60218 9.5 5C9.5 5.13261 9.44732 5.25979 9.35355 5.35355C9.25979 5.44732 9.13261 5.5 9 5.5H7C6.86739 5.5 6.74021 5.55268 6.64645 5.64645C6.55268 5.74021 6.5 5.86739 6.5 6C6.5 6.13261 6.55268 6.25979 6.64645 6.35355C6.74021 6.44732 6.86739 6.5 7 6.5H17C17.1326 6.5 17.2598 6.44732 17.3536 6.35355C17.4473 6.25979 17.5 6.13261 17.5 6C17.5 5.86739 17.4473 5.74021 17.3536 5.64645C17.2598 5.55268 17.1326 5.5 17 5.5ZM10.5 5.5V5C10.5 4.86739 10.5527 4.74021 10.6464 4.64645C10.7402 4.55268 10.8674 4.5 11 4.5H13C13.1326 4.5 13.2598 4.55268 13.3536 4.64645C13.4473 4.74021 13.5 4.86739 13.5 5V5.5H10.5Z" />
</svg>
