<svg viewBox="0 0 24 24" fill="#24394A" xmlns="http://www.w3.org/2000/svg">
<path d="M16.35 6.65C16.3051 6.60217 16.2509 6.56405 16.1907 6.53799C16.1305 6.51193 16.0656 6.49848 16 6.49848C15.9344 6.49848 15.8695 6.51193 15.8093 6.53799C15.7491 6.56405 15.6949 6.60217 15.65 6.65L4.64999 17.65C4.60216 17.6949 4.56404 17.7491 4.53798 17.8093C4.51192 17.8695 4.49847 17.9344 4.49847 18C4.49847 18.0656 4.51192 18.1305 4.53798 18.1907C4.56404 18.2509 4.60216 18.3051 4.64999 18.35L5.64999 19.35C5.69488 19.3978 5.7491 19.436 5.8093 19.462C5.8695 19.4881 5.9344 19.5015 5.99999 19.5015C6.06559 19.5015 6.13049 19.4881 6.19069 19.462C6.25089 19.436 6.3051 19.3978 6.34999 19.35L17.35 8.35C17.3978 8.30511 17.4359 8.25089 17.462 8.19069C17.4881 8.1305 17.5015 8.0656 17.5015 8C17.5015 7.9344 17.4881 7.8695 17.462 7.80931C17.4359 7.74911 17.3978 7.69489 17.35 7.65L16.35 6.65ZM7.99999 16.29L7.70999 16L14 9.71L14.29 10L7.99999 16.29ZM5.99999 18.29L5.70999 18L6.99999 16.71L7.28999 17L5.99999 18.29ZM15 9.29L14.71 9L16 7.71L16.29 8L15 9.29Z" />
<path d="M16 10.5C15.8674 10.5 15.7402 10.5527 15.6464 10.6464C15.5527 10.7402 15.5 10.8674 15.5 11V12C15.5 12.1326 15.5527 12.2598 15.6464 12.3536C15.7402 12.4473 15.8674 12.5 16 12.5C16.1326 12.5 16.2598 12.4473 16.3535 12.3536C16.4473 12.2598 16.5 12.1326 16.5 12V11C16.5 10.8674 16.4473 10.7402 16.3535 10.6464C16.2598 10.5527 16.1326 10.5 16 10.5Z" />
<path d="M16 5.5C16.1326 5.5 16.2598 5.44732 16.3535 5.35355C16.4473 5.25979 16.5 5.13261 16.5 5V4C16.5 3.86739 16.4473 3.74021 16.3535 3.64645C16.2598 3.55268 16.1326 3.5 16 3.5C15.8674 3.5 15.7402 3.55268 15.6464 3.64645C15.5527 3.74021 15.5 3.86739 15.5 4V5C15.5 5.13261 15.5527 5.25979 15.6464 5.35355C15.7402 5.44732 15.8674 5.5 16 5.5Z" />
<path d="M20 7.5H19C18.8674 7.5 18.7402 7.55268 18.6464 7.64645C18.5527 7.74021 18.5 7.86739 18.5 8C18.5 8.13261 18.5527 8.25979 18.6464 8.35355C18.7402 8.44732 18.8674 8.5 19 8.5H20C20.1326 8.5 20.2598 8.44732 20.3535 8.35355C20.4473 8.25979 20.5 8.13261 20.5 8C20.5 7.86739 20.4473 7.74021 20.3535 7.64645C20.2598 7.55268 20.1326 7.5 20 7.5Z" />
<path d="M12 8.5H13C13.1326 8.5 13.2598 8.44732 13.3535 8.35355C13.4473 8.25979 13.5 8.13261 13.5 8C13.5 7.86739 13.4473 7.74021 13.3535 7.64645C13.2598 7.55268 13.1326 7.5 13 7.5H12C11.8674 7.5 11.7402 7.55268 11.6464 7.64645C11.5527 7.74021 11.5 7.86739 11.5 8C11.5 8.13261 11.5527 8.25979 11.6464 8.35355C11.7402 8.44732 11.8674 8.5 12 8.5Z" />
<path d="M18.12 6.38C18.1856 6.3808 18.2506 6.36787 18.3109 6.34203C18.3711 6.3162 18.4253 6.27804 18.47 6.23L19.18 5.53C19.2269 5.48352 19.2641 5.42822 19.2894 5.36729C19.3148 5.30636 19.3279 5.24101 19.3279 5.175C19.3279 5.10899 19.3148 5.04364 19.2894 4.98271C19.2641 4.92178 19.2269 4.86648 19.18 4.82C19.1351 4.77217 19.0809 4.73405 19.0207 4.70799C18.9605 4.68193 18.8956 4.66848 18.83 4.66848C18.7644 4.66848 18.6995 4.68193 18.6393 4.70799C18.5791 4.73405 18.5249 4.77217 18.48 4.82L17.77 5.53C17.7015 5.59989 17.655 5.68834 17.6362 5.78441C17.6175 5.88048 17.6274 5.97992 17.6647 6.07042C17.7019 6.16092 17.7649 6.2385 17.8459 6.29353C17.9268 6.34856 18.0221 6.37863 18.12 6.38Z" />
<path d="M13.53 6.23C13.5746 6.27804 13.6288 6.3162 13.6891 6.34203C13.7494 6.36787 13.8144 6.3808 13.88 6.38C13.9779 6.37863 14.0732 6.34856 14.1541 6.29353C14.235 6.2385 14.298 6.16092 14.3353 6.07042C14.3726 5.97992 14.3825 5.88048 14.3637 5.78441C14.345 5.68834 14.2985 5.59989 14.23 5.53L13.52 4.82C13.4751 4.77217 13.4209 4.73405 13.3607 4.70799C13.3005 4.68193 13.2356 4.66848 13.17 4.66848C13.1044 4.66848 13.0395 4.68193 12.9793 4.70799C12.9191 4.73405 12.8649 4.77217 12.82 4.82C12.7731 4.86648 12.7359 4.92178 12.7105 4.98271C12.6852 5.04364 12.6721 5.10899 12.6721 5.175C12.6721 5.24101 12.6852 5.30636 12.7105 5.36729C12.7359 5.42822 12.7731 5.48352 12.82 5.53L13.53 6.23Z" />
<path d="M18.47 9.77C18.424 9.72404 18.3695 9.68758 18.3094 9.6627C18.2494 9.63783 18.185 9.62502 18.12 9.62502C18.055 9.62502 17.9906 9.63783 17.9306 9.6627C17.8705 9.68758 17.816 9.72404 17.77 9.77C17.724 9.81596 17.6876 9.87053 17.6627 9.93058C17.6378 9.99063 17.625 10.055 17.625 10.12C17.625 10.185 17.6378 10.2494 17.6627 10.3094C17.6876 10.3695 17.724 10.424 17.77 10.47L18.48 11.18C18.5246 11.228 18.5788 11.2662 18.6391 11.292C18.6994 11.3179 18.7644 11.3308 18.83 11.33C18.8954 11.3296 18.96 11.3162 19.0202 11.2904C19.0803 11.2646 19.1346 11.2271 19.18 11.18C19.2269 11.1335 19.2641 11.0782 19.2894 11.0173C19.3148 10.9564 19.3279 10.891 19.3279 10.825C19.3279 10.759 19.3148 10.6936 19.2894 10.6327C19.2641 10.5718 19.2269 10.5165 19.18 10.47L18.47 9.77Z" />
</svg>
