<svg width="24" height="24" viewBox="0 0 24 24" fill="none" xmlns="http://www.w3.org/2000/svg">
<path d="M12.6492 9.64924L9.99924 12.2892L8.84924 11.1492C8.75641 11.0564 8.63052 11.0043 8.49924 11.0043C8.36796 11.0043 8.24207 11.0564 8.14924 11.1492C8.05641 11.2421 8.00426 11.368 8.00426 11.4992C8.00426 11.6305 8.05641 11.7564 8.14924 11.8492L9.64924 13.3492C9.69413 13.3971 9.74835 13.4352 9.80855 13.4613C9.86874 13.4873 9.93364 13.5008 9.99924 13.5008C10.0648 13.5008 10.1297 13.4873 10.1899 13.4613C10.2501 13.4352 10.3044 13.3971 10.3492 13.3492L13.3492 10.3492C13.4421 10.2564 13.4942 10.1305 13.4942 9.99924C13.4942 9.86796 13.4421 9.74206 13.3492 9.64924C13.2564 9.55641 13.1305 9.50426 12.9992 9.50426C12.868 9.50426 12.7421 9.55641 12.6492 9.64924Z" fill="#24394A"/>
<path d="M10.9992 4.49924C9.71366 4.49924 8.45695 4.88046 7.38803 5.59468C6.31911 6.30891 5.48599 7.32408 4.99402 8.5118C4.50205 9.69951 4.37333 11.0064 4.62414 12.2673C4.87494 13.5282 5.494 14.6864 6.40305 15.5954C7.31209 16.5045 8.47028 17.1235 9.73115 17.3743C10.992 17.6251 12.299 17.4964 13.4867 17.0045C14.6744 16.5125 15.6896 15.6794 16.4038 14.6104C17.118 13.5415 17.4992 12.2848 17.4992 10.9992C17.4966 9.27614 16.8109 7.62438 15.5925 6.40596C14.3741 5.18755 12.7223 4.50188 10.9992 4.49924ZM10.9992 16.4992C9.91144 16.4992 8.84807 16.1767 7.9436 15.5723C7.03913 14.968 6.33418 14.109 5.9179 13.104C5.50162 12.099 5.3927 10.9931 5.60492 9.92624C5.81714 8.85934 6.34096 7.87934 7.11015 7.11015C7.87934 6.34096 8.85935 5.81714 9.92624 5.60492C10.9931 5.3927 12.099 5.50162 13.104 5.9179C14.109 6.33418 14.968 7.03913 15.5723 7.9436C16.1767 8.84807 16.4992 9.91144 16.4992 10.9992C16.4966 12.4571 15.9163 13.8545 14.8854 14.8854C13.8545 15.9163 12.4571 16.4966 10.9992 16.4992Z" fill="#24394A"/>
<path d="M19.3492 18.6492L17.3492 16.6492C17.2564 16.5564 17.1305 16.5043 16.9992 16.5043C16.868 16.5043 16.7421 16.5564 16.6492 16.6492C16.5564 16.7421 16.5043 16.868 16.5043 16.9992C16.5043 17.1305 16.5564 17.2564 16.6492 17.3492L18.6492 19.3492C18.6941 19.3971 18.7483 19.4352 18.8085 19.4613C18.8687 19.4873 18.9336 19.5008 18.9992 19.5008C19.0648 19.5008 19.1297 19.4873 19.1899 19.4613C19.2501 19.4352 19.3043 19.3971 19.3492 19.3492C19.3971 19.3043 19.4352 19.2501 19.4613 19.1899C19.4873 19.1297 19.5008 19.0648 19.5008 18.9992C19.5008 18.9336 19.4873 18.8687 19.4613 18.8085C19.4352 18.7483 19.3971 18.6941 19.3492 18.6492Z" fill="#24394A"/>
</svg>
