<svg width="24" height="24" viewBox="0 0 24 24" fill="none" xmlns="http://www.w3.org/2000/svg">
<path d="M13 11.5H11C10.17 11.5 9.5 10.83 9.5 10C9.5 9.17 10.17 8.5 11 8.5H13.17C13.57 8.5 13.95 8.66 14.23 8.94C14.43 9.14 14.74 9.14 14.94 8.94C15.14 8.74 15.14 8.43 14.94 8.23C14.47 7.76 13.84 7.5 13.17 7.5H12.5V7C12.5 6.72 12.28 6.5 12 6.5C11.72 6.5 11.5 6.72 11.5 7V7.5H11C9.62 7.5 8.5 8.62 8.5 10C8.5 11.38 9.62 12.5 11 12.5H13C13.83 12.5 14.5 13.17 14.5 14C14.5 14.83 13.83 15.5 13 15.5H10.83C10.43 15.5 10.05 15.34 9.77 15.06C9.57 14.86 9.26 14.86 9.06 15.06C8.86 15.26 8.86 15.57 9.06 15.77C9.53 16.24 10.16 16.5 10.83 16.5H11.5V17C11.5 17.28 11.72 17.5 12 17.5C12.28 17.5 12.5 17.28 12.5 17V16.5H13C14.38 16.5 15.5 15.38 15.5 14C15.5 12.62 14.38 11.5 13 11.5Z" fill="#24394A"/>
<path d="M12 3.5C7.31 3.5 3.5 7.31 3.5 12C3.5 16.69 7.31 20.5 12 20.5C16.69 20.5 20.5 16.69 20.5 12C20.5 7.31 16.69 3.5 12 3.5ZM12 19.5C7.86 19.5 4.5 16.14 4.5 12C4.5 7.86 7.86 4.5 12 4.5C16.14 4.5 19.5 7.86 19.5 12C19.5 16.14 16.14 19.5 12 19.5Z" fill="#24394A"/>
</svg>
