<svg viewBox="0 0 24 24" fill="#24394A" xmlns="http://www.w3.org/2000/svg">
<path d="M8.30001 8.6C8.24748 8.5606 8.1877 8.53194 8.1241 8.51564C8.06049 8.49935 7.9943 8.49574 7.9293 8.50502C7.79802 8.52378 7.67957 8.59391 7.60001 8.7C7.52044 8.80609 7.48628 8.93944 7.50503 9.07071C7.52379 9.20199 7.59392 9.32043 7.70001 9.4L11.7 12.4C11.7779 12.4584 11.8726 12.49 11.97 12.49C12.0674 12.49 12.1621 12.4584 12.24 12.4L16.24 9.4C16.3461 9.32043 16.4162 9.20199 16.435 9.07071C16.4537 8.93944 16.4196 8.80609 16.34 8.7C16.2604 8.59391 16.142 8.52378 16.0107 8.50502C15.8794 8.48627 15.7461 8.52044 15.64 8.6L12.84 10.7C12.8029 10.7279 12.7587 10.7448 12.7125 10.749C12.6662 10.7532 12.6197 10.7444 12.5782 10.7236C12.5367 10.7028 12.5018 10.6709 12.4773 10.6314C12.4529 10.5919 12.44 10.5464 12.44 10.5V4C12.44 3.86739 12.3873 3.74021 12.2936 3.64645C12.1998 3.55268 12.0726 3.5 11.94 3.5C11.8074 3.5 11.6802 3.55268 11.5865 3.64645C11.4927 3.74021 11.44 3.86739 11.44 4V10.5C11.44 10.5464 11.4271 10.5919 11.4027 10.6314C11.3783 10.6709 11.3433 10.7028 11.3018 10.7236C11.2603 10.7444 11.2138 10.7532 11.1676 10.749C11.1213 10.7448 11.0771 10.7279 11.04 10.7L8.30001 8.6Z" />
<path d="M15.7 12.6L12 15.38L8.30001 12.6C8.24748 12.5606 8.1877 12.5319 8.1241 12.5156C8.06049 12.4993 7.9943 12.4957 7.9293 12.505C7.79802 12.5238 7.67957 12.5939 7.60001 12.7C7.52044 12.8061 7.48628 12.9394 7.50503 13.0707C7.52379 13.202 7.59392 13.3204 7.70001 13.4L11.7 16.4C11.7866 16.4649 11.8918 16.5 12 16.5C12.1082 16.5 12.2135 16.4649 12.3 16.4L16.3 13.4C16.4061 13.3204 16.4762 13.202 16.495 13.0707C16.5137 12.9394 16.4796 12.8061 16.4 12.7C16.3204 12.5939 16.202 12.5238 16.0707 12.505C15.9394 12.4863 15.8061 12.5204 15.7 12.6Z" />
<path d="M18 3.5H16C15.8674 3.5 15.7402 3.55268 15.6465 3.64645C15.5527 3.74021 15.5 3.86739 15.5 4C15.5 4.13261 15.5527 4.25979 15.6465 4.35355C15.7402 4.44732 15.8674 4.5 16 4.5H18C18.4147 4.51819 18.8054 4.69989 19.0865 5.00536C19.3676 5.31083 19.5163 5.71519 19.5 6.13V17.87C19.5163 18.2848 19.3676 18.6892 19.0865 18.9946C18.8054 19.3001 18.4147 19.4818 18 19.5H6.00001C5.58528 19.4818 5.19464 19.3001 4.91353 18.9946C4.63243 18.6892 4.48374 18.2848 4.50001 17.87V6.13C4.48374 5.71519 4.63243 5.31083 4.91353 5.00536C5.19464 4.69989 5.58528 4.51819 6.00001 4.5H8.00001C8.13261 4.5 8.25979 4.44732 8.35356 4.35355C8.44733 4.25979 8.50001 4.13261 8.50001 4C8.50001 3.86739 8.44733 3.74021 8.35356 3.64645C8.25979 3.55268 8.13261 3.5 8.00001 3.5H6.00001C5.32009 3.51833 4.67517 3.80545 4.20657 4.29842C3.73796 4.7914 3.48388 5.45003 3.50001 6.13V17.87C3.48388 18.55 3.73796 19.2086 4.20657 19.7016C4.67517 20.1946 5.32009 20.4817 6.00001 20.5H18C18.6799 20.4817 19.3248 20.1946 19.7934 19.7016C20.2621 19.2086 20.5161 18.55 20.5 17.87V6.13C20.5161 5.45003 20.2621 4.7914 19.7934 4.29842C19.3248 3.80545 18.6799 3.51833 18 3.5Z" />
</svg>
