<svg width="24" height="24" viewBox="0 0 24 24" fill="none" xmlns="http://www.w3.org/2000/svg">
<path fill-rule="evenodd" clip-rule="evenodd" d="M11.0116 3.65073C11.8324 2.91289 12.8963 2.50324 14 2.5C14.5948 2.49473 15.1847 2.60715 15.7359 2.83081C16.287 3.05447 16.7885 3.38494 17.2114 3.8032C17.6343 4.22146 17.9703 4.71924 18.2 5.26789C18.4298 5.81653 18.5487 6.4052 18.55 7C18.55 7.13261 18.4973 7.25979 18.4035 7.35356C18.3098 7.44732 18.1826 7.5 18.05 7.5C17.9174 7.5 17.7902 7.44732 17.6964 7.35356C17.6027 7.25979 17.55 7.13261 17.55 7C17.6163 6.07174 17.3111 5.15517 16.7016 4.4519C16.0921 3.74864 15.2282 3.31631 14.3 3.25C13.3717 3.1837 12.4552 3.48886 11.7519 4.09835C11.0486 4.70784 10.6163 5.57174 10.55 6.5H12C12.1326 6.5 12.2598 6.55268 12.3535 6.64645C12.4473 6.74022 12.5 6.86739 12.5 7V8.61C12.495 8.71122 12.5187 8.81179 12.5682 8.90021C12.6177 8.98863 12.6911 9.06133 12.78 9.11C14.1174 9.73862 15.2007 10.8042 15.8512 12.1311C16.5018 13.4579 16.6808 14.9669 16.3588 16.4091C16.0367 17.8514 15.2328 19.1408 14.0796 20.0649C12.9264 20.989 11.4928 21.4926 10.015 21.4926C8.53722 21.4926 7.10356 20.989 5.95036 20.0649C4.79716 19.1408 3.99327 17.8514 3.67122 16.4091C3.34917 14.9669 3.52818 13.4579 4.17875 12.1311C4.82931 10.8042 5.91259 9.73862 7.24999 9.11C7.32771 9.06889 7.39234 9.0068 7.43653 8.93078C7.48073 8.85477 7.50271 8.76789 7.49999 8.68V7C7.49999 6.86739 7.55267 6.74022 7.64644 6.64645C7.74021 6.55268 7.86738 6.5 7.99999 6.5H9.54999C9.67044 5.40288 10.1908 4.38856 11.0116 3.65073ZM14.4604 11.7548C13.9165 11.0009 13.1905 10.3972 12.35 10C12.0962 9.86904 11.8829 9.67134 11.7331 9.42817C11.5834 9.185 11.5028 8.90558 11.5 8.62V7.5H8.49999V8.68C8.50054 8.95598 8.42286 9.22646 8.27596 9.46008C8.12906 9.69371 7.91895 9.88092 7.66999 10C6.55144 10.5311 5.64264 11.4211 5.08815 12.5282C4.53367 13.6354 4.36536 14.8962 4.60999 16.11C4.82543 17.147 5.33678 18.0994 6.08217 18.8519C6.82756 19.6044 7.77505 20.1247 8.80999 20.35C9.62042 20.5226 10.4591 20.5125 11.2652 20.3205C12.0712 20.1285 12.8244 19.7594 13.47 19.24C14.1912 18.6535 14.7521 17.8938 15.1001 17.0318C15.4481 16.1699 15.572 15.2337 15.4601 14.3109C15.3483 13.3881 15.0043 12.5086 14.4604 11.7548Z" fill="#24394A"/>
<path d="M19.77 5.94C19.6746 6.03572 19.5451 6.08967 19.41 6.09C19.2781 6.08812 19.1523 6.03421 19.06 5.94C18.9677 5.84485 18.9162 5.71753 18.9162 5.585C18.9162 5.45247 18.9677 5.32515 19.06 5.23L19.77 4.53C19.8628 4.43718 19.9887 4.38503 20.12 4.38503C20.2513 4.38503 20.3772 4.43718 20.47 4.53C20.5628 4.62283 20.615 4.74873 20.615 4.88C20.615 5.01128 20.5628 5.13718 20.47 5.23L19.77 5.94Z" fill="#24394A"/>
<path d="M16.5 7C16.5 6.86739 16.4473 6.74022 16.3535 6.64645C16.2598 6.55268 16.1326 6.5 16 6.5H15C14.8674 6.5 14.7402 6.55268 14.6464 6.64645C14.5527 6.74022 14.5 6.86739 14.5 7C14.5 7.13261 14.5527 7.25979 14.6464 7.35356C14.7402 7.44732 14.8674 7.5 15 7.5H16C16.1326 7.5 16.2598 7.44732 16.3535 7.35356C16.4473 7.25979 16.5 7.13261 16.5 7Z" fill="#24394A"/>
<path d="M21 6.5H20C19.8674 6.5 19.7402 6.55268 19.6464 6.64645C19.5527 6.74022 19.5 6.86739 19.5 7C19.5 7.13261 19.5527 7.25979 19.6464 7.35356C19.7402 7.44732 19.8674 7.5 20 7.5H21C21.1326 7.5 21.2598 7.44732 21.3535 7.35356C21.4473 7.25979 21.5 7.13261 21.5 7C21.5 6.86739 21.4473 6.74022 21.3535 6.64645C21.2598 6.55268 21.1326 6.5 21 6.5Z" fill="#24394A"/>
<path d="M17.6464 8.64645C17.7402 8.55268 17.8674 8.5 18 8.5C18.1326 8.5 18.2598 8.55268 18.3535 8.64645C18.4473 8.74022 18.5 8.86739 18.5 9V10C18.5 10.1326 18.4473 10.2598 18.3535 10.3536C18.2598 10.4473 18.1326 10.5 18 10.5C17.8674 10.5 17.7402 10.4473 17.6464 10.3536C17.5527 10.2598 17.5 10.1326 17.5 10V9C17.5 8.86739 17.5527 8.74022 17.6464 8.64645Z" fill="#24394A"/>
<path d="M16.23 8.06L15.53 8.77C15.4822 8.81489 15.444 8.86911 15.418 8.92931C15.3919 8.9895 15.3785 9.05441 15.3785 9.12C15.3785 9.1856 15.3919 9.2505 15.418 9.3107C15.444 9.37089 15.4822 9.42511 15.53 9.47C15.5746 9.51804 15.6288 9.5562 15.6891 9.58204C15.7494 9.60787 15.8144 9.6208 15.88 9.62C15.9454 9.61962 16.01 9.60615 16.0702 9.58039C16.1303 9.55463 16.1846 9.5171 16.23 9.47L16.94 8.77C16.9866 8.72338 17.0236 8.66804 17.0488 8.60713C17.0741 8.54622 17.087 8.48093 17.087 8.415C17.087 8.34907 17.0741 8.28379 17.0488 8.22288C17.0236 8.16197 16.9866 8.10662 16.94 8.06C16.8934 8.01338 16.838 7.9764 16.7771 7.95117C16.7162 7.92594 16.6509 7.91296 16.585 7.91296C16.5191 7.91296 16.4538 7.92594 16.3929 7.95117C16.332 7.9764 16.2766 8.01338 16.23 8.06Z" fill="#24394A"/>
<path d="M19.77 8.06C19.7234 8.01338 19.668 7.9764 19.6071 7.95117C19.5462 7.92594 19.4809 7.91296 19.415 7.91296C19.3491 7.91296 19.2838 7.92594 19.2229 7.95117C19.162 7.9764 19.1066 8.01338 19.06 8.06C19.0134 8.10662 18.9764 8.16197 18.9512 8.22288C18.9259 8.28379 18.9129 8.34907 18.9129 8.415C18.9129 8.48093 18.9259 8.54622 18.9512 8.60713C18.9764 8.66804 19.0134 8.72338 19.06 8.77L19.77 9.47C19.8154 9.5171 19.8697 9.55463 19.9298 9.58039C19.9899 9.60615 20.0546 9.61962 20.12 9.62C20.1856 9.6208 20.2506 9.60787 20.3109 9.58204C20.3711 9.5562 20.4253 9.51804 20.47 9.47C20.5178 9.42511 20.5559 9.37089 20.582 9.3107C20.6081 9.2505 20.6215 9.1856 20.6215 9.12C20.6215 9.05441 20.6081 8.9895 20.582 8.92931C20.5559 8.86911 20.5178 8.81489 20.47 8.77L19.77 8.06Z" fill="#24394A"/>
</svg>
