<svg width="24" height="24" viewBox="0 0 24 24" fill="none" xmlns="http://www.w3.org/2000/svg">
<path d="M15 3.5H9C8.33696 3.5 7.70107 3.76339 7.23223 4.23223C6.76339 4.70107 6.5 5.33696 6.5 6V18C6.5 18.3283 6.56466 18.6534 6.6903 18.9567C6.81594 19.26 7.00009 19.5356 7.23223 19.7678C7.46438 19.9999 7.73998 20.1841 8.04329 20.3097C8.34661 20.4353 8.6717 20.5 9 20.5H15C15.3283 20.5 15.6534 20.4353 15.9567 20.3097C16.26 20.1841 16.5356 19.9999 16.7678 19.7678C16.9999 19.5356 17.1841 19.26 17.3097 18.9567C17.4353 18.6534 17.5 18.3283 17.5 18V6C17.5 5.33696 17.2366 4.70107 16.7678 4.23223C16.2989 3.76339 15.663 3.5 15 3.5ZM16.5 18C16.5 18.3978 16.342 18.7794 16.0607 19.0607C15.7794 19.342 15.3978 19.5 15 19.5H9C8.60218 19.5 8.22064 19.342 7.93934 19.0607C7.65804 18.7794 7.5 18.3978 7.5 18V6C7.5 5.60218 7.65804 5.22064 7.93934 4.93934C8.22064 4.65804 8.60218 4.5 9 4.5H15C15.3978 4.5 15.7794 4.65804 16.0607 4.93934C16.342 5.22064 16.5 5.60218 16.5 6V18Z" fill="#24394A"/>
<path d="M14.5 12.5C14.3022 12.5 14.1089 12.5586 13.9444 12.6685C13.78 12.7784 13.6518 12.9346 13.5761 13.1173C13.5004 13.3 13.4806 13.5011 13.5192 13.6951C13.5578 13.8891 13.653 14.0673 13.7929 14.2071C13.9327 14.347 14.1109 14.4422 14.3049 14.4808C14.4989 14.5194 14.7 14.4996 14.8827 14.4239C15.0654 14.3482 15.2216 14.22 15.3315 14.0556C15.4414 13.8911 15.5 13.6978 15.5 13.5C15.5 13.2348 15.3946 12.9804 15.2071 12.7929C15.0196 12.6054 14.7652 12.5 14.5 12.5Z" fill="#24394A"/>
</svg>
