<svg viewBox="0 0 24 24" fill="#24394A" xmlns="http://www.w3.org/2000/svg">
<path d="M21.35 17.65L19.79 16.09C19.6073 15.8984 19.5037 15.6448 19.5 15.38V7C19.5 6.60218 19.342 6.22064 19.0607 5.93934C18.7794 5.65804 18.3978 5.5 18 5.5H6C5.60217 5.5 5.22064 5.65804 4.93934 5.93934C4.65803 6.22064 4.5 6.60218 4.5 7V15.38C4.49632 15.6448 4.39273 15.8984 4.21 16.09L2.65 17.65C2.57715 17.717 2.5273 17.8052 2.50755 17.9022C2.4878 17.9991 2.49916 18.0999 2.54 18.19C2.57751 18.2813 2.64121 18.3595 2.72307 18.4146C2.80493 18.4698 2.90129 18.4995 3 18.5H21C21.0987 18.4995 21.1951 18.4698 21.2769 18.4146C21.3588 18.3595 21.4225 18.2813 21.46 18.19C21.5008 18.0999 21.5122 17.9991 21.4924 17.9022C21.4727 17.8052 21.4228 17.717 21.35 17.65ZM5.5 7C5.5 6.86739 5.55268 6.74021 5.64645 6.64645C5.74021 6.55268 5.86739 6.5 6 6.5H18C18.1326 6.5 18.2598 6.55268 18.3536 6.64645C18.4473 6.74021 18.5 6.86739 18.5 7V15C18.5 15.1326 18.4473 15.2598 18.3536 15.3536C18.2598 15.4473 18.1326 15.5 18 15.5H6C5.86739 15.5 5.74021 15.4473 5.64645 15.3536C5.55268 15.2598 5.5 15.1326 5.5 15V7ZM4.21 17.5L5.06 16.65C5.10465 16.602 5.15885 16.5638 5.21913 16.538C5.27941 16.5121 5.34442 16.4992 5.41 16.5H18.59C18.6556 16.4992 18.7206 16.5121 18.7809 16.538C18.8411 16.5638 18.8954 16.602 18.94 16.65L19.79 17.5H4.21Z" />
<path d="M11.28 9.08C11.2044 9.02889 11.1162 8.99944 11.0251 8.99486C10.9339 8.99027 10.8433 9.01072 10.7629 9.05399C10.6826 9.09726 10.6156 9.16169 10.5692 9.24031C10.5229 9.31894 10.4989 9.40874 10.5 9.5V13.5C10.5008 13.5897 10.5253 13.6777 10.5709 13.7549C10.6166 13.8322 10.6818 13.896 10.76 13.94C10.8341 13.9787 10.9164 13.9992 11 14C11.0987 13.998 11.1952 13.9705 11.28 13.92L14.28 11.92C14.3481 11.8731 14.4037 11.8104 14.4422 11.7372C14.4806 11.6641 14.5007 11.5826 14.5007 11.5C14.5007 11.4174 14.4806 11.3359 14.4422 11.2628C14.4037 11.1896 14.3481 11.1269 14.28 11.08L11.28 9.08ZM11.5 12.57V10.43L13.1 11.5L11.5 12.57Z" />
</svg>
