<svg viewBox="0 0 24 24" fill="#24394A" xmlns="http://www.w3.org/2000/svg">
<path d="M18 7.5H16C15.8674 7.5 15.7402 7.44732 15.6464 7.35355C15.5527 7.25979 15.5 7.13261 15.5 7V6C15.5 5.60218 15.342 5.22064 15.0607 4.93934C14.7794 4.65804 14.3978 4.5 14 4.5H10C9.60218 4.5 9.22064 4.65804 8.93934 4.93934C8.65804 5.22064 8.5 5.60218 8.5 6V7C8.5 7.13261 8.44732 7.25979 8.35355 7.35355C8.25979 7.44732 8.13261 7.5 8 7.5H6C5.33696 7.5 4.70107 7.76339 4.23223 8.23223C3.76339 8.70107 3.5 9.33696 3.5 10V17C3.5 17.663 3.76339 18.2989 4.23223 18.7678C4.70107 19.2366 5.33696 19.5 6 19.5H18C18.3283 19.5 18.6534 19.4353 18.9567 19.3097C19.26 19.1841 19.5356 18.9999 19.7678 18.7678C19.9999 18.5356 20.1841 18.26 20.3097 17.9567C20.4353 17.6534 20.5 17.3283 20.5 17V10C20.5 9.6717 20.4353 9.34661 20.3097 9.04329C20.1841 8.73998 19.9999 8.46438 19.7678 8.23223C19.5356 8.00009 19.26 7.81594 18.9567 7.6903C18.6534 7.56466 18.3283 7.5 18 7.5ZM9.5 6C9.5 5.86739 9.55268 5.74021 9.64645 5.64645C9.74021 5.55268 9.86739 5.5 10 5.5H14C14.1326 5.5 14.2598 5.55268 14.3536 5.64645C14.4473 5.74021 14.5 5.86739 14.5 6V7C14.5 7.13261 14.4473 7.25979 14.3536 7.35355C14.2598 7.44732 14.1326 7.5 14 7.5H10C9.86739 7.5 9.74021 7.44732 9.64645 7.35355C9.55268 7.25979 9.5 7.13261 9.5 7V6ZM19.5 17C19.5 17.3978 19.342 17.7794 19.0607 18.0607C18.7794 18.342 18.3978 18.5 18 18.5H6C5.60218 18.5 5.22064 18.342 4.93934 18.0607C4.65804 17.7794 4.5 17.3978 4.5 17V10C4.5 9.60218 4.65804 9.22064 4.93934 8.93934C5.22064 8.65804 5.60218 8.5 6 8.5H18C18.3978 8.5 18.7794 8.65804 19.0607 8.93934C19.342 9.22064 19.5 9.60218 19.5 10V17Z" />
</svg>
