<svg width="24" height="24" viewBox="0 0 24 24" fill="none" xmlns="http://www.w3.org/2000/svg">
<path d="M18.7082 5.27676C17.8614 4.43588 16.7165 3.96397 15.5232 3.96397C14.3298 3.96397 13.1849 4.43588 12.3382 5.27676L10.2182 7.39676C10.1259 7.49191 10.0743 7.61923 10.0743 7.75176C10.0743 7.88429 10.1259 8.01161 10.2182 8.10676C10.2646 8.15362 10.3199 8.19082 10.3809 8.2162C10.4418 8.24159 10.5071 8.25466 10.5732 8.25466C10.6392 8.25466 10.7045 8.24159 10.7654 8.2162C10.8264 8.19082 10.8817 8.15362 10.9282 8.10676L13.0482 5.99676C13.7046 5.33372 14.5975 4.95859 15.5305 4.9539C16.4635 4.94922 17.3601 5.31535 18.0232 5.97176C18.6862 6.62817 19.0613 7.52109 19.066 8.45408C19.0707 9.38707 18.7046 10.2837 18.0482 10.9468L15.9282 13.0668C15.8813 13.1132 15.8441 13.1685 15.8187 13.2295C15.7933 13.2904 15.7803 13.3558 15.7803 13.4218C15.7803 13.4878 15.7933 13.5531 15.8187 13.614C15.8441 13.675 15.8813 13.7303 15.9282 13.7768C15.9737 13.823 16.0283 13.8593 16.0885 13.8834C16.1487 13.9075 16.2133 13.9188 16.2782 13.9168C16.3444 13.9185 16.4104 13.907 16.4722 13.8829C16.534 13.8589 16.5904 13.8228 16.6382 13.7768L18.7582 11.6568C19.5955 10.803 20.0603 9.65222 20.051 8.45643C20.0416 7.26064 19.5588 6.11729 18.7082 5.27676Z" fill="#24394A"/>
<path d="M13.0482 15.8868L10.9282 17.9968C10.2651 18.6532 9.36847 19.0193 8.43548 19.0146C7.50248 19.0099 6.60956 18.6348 5.95315 17.9718C5.29674 17.3087 4.93061 16.4121 4.9353 15.4791C4.93999 14.5461 5.31511 13.6532 5.97815 12.9968L8.09815 10.8768C8.14502 10.8303 8.18221 10.775 8.2076 10.714C8.23298 10.6531 8.24605 10.5878 8.24605 10.5218C8.24605 10.4558 8.23298 10.3904 8.2076 10.3295C8.18221 10.2685 8.14502 10.2132 8.09815 10.1668C8.003 10.0745 7.87568 10.0229 7.74315 10.0229C7.61063 10.0229 7.4833 10.0745 7.38815 10.1668L5.26815 12.3468C4.42344 13.1915 3.94888 14.3372 3.94888 15.5318C3.94888 16.7264 4.42344 17.872 5.26815 18.7168C6.11287 19.5615 7.25855 20.036 8.45315 20.036C9.64776 20.036 10.7934 19.5615 11.6382 18.7168L13.7582 16.5968C13.8504 16.5016 13.902 16.3743 13.902 16.2418C13.902 16.1092 13.8504 15.9819 13.7582 15.8868C13.7117 15.8399 13.6564 15.8027 13.5954 15.7773C13.5345 15.7519 13.4692 15.7389 13.4032 15.7389C13.3371 15.7389 13.2718 15.7519 13.2109 15.7773C13.1499 15.8027 13.0946 15.8399 13.0482 15.8868Z" fill="#24394A"/>
<path d="M13.7582 9.52676L9.51815 13.7668C9.47032 13.8117 9.4322 13.8659 9.40614 13.9261C9.38008 13.9863 9.36663 14.0512 9.36663 14.1168C9.36663 14.1824 9.38008 14.2473 9.40614 14.3075C9.4322 14.3677 9.47032 14.4219 9.51815 14.4668C9.5628 14.5148 9.617 14.553 9.67728 14.5788C9.73756 14.6046 9.80258 14.6176 9.86815 14.6168C9.93355 14.6164 9.99821 14.6029 10.0583 14.5771C10.1184 14.5514 10.1728 14.5139 10.2182 14.4668L14.4582 10.2268C14.5041 10.1808 14.5406 10.1262 14.5655 10.0662C14.5903 10.0061 14.6031 9.94176 14.6031 9.87676C14.6031 9.81176 14.5903 9.74739 14.5655 9.68734C14.5406 9.62729 14.5041 9.57272 14.4582 9.52676C14.4122 9.4808 14.3576 9.44434 14.2976 9.41946C14.2375 9.39459 14.1732 9.38178 14.1082 9.38178C14.0432 9.38178 13.9788 9.39459 13.9187 9.41946C13.8587 9.44434 13.8041 9.4808 13.7582 9.52676Z" fill="#24394A"/>
</svg>
