<svg width="24" height="24" viewBox="0 0 24 24" fill="none" xmlns="http://www.w3.org/2000/svg">
<path d="M18 8.995H16C15.8674 8.995 15.7402 9.04768 15.6464 9.14144C15.5527 9.23521 15.5 9.36239 15.5 9.495C15.5 9.62761 15.5527 9.75478 15.6464 9.84855C15.7402 9.94232 15.8674 9.995 16 9.995H18C18.3978 9.995 18.7794 10.153 19.0607 10.4343C19.342 10.7156 19.5 11.0972 19.5 11.495V18.495C19.5 18.8928 19.342 19.2744 19.0607 19.5557C18.7794 19.837 18.3978 19.995 18 19.995H6C5.60218 19.995 5.22064 19.837 4.93934 19.5557C4.65804 19.2744 4.5 18.8928 4.5 18.495V11.495C4.5 11.0972 4.65804 10.7156 4.93934 10.4343C5.22064 10.153 5.60218 9.995 6 9.995H8C8.13261 9.995 8.25979 9.94232 8.35355 9.84855C8.44732 9.75478 8.5 9.62761 8.5 9.495C8.5 9.36239 8.44732 9.23521 8.35355 9.14144C8.25979 9.04768 8.13261 8.995 8 8.995H6C5.33696 8.995 4.70107 9.25839 4.23223 9.72723C3.76339 10.1961 3.5 10.832 3.5 11.495V18.495C3.5 18.8233 3.56466 19.1484 3.6903 19.4517C3.81594 19.755 4.00009 20.0306 4.23223 20.2628C4.46438 20.4949 4.73998 20.6791 5.04329 20.8047C5.34661 20.9303 5.6717 20.995 6 20.995H18C18.3283 20.995 18.6534 20.9303 18.9567 20.8047C19.26 20.6791 19.5356 20.4949 19.7678 20.2628C19.9999 20.0306 20.1841 19.755 20.3097 19.4517C20.4353 19.1484 20.5 18.8233 20.5 18.495V11.495C20.5 11.1667 20.4353 10.8416 20.3097 10.5383C20.1841 10.235 19.9999 9.95938 19.7678 9.72723C19.5356 9.49508 19.26 9.31093 18.9567 9.1853C18.6534 9.05966 18.3283 8.995 18 8.995Z" fill="#24394A"/>
<path d="M8.3 6.895L11.1 4.795C11.1371 4.76714 11.1813 4.75018 11.2275 4.74601C11.2738 4.74184 11.3203 4.75063 11.3618 4.77139C11.4033 4.79215 11.4383 4.82407 11.4627 4.86356C11.4871 4.90306 11.5 4.94857 11.5 4.995V16.495C11.5 16.6276 11.5527 16.7548 11.6464 16.8486C11.7402 16.9423 11.8674 16.995 12 16.995C12.1326 16.995 12.2598 16.9423 12.3536 16.8486C12.4473 16.7548 12.5 16.6276 12.5 16.495V4.995C12.5 4.94857 12.5129 4.90306 12.5373 4.86356C12.5617 4.82407 12.5967 4.79215 12.6382 4.77139C12.6797 4.75063 12.7262 4.74184 12.7725 4.74601C12.8187 4.75018 12.8629 4.76714 12.9 4.795L15.7 6.895C15.7862 6.96057 15.8917 6.99573 16 6.995C16.0775 6.99424 16.1538 6.97583 16.2231 6.94118C16.2924 6.90652 16.3529 6.85653 16.4 6.795C16.4796 6.68891 16.5137 6.55556 16.495 6.42429C16.4762 6.29301 16.4061 6.17456 16.3 6.095L12.3 3.095C12.2221 3.03658 12.1274 3.005 12.03 3.005C11.9326 3.005 11.8379 3.03658 11.76 3.095L7.76 6.095C7.65391 6.17456 7.58378 6.29301 7.56503 6.42429C7.54627 6.55556 7.58043 6.68891 7.66 6.795C7.73956 6.90108 7.85801 6.97122 7.98929 6.98997C8.12056 7.00873 8.25391 6.97456 8.36 6.895H8.3Z" fill="#24394A"/>
</svg>
