<svg width="24" height="24" viewBox="0 0 24 24" fill="none" xmlns="http://www.w3.org/2000/svg">
<path d="M17.16 13.775L17.83 5.775C17.83 2.775 6.17 2.775 6.17 5.775L6.84 13.775C4.72 14.455 3.5 15.525 3.5 16.775C3.5 18.885 7.15 20.475 12 20.475C16.85 20.475 20.5 18.885 20.5 16.775C20.5 15.525 19.28 14.455 17.16 13.775ZM16.16 13.845C16.16 14.385 14.51 15.205 12.01 15.205C9.51 15.205 7.86 14.385 7.86 13.845L7.28 7.105C8.76856 7.74574 10.3803 8.04965 12 7.995C13.6197 8.04965 15.2314 7.74574 16.72 7.105L16.16 13.845ZM8 15.385C9.24976 15.9726 10.6195 16.2602 12 16.225C13.3805 16.2602 14.7502 15.9726 16 15.385V16.335C16 16.845 14.43 17.615 12.06 17.615C9.69 17.615 8.06 16.935 8.06 16.375L8 15.385ZM12 4.435C15.18 4.435 16.83 5.325 16.83 5.705C16.83 6.095 15.18 6.985 12 6.985C8.82 6.985 7.18 6.105 7.17 5.715C7.17 5.325 8.82 4.435 12 4.435ZM12 19.435C7.58 19.435 4.5 18.015 4.5 16.735C4.5 16.045 5.43 15.315 6.92 14.795L7.06 16.425C7.12 17.935 9.57 18.655 12 18.655C14.43 18.655 16.88 17.895 16.94 16.435L17.08 14.805C18.57 15.325 19.5 16.055 19.5 16.745C19.5 18.015 16.42 19.435 12 19.435Z" fill="#24394A"/>
</svg>
