<svg width="24" height="24" viewBox="0 0 24 24" fill="none" xmlns="http://www.w3.org/2000/svg">
<path d="M12.5 8V11.79L14.35 13.65C14.3978 13.6949 14.436 13.7491 14.462 13.8093C14.4881 13.8695 14.5015 13.9344 14.5015 14C14.5015 14.0656 14.4881 14.1305 14.462 14.1907C14.436 14.2509 14.3978 14.3051 14.35 14.35C14.3051 14.3978 14.2509 14.436 14.1907 14.462C14.1305 14.4881 14.0656 14.5015 14 14.5015C13.9344 14.5015 13.8695 14.4881 13.8093 14.462C13.7491 14.436 13.6949 14.3978 13.65 14.35L11.65 12.35C11.602 12.3054 11.5638 12.2512 11.538 12.1909C11.5121 12.1306 11.4992 12.0656 11.5 12V8C11.5 7.86739 11.5527 7.74022 11.6465 7.64645C11.7402 7.55268 11.8674 7.5 12 7.5C12.1326 7.5 12.2598 7.55268 12.3536 7.64645C12.4473 7.74022 12.5 7.86739 12.5 8Z" fill="#24394A"/>
<path fill-rule="evenodd" clip-rule="evenodd" d="M20.4792 12C20.4792 14.2492 19.5877 16.4068 18 18C16.4068 19.5877 14.2493 20.4792 12 20.4792C9.75077 20.4792 7.59322 19.5877 6.00002 18C4.41231 16.4068 3.52081 14.2492 3.52081 12C3.52081 9.75076 4.41231 7.59321 6.00002 6C7.59322 4.4123 9.75077 3.5208 12 3.5208C14.2493 3.5208 16.4068 4.4123 18 6C19.5877 7.59321 20.4792 9.75076 20.4792 12ZM16.95 16.455C17.0813 16.455 17.2072 16.5072 17.3 16.6L17.64 16.93C18.7213 15.6952 19.3647 14.1379 19.47 12.5H19C18.8674 12.5 18.7402 12.4473 18.6465 12.3536C18.5527 12.2598 18.5 12.1326 18.5 12C18.5 11.8674 18.5527 11.7402 18.6465 11.6464C18.7402 11.5527 18.8674 11.5 19 11.5H19.47C19.3647 9.86206 18.7213 8.30477 17.64 7.07L17.3 7.4C17.2551 7.44783 17.2009 7.48595 17.1407 7.51201C17.0805 7.53807 17.0156 7.55152 16.95 7.55152C16.8844 7.55152 16.8195 7.53807 16.7593 7.51201C16.6991 7.48595 16.6449 7.44783 16.6 7.4C16.5522 7.35511 16.5141 7.30089 16.488 7.24069C16.4619 7.1805 16.4485 7.1156 16.4485 7.05C16.4485 6.9844 16.4619 6.9195 16.488 6.85931C16.5141 6.79911 16.5522 6.74489 16.6 6.7L16.93 6.36C15.6952 5.27867 14.138 4.63536 12.5 4.53V5C12.5 5.13261 12.4473 5.25979 12.3536 5.35355C12.2598 5.44732 12.1326 5.5 12 5.5C11.8674 5.5 11.7402 5.44732 11.6465 5.35355C11.5527 5.25979 11.5 5.13261 11.5 5V4.53C9.86208 4.63536 8.30478 5.27867 7.07002 6.36L7.40002 6.7C7.44785 6.74489 7.48597 6.79911 7.51203 6.85931C7.53809 6.9195 7.55153 6.9844 7.55153 7.05C7.55153 7.1156 7.53809 7.1805 7.51203 7.24069C7.48597 7.30089 7.44785 7.35511 7.40002 7.4C7.35513 7.44783 7.30091 7.48595 7.24071 7.51201C7.18051 7.53807 7.11561 7.55152 7.05002 7.55152C6.98442 7.55152 6.91952 7.53807 6.85932 7.51201C6.79912 7.48595 6.74491 7.44783 6.70002 7.4L6.36002 7.07C5.27868 8.30477 4.63537 9.86206 4.53002 11.5H5.00002C5.13262 11.5 5.2598 11.5527 5.35357 11.6464C5.44734 11.7402 5.50002 11.8674 5.50002 12C5.50002 12.1326 5.44734 12.2598 5.35357 12.3536C5.2598 12.4473 5.13262 12.5 5.00002 12.5H4.53002C4.63537 14.1379 5.27868 15.6952 6.36002 16.93L6.70002 16.6C6.79284 16.5072 6.91874 16.455 7.05002 16.455C7.18129 16.455 7.30719 16.5072 7.40002 16.6C7.49284 16.6928 7.54499 16.8187 7.54499 16.95C7.54499 17.0813 7.49284 17.2072 7.40002 17.3L7.07002 17.64C8.30478 18.7213 9.86208 19.3646 11.5 19.47V19C11.5 18.8674 11.5527 18.7402 11.6465 18.6464C11.7402 18.5527 11.8674 18.5 12 18.5C12.1326 18.5 12.2598 18.5527 12.3536 18.6464C12.4473 18.7402 12.5 18.8674 12.5 19V19.47C14.138 19.3646 15.6952 18.7213 16.93 17.64L16.6 17.3C16.5072 17.2072 16.455 17.0813 16.455 16.95C16.455 16.8187 16.5072 16.6928 16.6 16.6C16.6928 16.5072 16.8187 16.455 16.95 16.455Z" fill="#24394A"/>
</svg>
