<svg width="24" height="24" viewBox="0 0 24 24" fill="none" xmlns="http://www.w3.org/2000/svg">
<path d="M17 4.5H7C5.6 4.5 4.5 5.6 4.5 7V17C4.5 18.4 5.6 19.5 7 19.5H13.2C13.9 19.5 14.5 19.2 15 18.8L18.8 15C19.3 14.5 19.5 13.9 19.5 13.2V7C19.5 5.6 18.4 4.5 17 4.5ZM7 18.5C6.2 18.5 5.5 17.8 5.5 17V7C5.5 6.2 6.2 5.5 7 5.5H17C17.8 5.5 18.5 6.2 18.5 7V13.2C18.5 13.3 18.5 13.4 18.5 13.5H16C14.6 13.5 13.5 14.6 13.5 16V18.5C13.4 18.5 13.3 18.5 13.2 18.5H7ZM14.5 17.8V16C14.5 15.2 15.2 14.5 16 14.5H17.8L14.5 17.8Z" fill="#24394A"/>
</svg>
