<svg viewBox="0 0 24 24" fill="#24394A" xmlns="http://www.w3.org/2000/svg">
<path d="M18.45 8.78C18.4134 8.72694 18.3656 8.68256 18.31 8.65L12.31 5.65C12.2417 5.6157 12.1664 5.59784 12.09 5.59784C12.0136 5.59784 11.9383 5.6157 11.87 5.65L5.86999 8.65C5.81436 8.68256 5.76657 8.72694 5.72999 8.78C5.63787 8.83526 5.55928 8.91043 5.49999 9V15C5.50094 15.0935 5.52756 15.1849 5.57694 15.2642C5.62632 15.3436 5.69656 15.4079 5.77999 15.45L11.78 18.45C11.8452 18.4826 11.9171 18.4995 11.99 18.4995C12.0629 18.4995 12.1348 18.4826 12.2 18.45L18.2 15.45C18.2872 15.4107 18.3615 15.3476 18.4146 15.268C18.4676 15.1885 18.4972 15.0956 18.5 15V9C18.495 8.92449 18.4781 8.85025 18.45 8.78ZM17.11 14C17.0518 13.9693 16.988 13.9506 16.9224 13.945C16.8568 13.9395 16.7908 13.9472 16.7283 13.9677C16.6657 13.9883 16.608 14.0212 16.5585 14.0645C16.5089 14.1079 16.4686 14.1607 16.44 14.22C16.3807 14.3381 16.3705 14.4748 16.4118 14.6004C16.453 14.7259 16.5422 14.8301 16.66 14.89L16.88 15L12.88 17C12.8422 17.0185 12.8004 17.0272 12.7584 17.0253C12.7163 17.0233 12.6755 17.0108 12.6396 16.9888C12.6037 16.9669 12.5739 16.9363 12.553 16.8998C12.5321 16.8633 12.5207 16.8221 12.52 16.78V12.62C12.5209 12.5265 12.5476 12.4351 12.5969 12.3558C12.6463 12.2764 12.7166 12.2121 12.8 12.17L17.14 10C17.1778 9.98148 17.2196 9.9728 17.2616 9.97475C17.3036 9.9767 17.3445 9.98922 17.3804 10.0112C17.4163 10.0331 17.4461 10.0637 17.467 10.1002C17.4879 10.1367 17.4992 10.1779 17.5 10.22V14.22L17.11 14ZM7.55999 14.22C7.53134 14.1607 7.49105 14.1079 7.44152 14.0645C7.39199 14.0212 7.33424 13.9883 7.2717 13.9677C7.20917 13.9472 7.14315 13.9395 7.07756 13.945C7.01198 13.9506 6.94819 13.9693 6.88999 14L6.49999 14.19V10.19C6.50531 10.1505 6.51998 10.1129 6.54278 10.0803C6.56557 10.0476 6.59584 10.0209 6.63106 10.0023C6.66628 9.9837 6.70543 9.9738 6.74525 9.9734C6.78507 9.973 6.82441 9.98212 6.85999 10L11.22 12.18C11.3034 12.2221 11.3737 12.2864 11.423 12.3658C11.4724 12.4451 11.499 12.5365 11.5 12.63V16.8C11.4992 16.8421 11.4879 16.8833 11.467 16.9198C11.4461 16.9563 11.4163 16.9869 11.3804 17.0088C11.3445 17.0308 11.3036 17.0433 11.2616 17.0453C11.2196 17.0472 11.1778 17.0385 11.14 17.02L7.13999 15.02L7.35999 14.91C7.41921 14.8786 7.47152 14.8357 7.51381 14.7837C7.55609 14.7317 7.5875 14.6717 7.60616 14.6074C7.62481 14.543 7.63034 14.4755 7.62241 14.409C7.61448 14.3425 7.59325 14.2782 7.55999 14.22ZM12 7.62C12.1326 7.62 12.2598 7.56732 12.3535 7.47355C12.4473 7.37979 12.5 7.25261 12.5 7.12V6.81L16.44 8.81C16.4797 8.83142 16.5128 8.86318 16.5359 8.90191C16.559 8.94064 16.5712 8.9849 16.5712 9.03C16.5712 9.0751 16.559 9.11936 16.5359 9.15809C16.5128 9.19682 16.4797 9.22858 16.44 9.25L12.22 11.36C12.1517 11.3943 12.0764 11.4122 12 11.4122C11.9236 11.4122 11.8483 11.3943 11.78 11.36L7.55999 9.22C7.5203 9.19858 7.48715 9.16682 7.46404 9.12809C7.44093 9.08936 7.42873 9.0451 7.42873 9C7.42873 8.9549 7.44093 8.91064 7.46404 8.87191C7.48715 8.83318 7.5203 8.80142 7.55999 8.78L11.5 6.78V7.09C11.4959 7.15814 11.5058 7.2264 11.5291 7.29057C11.5524 7.35474 11.5885 7.41346 11.6354 7.46311C11.6822 7.51277 11.7388 7.5523 11.8015 7.57928C11.8642 7.60627 11.9317 7.62012 12 7.62Z" />
<path d="M15.34 13.11L14.45 12.66C14.3909 12.631 14.3267 12.6139 14.261 12.6098C14.1953 12.6056 14.1295 12.6145 14.0672 12.6359C14.005 12.6573 13.9476 12.6907 13.8983 12.7343C13.849 12.7779 13.8088 12.8308 13.78 12.89C13.7493 12.9482 13.7306 13.012 13.725 13.0776C13.7195 13.1432 13.7272 13.2092 13.7477 13.2717C13.7683 13.3342 13.8012 13.392 13.8445 13.4415C13.8879 13.4911 13.9407 13.5314 14 13.56L14.89 14C14.9571 14.0381 15.0328 14.0588 15.11 14.06C15.2032 14.058 15.2942 14.0309 15.3733 13.9816C15.4525 13.9324 15.517 13.8627 15.56 13.78C15.6193 13.6619 15.6294 13.5252 15.5882 13.3996C15.547 13.2741 15.4578 13.1699 15.34 13.11Z" />
<path d="M20.22 15.55L19.78 15.33C19.6619 15.2707 19.5251 15.2605 19.3996 15.3018C19.2741 15.343 19.1699 15.4322 19.11 15.55C19.0793 15.6082 19.0606 15.672 19.055 15.7376C19.0495 15.8032 19.0572 15.8692 19.0777 15.9317C19.0983 15.9942 19.1312 16.052 19.1745 16.1015C19.2179 16.1511 19.2707 16.1914 19.33 16.22L19.78 16.45C19.849 16.482 19.924 16.499 20 16.5C20.1133 16.5005 20.2235 16.4624 20.3124 16.3921C20.4013 16.3217 20.4636 16.2232 20.4892 16.1128C20.5147 16.0024 20.502 15.8865 20.4531 15.7843C20.4042 15.682 20.322 15.5994 20.22 15.55Z" />
<path d="M8.88999 14.06C8.9672 14.0588 9.04285 14.0381 9.10999 14L9.99999 13.56C10.0592 13.5314 10.1121 13.4911 10.1555 13.4415C10.1988 13.392 10.2317 13.3342 10.2523 13.2717C10.2728 13.2092 10.2805 13.1432 10.275 13.0776C10.2694 13.012 10.2507 12.9482 10.22 12.89C10.1912 12.8308 10.151 12.7779 10.1017 12.7343C10.0524 12.6907 9.99499 12.6573 9.93274 12.6359C9.8705 12.6145 9.80465 12.6056 9.73896 12.6098C9.67328 12.6139 9.60906 12.631 9.54999 12.66L8.65999 13.11C8.54223 13.1699 8.45298 13.2741 8.41176 13.3996C8.37053 13.5252 8.38068 13.6619 8.43999 13.78C8.483 13.8627 8.54747 13.9324 8.62664 13.9816C8.70581 14.0309 8.79677 14.058 8.88999 14.06Z" />
<path d="M4.21999 15.33L3.77999 15.55C3.67797 15.5994 3.59577 15.682 3.54686 15.7843C3.49795 15.8865 3.48524 16.0024 3.51082 16.1128C3.53639 16.2232 3.59873 16.3217 3.68761 16.3921C3.77649 16.4624 3.88664 16.5005 3.99999 16.5C4.07602 16.499 4.15099 16.482 4.21999 16.45L4.66999 16.22C4.72924 16.1914 4.78212 16.1511 4.82546 16.1015C4.86881 16.052 4.90173 15.9942 4.92226 15.9317C4.94279 15.8692 4.95052 15.8032 4.94497 15.7376C4.93943 15.672 4.92073 15.6082 4.88999 15.55C4.83005 15.4322 4.72592 15.343 4.60038 15.3018C4.47483 15.2605 4.33807 15.2707 4.21999 15.33Z" />
<path d="M11.5 9.75C11.5 9.88261 11.5527 10.0098 11.6464 10.1036C11.7402 10.1973 11.8674 10.25 12 10.25C12.1326 10.25 12.2598 10.1973 12.3535 10.1036C12.4473 10.0098 12.5 9.88261 12.5 9.75V8.88C12.5 8.74739 12.4473 8.62021 12.3535 8.52645C12.2598 8.43268 12.1326 8.38 12 8.38C11.8674 8.38 11.7402 8.43268 11.6464 8.52645C11.5527 8.62021 11.5 8.74739 11.5 8.88V9.75Z" />
<path d="M12 5C12.1326 5 12.2598 4.94732 12.3535 4.85355C12.4473 4.75979 12.5 4.63261 12.5 4.5V4C12.5 3.86739 12.4473 3.74021 12.3535 3.64645C12.2598 3.55268 12.1326 3.5 12 3.5C11.8674 3.5 11.7402 3.55268 11.6464 3.64645C11.5527 3.74021 11.5 3.86739 11.5 4V4.5C11.5 4.63261 11.5527 4.75979 11.6464 4.85355C11.7402 4.94732 11.8674 5 12 5Z" />
</svg>
