<svg width="24" height="24" viewBox="0 0 24 24" fill="none" xmlns="http://www.w3.org/2000/svg">
<path d="M21 11.52H20.06C19.7747 11.0103 19.5786 10.4557 19.48 9.88C19.18 8.68 18.89 7.52 18 7.52C17.11 7.52 16.92 8.73 16.5 12.46C16.38 13.53 16.22 14.97 16.04 15.85C15.82 14.63 15.64 12.3 15.5 10.48C15.06 4.84 14.87 3.48 14 3.48C13.13 3.48 13 4.48 12.5 11.95C12.37 14.1 12.2 16.81 11.99 18.39C11.79 17 11.63 14.74 11.5 12.94C11 6.5 10.84 5.52 10 5.52C9.16 5.52 8.92 6.73 8.5 10.46C8.39206 11.737 8.20504 13.0061 7.94 14.26C7.75138 13.6568 7.60108 13.0422 7.49 12.42C7.17 10.8 6.91 9.52 6 9.52C5.09 9.52 4.82 10.26 4.55 10.8C4.28 11.34 4.18 11.52 4 11.52H3C2.86739 11.52 2.74021 11.5727 2.64645 11.6664C2.55268 11.7602 2.5 11.8874 2.5 12.02C2.5 12.1526 2.55268 12.2798 2.64645 12.3735C2.74021 12.4673 2.86739 12.52 3 12.52H4C4.81 12.52 5.18 11.78 5.45 11.24C5.63 10.87 5.78 10.6 5.94 10.53C6.21263 11.2015 6.40399 11.9031 6.51 12.62C6.83 14.24 7.09 15.52 8 15.52C8.91 15.52 9.08 14.31 9.5 10.58C9.61 9.53 9.77 8.11 9.95 7.22C10.18 8.54 10.36 11.07 10.5 13.06C10.96 19.54 11.16 20.52 12 20.52C12.84 20.52 13 19.52 13.5 12.05C13.64 9.87 13.81 7.12 14.02 5.56C14.22 6.84 14.37 8.91 14.5 10.56C14.94 16.2 15.13 17.56 16 17.56C16.87 17.56 17.08 16.35 17.5 12.62C17.6028 11.318 17.7966 10.0249 18.08 8.75C18.2606 9.21556 18.4076 9.69345 18.52 10.18C18.82 11.4 19.11 12.56 20 12.56H21C21.1326 12.56 21.2598 12.5073 21.3536 12.4135C21.4473 12.3198 21.5 12.1926 21.5 12.06C21.5 11.9274 21.4473 11.8002 21.3536 11.7064C21.2598 11.6127 21.1326 11.56 21 11.56V11.52Z" fill="#24394A"/>
</svg>
