<svg viewBox="0 0 24 24" fill="#24394A" xmlns="http://www.w3.org/2000/svg">
<path d="M17.8961 5.50013H8.83613C8.46611 5.49591 8.09982 5.57454 7.76414 5.73027C7.42845 5.886 7.13187 6.11488 6.89613 6.40013L4.64613 9.12013C3.97263 9.92873 3.60382 10.9478 3.60382 12.0001C3.60382 13.0525 3.97263 14.0715 4.64613 14.8801L6.89613 17.6001C7.12973 17.8828 7.42309 18.1101 7.75509 18.2657C8.08709 18.4213 8.44947 18.5014 8.81613 18.5001H17.8961C18.2244 18.5001 18.5495 18.4355 18.8528 18.3098C19.1562 18.1842 19.4318 18 19.6639 17.7679C19.896 17.5358 20.0802 17.2602 20.2058 16.9568C20.3315 16.6535 20.3961 16.3284 20.3961 16.0001V8.00013C20.3961 7.67183 20.3315 7.34674 20.2058 7.04342C20.0802 6.74011 19.896 6.46451 19.6639 6.23236C19.4318 6.00022 19.1562 5.81607 18.8528 5.69043C18.5495 5.5648 18.2244 5.50013 17.8961 5.50013ZM19.3961 16.0001C19.3961 16.398 19.2381 16.7795 18.9568 17.0608C18.6755 17.3421 18.294 17.5001 17.8961 17.5001H8.83613C8.61824 17.5048 8.40188 17.4626 8.20173 17.3763C8.00159 17.2901 7.82234 17.1618 7.67613 17.0001L5.41613 14.2401C4.8923 13.6112 4.60545 12.8186 4.60545 12.0001C4.60545 11.1816 4.8923 10.389 5.41613 9.76013L7.67613 7.00013C7.82234 6.8385 8.00159 6.7102 8.20173 6.62393C8.40188 6.53766 8.61824 6.49544 8.83613 6.50013H17.8961C18.294 6.50013 18.6755 6.65817 18.9568 6.93947C19.2381 7.22078 19.3961 7.60231 19.3961 8.00013V16.0001Z" />
<path d="M7.89613 10.5001C7.59946 10.5001 7.30945 10.5881 7.06278 10.7529C6.8161 10.9177 6.62385 11.152 6.51031 11.4261C6.39678 11.7002 6.36708 12.0018 6.42496 12.2928C6.48283 12.5837 6.62569 12.851 6.83547 13.0608C7.04525 13.2706 7.31253 13.4134 7.6035 13.4713C7.89447 13.5292 8.19607 13.4995 8.47016 13.386C8.74425 13.2724 8.97852 13.0802 9.14334 12.8335C9.30816 12.5868 9.39613 12.2968 9.39613 12.0001C9.39613 11.6023 9.2381 11.2208 8.95679 10.9395C8.67549 10.6582 8.29396 10.5001 7.89613 10.5001ZM7.89613 12.5001C7.79724 12.5001 7.70057 12.4708 7.61835 12.4159C7.53612 12.3609 7.47204 12.2828 7.43419 12.1915C7.39635 12.1001 7.38645 11.9996 7.40574 11.9026C7.42503 11.8056 7.47265 11.7165 7.54258 11.6466C7.61251 11.5767 7.7016 11.529 7.79859 11.5097C7.89558 11.4904 7.99611 11.5003 8.08747 11.5382C8.17884 11.576 8.25693 11.6401 8.31187 11.7223C8.36681 11.8046 8.39613 11.9012 8.39613 12.0001C8.39613 12.1327 8.34346 12.2599 8.24969 12.3537C8.15592 12.4475 8.02874 12.5001 7.89613 12.5001Z" />
</svg>
