<svg width="24" height="24" viewBox="0 0 24 24" fill="none" xmlns="http://www.w3.org/2000/svg">
<path d="M19.83 14.39L17 8C16.8027 7.55434 16.4805 7.17545 16.0723 6.90922C15.664 6.64299 15.1874 6.50084 14.7 6.5H13C12.8674 6.5 12.7402 6.44732 12.6465 6.35355C12.5527 6.25979 12.5 6.13261 12.5 6V5C12.5 4.86739 12.5527 4.74021 12.6465 4.64645C12.7402 4.55268 12.8674 4.5 13 4.5H14C14.1326 4.5 14.2598 4.44732 14.3536 4.35355C14.4473 4.25979 14.5 4.13261 14.5 4C14.5 3.86739 14.4473 3.74021 14.3536 3.64645C14.2598 3.55268 14.1326 3.5 14 3.5H10C9.8674 3.5 9.74022 3.55268 9.64646 3.64645C9.55269 3.74021 9.50001 3.86739 9.50001 4C9.50001 4.13261 9.55269 4.25979 9.64646 4.35355C9.74022 4.44732 9.8674 4.5 10 4.5H11C11.1326 4.5 11.2598 4.55268 11.3536 4.64645C11.4473 4.74021 11.5 4.86739 11.5 5V6C11.5 6.13261 11.4473 6.25979 11.3536 6.35355C11.2598 6.44732 11.1326 6.5 11 6.5H9.30001C8.81265 6.50084 8.33598 6.64299 7.92776 6.90922C7.51954 7.17545 7.19728 7.55434 7.00001 8L4.17001 14.39C4.06836 14.6184 4.02539 14.8685 4.045 15.1177C4.06461 15.3669 4.14618 15.6072 4.2823 15.8169C4.41842 16.0265 4.60477 16.1988 4.82442 16.3181C5.04407 16.4374 5.29005 16.4999 5.54001 16.5H18.46C18.71 16.4999 18.956 16.4374 19.1756 16.3181C19.3952 16.1988 19.5816 16.0265 19.7177 15.8169C19.8538 15.6072 19.9354 15.3669 19.955 15.1177C19.9746 14.8685 19.9317 14.6184 19.83 14.39ZM18.88 15.27C18.8363 15.3417 18.7744 15.4008 18.7007 15.4411C18.627 15.4815 18.544 15.5018 18.46 15.5H5.54001C5.456 15.5018 5.37299 15.4815 5.29928 15.4411C5.22558 15.4008 5.16376 15.3417 5.12001 15.27C5.08062 15.1979 5.05998 15.1171 5.05998 15.035C5.05998 14.9529 5.08062 14.8721 5.12001 14.8L7.93001 8.39C8.04792 8.12511 8.24007 7.90008 8.48321 7.74213C8.72636 7.58417 9.01007 7.50007 9.30001 7.5H14.7C14.99 7.50007 15.2737 7.58417 15.5168 7.74213C15.7599 7.90008 15.9521 8.12511 16.07 8.39L18.92 14.8C18.9534 14.8754 18.9673 14.958 18.9603 15.0401C18.9533 15.1223 18.9257 15.2014 18.88 15.27Z" fill="#24394A"/>
<path d="M14 17.5C13.8674 17.5 13.7402 17.5527 13.6465 17.6464C13.5527 17.7402 13.5 17.8674 13.5 18C13.5 18.3978 13.342 18.7794 13.0607 19.0607C12.7794 19.342 12.3978 19.5 12 19.5C11.6022 19.5 11.2207 19.342 10.9393 19.0607C10.658 18.7794 10.5 18.3978 10.5 18C10.5 17.8674 10.4473 17.7402 10.3536 17.6464C10.2598 17.5527 10.1326 17.5 10 17.5C9.8674 17.5 9.74022 17.5527 9.64646 17.6464C9.55269 17.7402 9.50001 17.8674 9.50001 18C9.50001 18.663 9.7634 19.2989 10.2322 19.7678C10.7011 20.2366 11.337 20.5 12 20.5C12.6631 20.5 13.2989 20.2366 13.7678 19.7678C14.2366 19.2989 14.5 18.663 14.5 18C14.5 17.8674 14.4473 17.7402 14.3536 17.6464C14.2598 17.5527 14.1326 17.5 14 17.5Z" fill="#24394A"/>
</svg>
