<svg viewBox="0 0 24 24" fill="#24394A" xmlns="http://www.w3.org/2000/svg">
<path d="M7 16.4967C6.33696 16.4967 5.70107 16.2333 5.23223 15.7645C4.76339 15.2957 4.5 14.6598 4.5 13.9967V9.99673C4.5 9.33369 4.76339 8.6978 5.23223 8.22896C5.70107 7.76012 6.33696 7.49673 7 7.49673H13.79L12.65 8.64673C12.6022 8.69162 12.564 8.74584 12.538 8.80603C12.5119 8.86623 12.4985 8.93113 12.4985 8.99673C12.4985 9.06233 12.5119 9.12723 12.538 9.18742C12.564 9.24762 12.6022 9.30184 12.65 9.34673C12.6949 9.39456 12.7491 9.43268 12.8093 9.45874C12.8695 9.4848 12.9344 9.49825 13 9.49825C13.0656 9.49825 13.1305 9.4848 13.1907 9.45874C13.2509 9.43268 13.3051 9.39456 13.35 9.34673L15.35 7.34673C15.3978 7.30184 15.436 7.24762 15.462 7.18742C15.4881 7.12723 15.5015 7.06233 15.5015 6.99673C15.5015 6.93113 15.4881 6.86623 15.462 6.80603C15.436 6.74584 15.3978 6.69162 15.35 6.64673L13.35 4.64673C13.304 4.60077 13.2495 4.56431 13.1894 4.53943C13.1294 4.51456 13.065 4.50175 13 4.50175C12.935 4.50175 12.8706 4.51456 12.8106 4.53943C12.7505 4.56431 12.696 4.60077 12.65 4.64673C12.604 4.69269 12.5676 4.74726 12.5427 4.80731C12.5178 4.86736 12.505 4.93173 12.505 4.99673C12.505 5.06173 12.5178 5.1261 12.5427 5.18615C12.5676 5.2462 12.604 5.30077 12.65 5.34673L13.79 6.49673H7C6.07174 6.49673 5.1815 6.86548 4.52513 7.52186C3.86875 8.17823 3.5 9.06847 3.5 9.99673V13.9967C3.5 14.925 3.86875 15.8152 4.52513 16.4716C5.1815 17.128 6.07174 17.4967 7 17.4967C7.13261 17.4967 7.25979 17.4441 7.35355 17.3503C7.44732 17.2565 7.5 17.1293 7.5 16.9967C7.5 16.8641 7.44732 16.7369 7.35355 16.6432C7.25979 16.5494 7.13261 16.4967 7 16.4967Z" />
<path d="M17 6.49673C16.8674 6.49673 16.7402 6.54941 16.6464 6.64318C16.5527 6.73694 16.5 6.86412 16.5 6.99673C16.5 7.12934 16.5527 7.25651 16.6464 7.35028C16.7402 7.44405 16.8674 7.49673 17 7.49673C17.663 7.49673 18.2989 7.76012 18.7678 8.22896C19.2366 8.6978 19.5 9.33369 19.5 9.99673V13.9967C19.5 14.6598 19.2366 15.2957 18.7678 15.7645C18.2989 16.2333 17.663 16.4967 17 16.4967H10.21L11.35 15.3467C11.396 15.3008 11.4324 15.2462 11.4573 15.1861C11.4822 15.1261 11.495 15.0617 11.495 14.9967C11.495 14.9317 11.4822 14.8674 11.4573 14.8073C11.4324 14.7473 11.396 14.6927 11.35 14.6467C11.304 14.6008 11.2495 14.5643 11.1894 14.5394C11.1294 14.5146 11.065 14.5018 11 14.5018C10.935 14.5018 10.8706 14.5146 10.8106 14.5394C10.7505 14.5643 10.696 14.6008 10.65 14.6467L8.65 16.6467C8.60217 16.6916 8.56405 16.7458 8.53799 16.806C8.51193 16.8662 8.49848 16.9311 8.49848 16.9967C8.49848 17.0623 8.51193 17.1272 8.53799 17.1874C8.56405 17.2476 8.60217 17.3018 8.65 17.3467L10.65 19.3467C10.6949 19.3946 10.7491 19.4327 10.8093 19.4587C10.8695 19.4848 10.9344 19.4982 11 19.4982C11.0656 19.4982 11.1305 19.4848 11.1907 19.4587C11.2509 19.4327 11.3051 19.3946 11.35 19.3467C11.3978 19.3018 11.436 19.2476 11.462 19.1874C11.4881 19.1272 11.5015 19.0623 11.5015 18.9967C11.5015 18.9311 11.4881 18.8662 11.462 18.806C11.436 18.7458 11.3978 18.6916 11.35 18.6467L10.21 17.4967H17C17.9283 17.4967 18.8185 17.128 19.4749 16.4716C20.1313 15.8152 20.5 14.925 20.5 13.9967V9.99673C20.5 9.06847 20.1313 8.17823 19.4749 7.52186C18.8185 6.86548 17.9283 6.49673 17 6.49673Z" />
</svg>
