<svg viewBox="0 0 24 24" fill="#24394A" xmlns="http://www.w3.org/2000/svg">
<path d="M17 18H7C6.07174 18 5.1815 17.6312 4.52513 16.9749C3.86875 16.3185 3.5 15.4283 3.5 14.5V10.5C3.5 9.57174 3.86875 8.6815 4.52513 8.02512C5.1815 7.36874 6.07174 6.99999 7 6.99999H9.5C9.63261 6.99999 9.75979 7.05267 9.85355 7.14644C9.94732 7.24021 10 7.36738 10 7.49999C10 7.6326 9.94732 7.75978 9.85355 7.85355C9.75979 7.94731 9.63261 7.99999 9.5 7.99999H7C6.33696 7.99999 5.70107 8.26338 5.23223 8.73223C4.76339 9.20107 4.5 9.83695 4.5 10.5V14.5C4.5 15.163 4.76339 15.7989 5.23223 16.2678C5.70107 16.7366 6.33696 17 7 17H17C17.663 17 18.2989 16.7366 18.7678 16.2678C19.2366 15.7989 19.5 15.163 19.5 14.5V10.5C19.5 9.83695 19.2366 9.20107 18.7678 8.73223C18.2989 8.26338 17.663 7.99999 17 7.99999H13.71L14.85 9.14999C14.896 9.19596 14.9324 9.25052 14.9573 9.31057C14.9822 9.37063 14.995 9.43499 14.995 9.49999C14.995 9.56499 14.9822 9.62936 14.9573 9.68941C14.9324 9.74946 14.896 9.80403 14.85 9.84999C14.804 9.89596 14.7495 9.93242 14.6894 9.95729C14.6294 9.98216 14.565 9.99497 14.5 9.99497C14.435 9.99497 14.3706 9.98216 14.3106 9.95729C14.2505 9.93242 14.196 9.89596 14.15 9.84999L12.15 7.84999C12.1022 7.8051 12.064 7.75089 12.038 7.69069C12.0119 7.63049 11.9985 7.56559 11.9985 7.49999C11.9985 7.4344 12.0119 7.3695 12.038 7.3093C12.064 7.2491 12.1022 7.19488 12.15 7.14999L14.15 5.14999C14.1949 5.10216 14.2491 5.06404 14.3093 5.03798C14.3695 5.01192 14.4344 4.99847 14.5 4.99847C14.5656 4.99847 14.6305 5.01192 14.6907 5.03798C14.7509 5.06404 14.8051 5.10216 14.85 5.14999C14.8978 5.19488 14.936 5.2491 14.962 5.3093C14.9881 5.3695 15.0015 5.4344 15.0015 5.49999C15.0015 5.56559 14.9881 5.63049 14.962 5.69069C14.936 5.75089 14.8978 5.8051 14.85 5.84999L13.71 6.99999H17C17.9283 6.99999 18.8185 7.36874 19.4749 8.02512C20.1313 8.6815 20.5 9.57174 20.5 10.5V14.5C20.5 15.4283 20.1313 16.3185 19.4749 16.9749C18.8185 17.6312 17.9283 18 17 18Z" />
</svg>
