<svg viewBox="0 0 24 24" fill="#24394A" xmlns="http://www.w3.org/2000/svg">
<path d="M20.1304 13.56L11.2504 9.5C11.0222 9.3954 10.8286 9.22789 10.6922 9.01712C10.5558 8.80634 10.4823 8.56104 10.4804 8.31V7.31C10.4804 6.96257 10.6185 6.62936 10.8641 6.38369C11.1098 6.13802 11.443 6 11.7904 6H12.1704C12.5179 6 12.8511 6.13802 13.0968 6.38369C13.3424 6.62936 13.4804 6.96257 13.4804 7.31C13.4804 7.44261 13.5331 7.56979 13.6269 7.66355C13.7207 7.75732 13.8478 7.81 13.9804 7.81C14.1131 7.81 14.2402 7.75732 14.334 7.66355C14.4278 7.56979 14.4804 7.44261 14.4804 7.31C14.4778 6.69816 14.2336 6.11213 13.801 5.67949C13.3683 5.24685 12.7823 5.00263 12.1704 5H11.7904C11.1786 5.00263 10.5926 5.24685 10.1599 5.67949C9.72729 6.11213 9.48307 6.69816 9.48044 7.31V8.31C9.48187 8.75231 9.60971 9.185 9.8489 9.55707C10.0881 9.92913 10.4286 10.2251 10.8304 10.41L19.7104 14.41C19.9802 14.5387 20.1988 14.7545 20.3309 15.0227C20.463 15.2909 20.5009 15.5957 20.4385 15.888C20.3761 16.1804 20.217 16.4432 19.987 16.634C19.7569 16.8249 19.4693 16.9327 19.1704 16.94H4.79044C4.51435 16.9122 4.25423 16.7974 4.04757 16.6122C3.84091 16.4271 3.69839 16.181 3.64055 15.9096C3.58271 15.6383 3.61255 15.3555 3.72575 15.1022C3.83896 14.8488 4.02969 14.638 4.27044 14.5L10.1804 11.97C10.3024 11.917 10.3984 11.8176 10.4471 11.6938C10.4959 11.5701 10.4935 11.432 10.4404 11.31C10.3874 11.188 10.2881 11.0921 10.1643 11.0433C10.0405 10.9945 9.90244 10.997 9.78044 11.05L3.88044 13.57C3.39341 13.7808 2.99379 14.1528 2.74879 14.6235C2.50378 15.0943 2.42832 15.635 2.5351 16.1548C2.64189 16.6746 2.92439 17.1419 3.33512 17.4779C3.74586 17.8139 4.25977 17.9983 4.79044 18H19.1704C19.7014 18.0027 20.2174 17.8239 20.6329 17.4933C21.0484 17.1626 21.3386 16.7 21.4552 16.182C21.5719 15.664 21.5081 15.1216 21.2745 14.6448C21.0408 14.1679 20.6513 13.7852 20.1704 13.56H20.1304Z" />
</svg>
