<svg width="24" height="24" viewBox="0 0 24 24" fill="none" xmlns="http://www.w3.org/2000/svg">
<path d="M17.8337 16.3159L15.4137 10.6959L18.1937 7.92593C18.4065 7.71532 18.5753 7.46454 18.6903 7.18815C18.8053 6.91177 18.8643 6.61529 18.8637 6.31593C18.8561 6.00537 18.7294 5.70963 18.5097 5.48997C18.29 5.2703 17.9943 5.14354 17.6837 5.13593C17.3844 5.13541 17.0879 5.19437 16.8115 5.30939C16.5351 5.42441 16.2844 5.59319 16.0737 5.80593L13.2937 8.57593L7.67374 6.15593C7.58183 6.11577 7.47981 6.10478 7.38145 6.12445C7.28309 6.14412 7.19314 6.1935 7.12375 6.26593L5.95375 7.39593C5.90442 7.44752 5.86647 7.50889 5.84235 7.57607C5.81824 7.64325 5.80849 7.71475 5.81375 7.78593C5.81796 7.85959 5.83909 7.9313 5.87551 7.99547C5.91193 8.05964 5.96266 8.11455 6.02375 8.15593L10.5237 11.3959L8.95375 12.8859L6.72375 12.5659C6.64772 12.5562 6.57048 12.5637 6.49776 12.588C6.42505 12.6122 6.35873 12.6525 6.30375 12.7059L5.28375 13.7659C5.22688 13.8206 5.18435 13.8884 5.15993 13.9634C5.13552 14.0384 5.12996 14.1183 5.14375 14.1959C5.15346 14.2755 5.18336 14.3513 5.23062 14.416C5.27788 14.4808 5.34092 14.5324 5.41375 14.5659L8.08375 15.9059L9.42375 18.5859C9.45137 18.6334 9.48497 18.6771 9.52375 18.7159C9.59847 18.7875 9.69219 18.8361 9.79375 18.8559C9.87294 18.8705 9.95452 18.8654 10.0313 18.841C10.108 18.8166 10.1776 18.7736 10.2337 18.7159L11.2937 17.6559C11.3471 17.6009 11.3875 17.5346 11.4117 17.4619C11.4359 17.3892 11.4435 17.312 11.4337 17.2359L11.1137 15.0059L12.6437 13.4759L15.8337 17.9459C15.8746 18.0052 15.9281 18.0548 15.9903 18.0911C16.0525 18.1274 16.122 18.1495 16.1937 18.1559C16.2674 18.1627 16.3417 18.1528 16.411 18.1268C16.4802 18.1008 16.5427 18.0595 16.5937 18.0059L17.7337 16.8759C17.803 16.8024 17.8493 16.7103 17.8671 16.6108C17.8849 16.5114 17.8733 16.4089 17.8337 16.3159ZM16.3037 16.8859L13.1137 12.3959C13.0708 12.3364 13.0155 12.2867 12.9517 12.2505C12.8878 12.2143 12.8169 12.1922 12.7437 12.1859C12.6716 12.1792 12.5988 12.1892 12.5312 12.2152C12.4635 12.2412 12.4028 12.2825 12.3537 12.3359L10.2337 14.4759C10.1766 14.5286 10.1331 14.5943 10.107 14.6675C10.0809 14.7406 10.0729 14.819 10.0837 14.8959L10.4037 17.1259L10.0137 17.5159L8.95375 15.3159C8.93591 15.2653 8.90483 15.2204 8.86374 15.1859L8.73375 15.0859L6.52375 13.9859L6.92375 13.5859L9.14374 13.9059C9.22133 13.9165 9.3003 13.9094 9.37476 13.8851C9.44922 13.8609 9.51724 13.8201 9.57375 13.7659L11.6937 11.6459C11.7447 11.5955 11.7838 11.5343 11.808 11.4668C11.8322 11.3993 11.841 11.3273 11.8337 11.2559C11.83 11.1833 11.8101 11.1124 11.7755 11.0484C11.7409 10.9844 11.6925 10.9289 11.6337 10.8859L7.11375 7.69593L7.59374 7.21593L13.2137 9.62593C13.3047 9.66732 13.4061 9.67993 13.5044 9.66206C13.6027 9.64418 13.6932 9.59668 13.7637 9.52593L16.7637 6.52593C16.8817 6.40767 17.0221 6.31406 17.1766 6.25054C17.3311 6.18702 17.4967 6.15486 17.6637 6.15593C17.7115 6.15593 17.7573 6.17489 17.791 6.20865C17.8248 6.24241 17.8437 6.28819 17.8437 6.33593C17.843 6.5036 17.809 6.66946 17.7437 6.82393C17.6785 6.9784 17.5834 7.11843 17.4637 7.23593L14.4637 10.2359C14.3913 10.3053 14.3419 10.3953 14.3223 10.4936C14.3026 10.592 14.3136 10.694 14.3537 10.7859L16.7837 16.3959L16.3037 16.8859Z" fill="#24394A"/>
</svg>
