<svg viewBox="0 0 24 24" fill="#24394A" xmlns="http://www.w3.org/2000/svg">
<path d="M18.9999 13.25C18.8673 13.25 18.7401 13.3027 18.6463 13.3964C18.5526 13.4902 18.4999 13.6174 18.4999 13.75V17C18.4999 17.3978 18.3419 17.7794 18.0606 18.0607C17.7793 18.342 17.3977 18.5 16.9999 18.5H6.9999C6.60207 18.5 6.22054 18.342 5.93924 18.0607C5.65793 17.7794 5.4999 17.3978 5.4999 17V7C5.4999 6.60218 5.65793 6.22064 5.93924 5.93934C6.22054 5.65804 6.60207 5.5 6.9999 5.5H10.2499C10.3825 5.5 10.5097 5.44732 10.6035 5.35355C10.6972 5.25979 10.7499 5.13261 10.7499 5C10.7499 4.86739 10.6972 4.74021 10.6035 4.64645C10.5097 4.55268 10.3825 4.5 10.2499 4.5H6.9999C6.33686 4.5 5.70097 4.76339 5.23213 5.23223C4.76329 5.70107 4.4999 6.33696 4.4999 7V17C4.4999 17.663 4.76329 18.2989 5.23213 18.7678C5.70097 19.2366 6.33686 19.5 6.9999 19.5H16.9999C17.6629 19.5 18.2988 19.2366 18.7677 18.7678C19.2365 18.2989 19.4999 17.663 19.4999 17V13.75C19.4999 13.6174 19.4472 13.4902 19.3535 13.3964C19.2597 13.3027 19.1325 13.25 18.9999 13.25Z" />
<path d="M19.4599 4.81C19.4083 4.68843 19.3115 4.59164 19.1899 4.54C19.1274 4.52512 19.0624 4.52512 18.9999 4.54H13.7499C13.6173 4.54 13.4901 4.59268 13.3963 4.68645C13.3026 4.78021 13.2499 4.90739 13.2499 5.04C13.2499 5.17261 13.3026 5.29979 13.3963 5.39355C13.4901 5.48732 13.6173 5.54 13.7499 5.54H17.1899C17.2383 5.54304 17.2849 5.55954 17.3244 5.58766C17.3639 5.61577 17.3947 5.65437 17.4135 5.69909C17.4322 5.74382 17.438 5.79289 17.4303 5.84076C17.4226 5.88863 17.4017 5.9334 17.3699 5.97L11.6499 11.69C11.6021 11.7349 11.5639 11.7891 11.5379 11.8493C11.5118 11.9095 11.4984 11.9744 11.4984 12.04C11.4984 12.1056 11.5118 12.1705 11.5379 12.2307C11.5639 12.2909 11.6021 12.3451 11.6499 12.39C11.6948 12.4378 11.749 12.476 11.8092 12.502C11.8694 12.5281 11.9343 12.5415 11.9999 12.5415C12.0655 12.5415 12.1304 12.5281 12.1906 12.502C12.2508 12.476 12.305 12.4378 12.3499 12.39L18.0699 6.67C18.1065 6.6382 18.1513 6.61727 18.1991 6.60958C18.247 6.60188 18.2961 6.60772 18.3408 6.62645C18.3855 6.64517 18.4241 6.67602 18.4522 6.71553C18.4804 6.75503 18.4969 6.80161 18.4999 6.85V10.29C18.4999 10.4226 18.5526 10.5498 18.6463 10.6436C18.7401 10.7373 18.8673 10.79 18.9999 10.79C19.1325 10.79 19.2597 10.7373 19.3535 10.6436C19.4472 10.5498 19.4999 10.4226 19.4999 10.29V5C19.502 4.93438 19.4882 4.86922 19.4599 4.81Z" />
</svg>
