<svg width="24" height="24" viewBox="0 0 24 24" fill="none" xmlns="http://www.w3.org/2000/svg">
<path d="M15.025 3.49979H9.02502C8.49153 3.50751 7.9739 3.68239 7.54502 3.99979L7.47502 4.05979C7.16511 4.29319 6.91351 4.59526 6.74001 4.94228C6.5665 5.28929 6.4758 5.67181 6.47502 6.05979V17.9998C6.47266 18.3883 6.56199 18.7719 6.73574 19.1194C6.9095 19.4669 7.16279 19.7686 7.47502 19.9998C7.92175 20.3341 8.46714 20.51 9.02502 20.4998H15.025C15.3533 20.4998 15.6784 20.4351 15.9817 20.3095C16.285 20.1838 16.5606 19.9997 16.7928 19.7676C17.0249 19.5354 17.2091 19.2598 17.3347 18.9565C17.4604 18.6532 17.525 18.3281 17.525 17.9998V5.99979C17.525 5.33675 17.2616 4.70086 16.7928 4.23202C16.3239 3.76318 15.6881 3.49979 15.025 3.49979ZM7.91502 18.9998C7.66694 18.7255 7.52817 18.3696 7.52502 17.9998V5.99979C7.52817 5.62994 7.66694 5.27411 7.91502 4.99979L10.245 6.16979C10.3284 6.21193 10.3987 6.2762 10.4481 6.35556C10.4974 6.43492 10.5241 6.52632 10.525 6.61979V17.3798C10.5241 17.4732 10.4974 17.5647 10.4481 17.644C10.3987 17.7234 10.3284 17.7876 10.245 17.8298L7.91502 18.9998ZM16.525 17.9998C16.525 18.3976 16.367 18.7791 16.0857 19.0604C15.8044 19.3418 15.4228 19.4998 15.025 19.4998H9.14502L10.695 18.7198C10.9448 18.5964 11.155 18.4054 11.3017 18.1685C11.4484 17.9317 11.5258 17.6584 11.525 17.3798V6.61979C11.5258 6.34117 11.4484 6.06791 11.3017 5.83105C11.155 5.59418 10.9448 5.4032 10.695 5.27979L9.14502 4.49979H15.025C15.4228 4.49979 15.8044 4.65782 16.0857 4.93913C16.367 5.22043 16.525 5.60196 16.525 5.99979V17.9998Z" fill="#24394A"/>
<path d="M9.70502 12.4998C9.56502 12.4998 9.11502 12.5598 9.11502 13.3398C9.11502 14.1198 9.56502 14.1898 9.70502 14.1898C9.84502 14.1898 10.295 14.1298 10.295 13.3398C10.295 12.5498 9.84502 12.4998 9.70502 12.4998Z" fill="#24394A"/>
</svg>
