<svg viewBox="0 0 24 24" fill="#24394A" xmlns="http://www.w3.org/2000/svg">
<path d="M19.9975 11.4967H9.99748C9.86487 11.4967 9.73769 11.5494 9.64392 11.6432C9.55016 11.7369 9.49748 11.8641 9.49748 11.9967C9.49748 12.1293 9.55016 12.2565 9.64392 12.3503C9.73769 12.4441 9.86487 12.4967 9.99748 12.4967H19.9975C20.1301 12.4967 20.2573 12.4441 20.351 12.3503C20.4448 12.2565 20.4975 12.1293 20.4975 11.9967C20.4975 11.8641 20.4448 11.7369 20.351 11.6432C20.2573 11.5494 20.1301 11.4967 19.9975 11.4967Z" />
<path d="M19.9975 15.4967H9.99748C9.86487 15.4967 9.73769 15.5494 9.64392 15.6432C9.55016 15.7369 9.49748 15.8641 9.49748 15.9967C9.49748 16.1293 9.55016 16.2565 9.64392 16.3503C9.73769 16.4441 9.86487 16.4967 9.99748 16.4967H19.9975C20.1301 16.4967 20.2573 16.4441 20.351 16.3503C20.4448 16.2565 20.4975 16.1293 20.4975 15.9967C20.4975 15.8641 20.4448 15.7369 20.351 15.6432C20.2573 15.5494 20.1301 15.4967 19.9975 15.4967Z" />
<path d="M9.99748 8.49673H19.9975C20.1301 8.49673 20.2573 8.44405 20.351 8.35028C20.4448 8.25651 20.4975 8.12934 20.4975 7.99673C20.4975 7.86412 20.4448 7.73694 20.351 7.64318C20.2573 7.54941 20.1301 7.49673 19.9975 7.49673H9.99748C9.86487 7.49673 9.73769 7.54941 9.64392 7.64318C9.55016 7.73694 9.49748 7.86412 9.49748 7.99673C9.49748 8.12934 9.55016 8.25651 9.64392 8.35028C9.73769 8.44405 9.86487 8.49673 9.99748 8.49673Z" />
<path d="M6.64748 14.6467L4.99748 16.2867L4.34748 15.6467C4.25465 15.5539 4.12875 15.5018 3.99748 15.5018C3.8662 15.5018 3.7403 15.5539 3.64748 15.6467C3.55465 15.7396 3.5025 15.8655 3.5025 15.9967C3.5025 16.128 3.55465 16.2539 3.64748 16.3467L4.64748 17.3467C4.69237 17.3946 4.74658 17.4327 4.80678 17.4587C4.86698 17.4848 4.93188 17.4982 4.99748 17.4982C5.06307 17.4982 5.12797 17.4848 5.18817 17.4587C5.24837 17.4327 5.30259 17.3946 5.34748 17.3467L7.34748 15.3467C7.4403 15.2539 7.49245 15.128 7.49245 14.9967C7.49245 14.8655 7.4403 14.7396 7.34748 14.6467C7.25465 14.5539 7.12875 14.5018 6.99748 14.5018C6.8662 14.5018 6.7403 14.5539 6.64748 14.6467Z" />
<path d="M6.64748 10.6467L4.99748 12.2867L4.34748 11.6467C4.30151 11.6008 4.24695 11.5643 4.1869 11.5394C4.12684 11.5146 4.06248 11.5018 3.99748 11.5018C3.93248 11.5018 3.86811 11.5146 3.80806 11.5394C3.74801 11.5643 3.69344 11.6008 3.64748 11.6467C3.60151 11.6927 3.56506 11.7473 3.54018 11.8073C3.51531 11.8674 3.5025 11.9317 3.5025 11.9967C3.5025 12.0617 3.51531 12.1261 3.54018 12.1861C3.56506 12.2462 3.60151 12.3008 3.64748 12.3467L4.64748 13.3467C4.69237 13.3946 4.74658 13.4327 4.80678 13.4587C4.86698 13.4848 4.93188 13.4982 4.99748 13.4982C5.06307 13.4982 5.12797 13.4848 5.18817 13.4587C5.24837 13.4327 5.30259 13.3946 5.34748 13.3467L7.34748 11.3467C7.4403 11.2539 7.49245 11.128 7.49245 10.9967C7.49245 10.8655 7.4403 10.7396 7.34748 10.6467C7.25465 10.5539 7.12875 10.5018 6.99748 10.5018C6.8662 10.5018 6.7403 10.5539 6.64748 10.6467Z" />
<path d="M6.64748 6.64673L4.99748 8.28673L4.34748 7.64673C4.25465 7.5539 4.12875 7.50175 3.99748 7.50175C3.8662 7.50175 3.7403 7.5539 3.64748 7.64673C3.55465 7.73956 3.5025 7.86545 3.5025 7.99673C3.5025 8.128 3.55465 8.2539 3.64748 8.34673L4.64748 9.34673C4.69237 9.39456 4.74658 9.43268 4.80678 9.45874C4.86698 9.4848 4.93188 9.49825 4.99748 9.49825C5.06307 9.49825 5.12797 9.4848 5.18817 9.45874C5.24837 9.43268 5.30259 9.39456 5.34748 9.34673L7.34748 7.34673C7.4403 7.2539 7.49245 7.128 7.49245 6.99673C7.49245 6.86545 7.4403 6.73956 7.34748 6.64673C7.25465 6.5539 7.12875 6.50175 6.99748 6.50175C6.8662 6.50175 6.7403 6.5539 6.64748 6.64673Z" />
</svg>
