<svg width="24" height="24" viewBox="0 0 24 24" fill="none" xmlns="http://www.w3.org/2000/svg">
<path d="M20.5 16.2554C20.5 13.3354 18.5 10.9554 16 10.9554C15.3383 10.9632 14.6889 11.135 14.11 11.4554C13.4553 11.1265 12.7327 10.9552 12 10.9552C11.2673 10.9552 10.5447 11.1265 9.89 11.4554C9.31105 11.135 8.66166 10.9632 8 10.9554C5.52 10.9554 3.5 13.3354 3.5 16.2554C3.46057 16.6512 3.50327 17.0509 3.62544 17.4295C3.74761 17.8081 3.94662 18.1573 4.21 18.4554C4.93694 19.028 5.8606 19.2904 6.78 19.1854C6.90345 19.5316 7.09756 19.8483 7.35 20.1154C8.27 21.0154 9.7 21.0054 11.35 20.9854H13.29C14.67 20.9854 15.86 20.8954 16.66 20.1054C16.9124 19.8383 17.1065 19.5216 17.23 19.1754C18.1447 19.2805 19.0641 19.0219 19.79 18.4554C20.0534 18.1573 20.2524 17.8081 20.3746 17.4295C20.4967 17.0509 20.5394 16.6512 20.5 16.2554ZM4.91 17.7154C4.59173 17.299 4.44502 16.7766 4.5 16.2554C4.5 13.8854 6.07 11.9554 8 11.9554C8.30202 11.957 8.60207 12.0042 8.89 12.0954C8.1232 12.7591 7.51166 13.5833 7.09865 14.5095C6.68564 15.4357 6.48127 16.4414 6.5 17.4554C6.5 17.7054 6.5 17.9354 6.5 18.1554C5.93548 18.1929 5.37494 18.0378 4.91 17.7154ZM12.67 19.9554H11.33C9.91 19.9554 8.67 19.9554 8.06 19.3754C7.84501 19.1079 7.68489 18.8006 7.58879 18.4712C7.4927 18.1417 7.46253 17.7965 7.5 17.4554C7.5 14.4554 9.5 11.9554 12 11.9554C14.5 11.9554 16.5 14.4554 16.5 17.4554C16.5375 17.7965 16.5073 18.1417 16.4112 18.4712C16.3151 18.8006 16.155 19.1079 15.94 19.3754C15.33 19.9854 14.09 19.9754 12.67 19.9554ZM19.09 17.7154C18.6156 18.0498 18.0382 18.2056 17.46 18.1554C17.46 17.9354 17.46 17.7054 17.46 17.4554C17.4787 16.4414 17.2744 15.4357 16.8613 14.5095C16.4483 13.5833 15.8368 12.7591 15.07 12.0954C15.3707 12.0001 15.6846 11.9529 16 11.9554C17.93 11.9554 19.5 13.8854 19.5 16.2554C19.555 16.7766 19.4083 17.299 19.09 17.7154Z" fill="#24394A"/>
<path d="M8 10.3554C8.4052 10.3468 8.80411 10.2534 9.17098 10.0812C9.53785 9.90891 9.86455 9.66168 10.13 9.35541C10.6874 9.71495 11.3367 9.90617 12 9.90617C12.6633 9.90617 13.3126 9.71495 13.87 9.35541C14.1903 9.71908 14.597 9.99635 15.0525 10.1617C15.5081 10.3271 15.9979 10.3752 16.4769 10.3017C16.956 10.2282 17.4088 10.0354 17.7938 9.74111C18.1788 9.44677 18.4837 9.06034 18.6802 8.61736C18.8768 8.17439 18.9588 7.68909 18.9187 7.20611C18.8787 6.72314 18.7178 6.258 18.4508 5.85349C18.1839 5.44898 17.8196 5.11809 17.3913 4.89125C16.963 4.66442 16.4846 4.54893 16 4.55541C15.6581 4.55992 15.3197 4.62422 15 4.74541C14.6968 4.21776 14.2598 3.7794 13.7331 3.47458C13.2064 3.16976 12.6086 3.00925 12 3.00925C11.3914 3.00925 10.7936 3.16976 10.2669 3.47458C9.7402 3.7794 9.30319 4.21776 9 4.74541C8.6803 4.62422 8.34186 4.55992 8 4.55541C7.23087 4.55541 6.49324 4.86095 5.94939 5.4048C5.40553 5.94866 5.1 6.68629 5.1 7.45541C5.1 8.22454 5.40553 8.96217 5.94939 9.50602C6.49324 10.0499 7.23087 10.3554 8 10.3554ZM16 5.55541C16.3162 5.55293 16.628 5.62942 16.9072 5.77793C17.1864 5.92645 17.4241 6.14229 17.5988 6.4059C17.7734 6.66951 17.8795 6.97255 17.9075 7.28754C17.9354 7.60253 17.8843 7.9195 17.7587 8.20974C17.6332 8.49997 17.4372 8.75427 17.1885 8.94959C16.9398 9.14491 16.6463 9.27507 16.3345 9.32827C16.0228 9.38147 15.7028 9.35603 15.4034 9.25425C15.104 9.15247 14.8347 8.97757 14.62 8.74541C14.994 8.33622 15.261 7.84084 15.3971 7.30343C15.5331 6.76603 15.5342 6.2033 15.4 5.66541C15.5919 5.5935 15.7951 5.55625 16 5.55541ZM12 3.95541C12.4945 3.95541 12.9778 4.10204 13.3889 4.37674C13.8 4.65144 14.1205 5.04189 14.3097 5.49871C14.4989 5.95552 14.5484 6.45819 14.452 6.94314C14.3555 7.42809 14.1174 7.87355 13.7678 8.22318C13.4181 8.57281 12.9727 8.81091 12.4877 8.90738C12.0028 9.00384 11.5001 8.95433 11.0433 8.76511C10.5865 8.57589 10.196 8.25546 9.92132 7.84434C9.64662 7.43322 9.5 6.94987 9.5 6.45541C9.5 5.79237 9.76339 5.15649 10.2322 4.68765C10.7011 4.21881 11.337 3.95541 12 3.95541ZM8 5.55541C8.20493 5.55625 8.40809 5.5935 8.6 5.66541C8.46584 6.2033 8.46685 6.76603 8.60294 7.30343C8.73904 7.84084 9.00599 8.33622 9.38 8.74541C9.16529 8.97757 8.89603 9.15247 8.59663 9.25425C8.29723 9.35603 7.97717 9.38147 7.66545 9.32827C7.35373 9.27507 7.06022 9.14491 6.81153 8.94959C6.56284 8.75427 6.36683 8.49997 6.24128 8.20974C6.11572 7.9195 6.06459 7.60253 6.09252 7.28754C6.12045 6.97255 6.22656 6.66951 6.40123 6.4059C6.57589 6.14229 6.81359 5.92645 7.09277 5.77793C7.37195 5.62942 7.68378 5.55293 8 5.55541Z" fill="#24394A"/>
</svg>
