<svg width="24" height="24" viewBox="0 0 24 24" fill="none" xmlns="http://www.w3.org/2000/svg">
<path d="M20.97 7.4725C20.97 7.4125 20.95 7.3625 20.93 7.3025C20.93 7.2825 20.92 7.2625 20.91 7.2525C20.87 7.1725 20.82 7.1225 20.76 7.0925L12.75 2.0825C12.59 1.9825 12.38 1.9825 12.22 2.0825L4.21 7.0825C4.15 7.1325 4.1 7.1825 4.06 7.2425C4.06 7.2425 4.05 7.2925 4.04 7.3125C4.02 7.3625 4 7.4225 4 7.4825C4 7.4925 4 7.5025 4 7.5125V16.5025C4 16.6725 4.09 16.8325 4.23 16.9225L12.23 21.9225C12.23 21.9225 12.25 21.9225 12.26 21.9225C12.33 21.9625 12.41 21.9925 12.5 21.9925C12.59 21.9925 12.67 21.9625 12.74 21.9225C12.74 21.9225 12.76 21.9225 12.77 21.9225L20.77 16.9225C20.92 16.8325 21 16.6725 21 16.5025V7.5025C21 7.5025 21 7.4825 21 7.4725H20.97ZM12.48 3.0925L19.54 7.5025L17.51 8.7725L10.51 4.3225L12.48 3.0925ZM16.06 10.0025L8.74 5.4325L9.58 4.9125L17.11 9.7025V12.0025L16.31 12.5125V10.4325C16.31 10.2625 16.22 10.1025 16.07 10.0125L16.06 10.0025ZM12.48 11.9125L5.42 7.5025L7.79 6.0225L14.85 10.4325L12.47 11.9225L12.48 11.9125ZM4.98 8.4025L11.98 12.7825V20.6025L4.98 16.2225V8.4025ZM12.98 20.6025V12.7825L15.3 11.3325V13.4225C15.3 13.6025 15.4 13.7725 15.56 13.8625C15.64 13.9025 15.72 13.9225 15.8 13.9225C15.89 13.9225 15.99 13.8925 16.07 13.8425L17.87 12.6825C18.01 12.5925 18.1 12.4325 18.1 12.2625V9.5725L19.98 8.3925V16.2125L12.98 20.5925V20.6025Z" fill="#24394A"/>
</svg>
