<svg width="24" height="24" viewBox="0 0 24 24" fill="none" xmlns="http://www.w3.org/2000/svg">
<path d="M16 11.1683H10C9.86739 11.1683 9.74021 11.1156 9.64645 11.0219C9.55268 10.9281 9.5 10.8009 9.5 10.6683V7.47832C9.48654 6.8417 9.70717 6.22227 10.12 5.7375C10.5329 5.25274 11.1093 4.93634 11.74 4.84832C12.0883 4.81345 12.4401 4.85183 12.7727 4.96099C13.1053 5.07015 13.4114 5.24769 13.6713 5.48218C13.9313 5.71668 14.1393 6.00295 14.282 6.32261C14.4247 6.64227 14.499 6.98825 14.5 7.33832V7.66832C14.5 7.80093 14.5527 7.9281 14.6464 8.02187C14.7402 8.11564 14.8674 8.16832 15 8.16832C15.1326 8.16832 15.2598 8.11564 15.3536 8.02187C15.4473 7.9281 15.5 7.80093 15.5 7.66832V7.43832C15.5103 6.62369 15.2424 5.82992 14.7406 5.18812C14.2388 4.54631 13.533 4.09486 12.74 3.90832C12.2288 3.79962 11.6998 3.80646 11.1916 3.92832C10.6833 4.05018 10.2088 4.28399 9.80244 4.61269C9.39612 4.94138 9.06833 5.35667 8.843 5.82822C8.61767 6.29977 8.50048 6.81569 8.5 7.33832V10.6683C8.5 10.8009 8.44732 10.9281 8.35355 11.0219C8.25979 11.1156 8.13261 11.1683 8 11.1683C7.33696 11.1683 6.70107 11.4317 6.23223 11.9005C5.76339 12.3694 5.5 13.0053 5.5 13.6683V17.6683C5.5 17.9966 5.56466 18.3217 5.6903 18.625C5.81594 18.9283 6.00009 19.2039 6.23223 19.4361C6.46438 19.6682 6.73998 19.8524 7.04329 19.978C7.34661 20.1037 7.6717 20.1683 8 20.1683H16C16.3283 20.1683 16.6534 20.1037 16.9567 19.978C17.26 19.8524 17.5356 19.6682 17.7678 19.4361C17.9999 19.2039 18.1841 18.9283 18.3097 18.625C18.4353 18.3217 18.5 17.9966 18.5 17.6683V13.6683C18.5 13.0053 18.2366 12.3694 17.7678 11.9005C17.2989 11.4317 16.663 11.1683 16 11.1683ZM17.5 17.6683C17.5 18.0661 17.342 18.4477 17.0607 18.729C16.7794 19.0103 16.3978 19.1683 16 19.1683H8C7.60218 19.1683 7.22064 19.0103 6.93934 18.729C6.65804 18.4477 6.5 18.0661 6.5 17.6683V13.6683C6.5 13.2705 6.65804 12.889 6.93934 12.6077C7.22064 12.3264 7.60218 12.1683 8 12.1683H16C16.3978 12.1683 16.7794 12.3264 17.0607 12.6077C17.342 12.889 17.5 13.2705 17.5 13.6683V17.6683Z" fill="#24394A"/>
</svg>
